<svg width="493" height="319" viewBox="0 0 493 319" fill="none" xmlns="http://www.w3.org/2000/svg">
<path d="M328.46 216.537C318.295 222.607 300.183 230.212 281.676 222.396L269.712 217.344L293.687 190.586C274.555 169.583 263.971 142.237 264 113.883C264.029 85.53 274.67 58.205 293.844 37.2418C313.019 16.2787 339.351 3.18203 367.702 0.508265C396.053 -2.1655 424.387 5.77549 447.174 22.7812C469.961 39.787 485.565 64.6369 490.941 92.4806C496.317 120.324 491.078 149.163 476.248 173.368C461.417 197.573 438.059 215.407 410.733 223.389C383.407 231.371 354.074 228.928 328.46 216.537V216.537ZM282.525 113.819C282.472 126.89 285.136 139.83 290.35 151.825C295.563 163.82 303.214 174.612 312.819 183.521L319.433 189.708L304.346 206.546C312.204 204.958 319.049 200.726 322.519 198.267L327.281 194.894L332.403 197.696C346.56 205.413 362.44 209.457 378.58 209.456C431.545 209.456 474.636 166.554 474.636 113.82C474.636 61.0857 431.545 18.1835 378.58 18.1835C325.615 18.1835 282.525 61.0857 282.525 113.82V113.819Z" fill="#3F3D56"/>
<path d="M274 114C274 56.0101 321.01 9 379 9C436.99 9 484 56.0101 484 114C484 171.99 436.99 219 379 219C361.351 219.026 343.983 214.582 328.515 206.083C321.257 211.248 303.55 221.548 286.058 214.128L307.114 190.525C296.647 180.718 288.307 168.865 282.611 155.701C276.914 142.537 273.984 128.343 274 114V114Z" fill="#D1CEFF"/>
<path opacity="0.1" d="M465.323 114C465.323 59.1381 422.98 14.1117 369 9.41287C372.078 9.14496 375.191 9 378.339 9C436.694 9 484 56.0101 484 114C484 171.99 436.694 219 378.339 219C375.196 219 372.088 218.853 369.015 218.586C422.988 213.88 465.323 168.857 465.323 114Z" fill="black"/>
<path d="M123.554 309C97.2953 309.012 71.8302 299.999 51.4265 283.47C31.0227 266.941 16.9202 243.901 11.4823 218.212C6.04438 192.522 9.60162 165.744 21.5578 142.365C33.514 118.987 53.1426 100.428 77.154 89.7991C101.165 79.1704 128.101 77.1178 153.445 83.9852C178.79 90.8527 201.004 106.223 216.365 127.52C231.726 148.817 239.3 174.747 237.817 200.964C236.335 227.18 225.887 252.091 208.223 271.521L232.134 298.325L220.202 303.387C201.743 311.216 183.68 303.598 173.541 297.517C157.96 305.071 140.87 308.997 123.554 309ZM123.554 98.82C70.7289 98.82 27.7523 141.797 27.7523 194.622C27.7523 247.447 70.7289 290.423 123.554 290.423C139.651 290.425 155.49 286.374 169.609 278.643L174.717 275.836L179.467 279.216C182.928 281.678 189.754 285.918 197.592 287.508L182.545 270.642L189.141 264.444C198.721 255.52 206.351 244.709 211.551 232.693C216.751 220.677 219.408 207.715 219.356 194.622C219.356 141.797 176.379 98.82 123.554 98.82Z" fill="#3F3D56"/>
<path d="M229 193.5C229 135.786 181.99 89 124 89C66.0101 89 19 135.786 19 193.5C19 251.214 66.0101 298 124 298C141.649 298.026 159.017 293.603 174.485 285.145C181.743 290.285 199.45 300.536 216.942 293.152L195.886 269.661C206.353 259.901 214.693 248.104 220.389 235.003C226.086 221.901 229.016 207.775 229 193.5Z" fill="#D1CEFF"/>
<path opacity="0.1" d="M37.3527 193.5C37.3527 138.899 78.9589 94.0874 132 89.4109C128.976 89.1443 125.917 89 122.824 89C65.4834 89 19 135.786 19 193.5C19 251.214 65.4834 298 122.824 298C125.912 298 128.966 297.854 131.985 297.588C78.9514 292.904 37.3527 248.096 37.3527 193.5Z" fill="black"/>
<path d="M402.108 80.1554C395.355 68.583 381.995 68.0437 381.995 68.0437C381.995 68.0437 368.977 66.3552 360.625 83.9802C352.841 100.408 342.098 116.27 358.896 120.115L361.93 110.537L363.809 120.828C366.201 121.003 368.6 121.044 370.996 120.953C388.985 120.364 406.117 121.125 405.565 114.578C404.832 105.875 408.606 91.2904 402.108 80.1554Z" fill="#2F2E41"/>
<path d="M357.783 182.115C357.581 183.395 357.287 184.659 356.905 185.897C356.474 187.109 355.809 188.23 355.415 189.455C354.159 193.358 355.9 197.71 358.68 200.723C361.091 203.325 364.202 205.174 367.64 206.046C370.171 206.588 372.752 206.859 375.34 206.856C382.497 207.098 389.837 207.316 396.619 205.015C398.761 204.27 400.831 203.329 402.801 202.205C403.423 201.908 403.971 201.476 404.405 200.941C404.859 200.157 405.061 199.251 404.984 198.348C404.969 195.313 404.354 192.293 404.5 189.261C404.58 187.581 404.895 185.903 404.74 184.229C404.526 182.328 403.73 180.539 402.461 179.107C401.191 177.676 399.511 176.672 397.649 176.233C395.726 175.82 393.73 176.045 391.772 176.233C386.688 176.722 381.583 176.95 376.475 176.918C371.257 176.884 366.071 176.087 360.879 176.004C359.343 175.979 359.374 176.453 358.886 177.94C358.435 179.308 358.067 180.703 357.783 182.115V182.115Z" fill="#2F2E41"/>
<path d="M373.218 108.103C372.968 109.385 372.698 110.713 371.911 111.766C371.006 112.978 369.53 113.67 368.556 114.83C367.091 116.575 367.006 119.031 367 121.29C366.995 123.372 367.038 125.592 368.224 127.319C369.068 128.393 370.115 129.297 371.309 129.982C375.755 132.915 380.561 135.901 385.922 135.998C388.143 136.038 390.525 135.477 391.987 133.839C392.618 133.069 393.114 132.203 393.455 131.274C394.826 127.966 395.657 124.468 395.918 120.907C396.115 119.234 395.956 117.538 395.449 115.927C394.798 114.15 393.481 112.687 392.61 111.002C391.582 108.998 391.205 106.733 391.532 104.513C391.576 104.357 391.562 104.191 391.494 104.043C391.423 103.964 391.334 103.902 391.233 103.862C391.133 103.823 391.025 103.806 390.918 103.814L380.287 103.065C379.297 103.017 378.311 102.907 377.335 102.735C376.762 102.621 375.249 101.824 374.702 102.036C373.691 102.428 373.425 107.04 373.218 108.103Z" fill="#A0616A"/>
<path opacity="0.1" d="M373.218 108.103C372.968 109.385 372.698 110.713 371.911 111.766C371.006 112.978 369.53 113.67 368.556 114.83C367.091 116.575 367.006 119.031 367 121.29C366.995 123.372 367.038 125.592 368.224 127.319C369.068 128.393 370.115 129.297 371.309 129.982C375.755 132.915 380.561 135.901 385.922 135.998C388.143 136.038 390.525 135.477 391.987 133.839C392.618 133.069 393.114 132.203 393.455 131.274C394.826 127.966 395.657 124.468 395.918 120.907C396.115 119.234 395.956 117.538 395.449 115.927C394.798 114.15 393.481 112.687 392.61 111.002C391.582 108.998 391.205 106.733 391.532 104.513C391.576 104.357 391.562 104.191 391.494 104.043C391.423 103.964 391.334 103.902 391.233 103.862C391.133 103.823 391.025 103.806 390.918 103.814L380.287 103.065C379.297 103.017 378.311 102.907 377.335 102.735C376.762 102.621 375.249 101.824 374.702 102.036C373.691 102.428 373.425 107.04 373.218 108.103Z" fill="black"/>
<path d="M383.5 109C392.06 109 399 101.837 399 93C399 84.1634 392.06 77 383.5 77C374.94 77 368 84.1634 368 93C368 101.837 374.94 109 383.5 109Z" fill="#A0616A"/>
<path d="M374.57 127.546C375.332 128.45 376.25 129.202 377.278 129.764C378.35 130.218 379.501 130.442 380.66 130.424C383.439 130.504 386.451 129.982 388.384 127.935C390.876 125.295 390.794 121.039 392.747 117.96C392.905 117.681 393.119 117.44 393.377 117.254C393.704 117.072 394.074 116.984 394.447 117.002C396.914 116.979 399.062 118.618 401.002 120.181C401.914 120.824 402.698 121.642 403.309 122.589C403.692 123.356 403.955 124.18 404.087 125.031C405.049 129.846 405.361 134.768 405.67 139.672C405.841 142.381 406.012 145.092 405.999 147.807C405.957 156.75 403.929 165.543 401.912 174.244C401.652 175.365 401.297 176.618 400.302 177.155C399.859 177.359 399.382 177.478 398.897 177.506C393.12 178.202 387.331 178.898 381.515 178.99C379.245 179.025 376.977 178.969 374.709 178.821C374.319 178.815 373.932 178.746 373.563 178.616C373.062 178.369 372.631 177.995 372.313 177.528C369.167 173.465 368.981 167.849 369.001 162.662C369.05 149.982 369.492 137.311 370.327 124.651C370.396 123.606 370.411 122.337 369.677 121.515C371.107 123.688 372.747 125.708 374.57 127.546V127.546Z" fill="#E6E6E6"/>
<path d="M371.64 109.404C371.101 110.365 367.126 112.75 366.358 113.547C362.071 117.995 354.245 117.828 350.323 122.593C348.943 124.27 348.227 126.376 347.699 128.47C346.954 131.432 346.556 134.662 347.805 137.454C349.007 140.142 351.537 141.999 353.255 144.4C355.141 147.035 355.989 150.235 356.801 153.358C357.401 155.664 358.007 158.027 357.773 160.396C357.507 163.09 356.183 165.557 355.401 168.151C354.619 170.746 354.484 173.836 356.292 175.875C357.62 177.373 359.703 177.967 361.695 178.301C364.245 178.678 366.817 178.899 369.395 178.961C371.672 179.06 374.181 179.079 375.931 177.643C377.312 176.509 377.912 174.67 377.99 172.902C378.067 171.134 377.694 169.382 377.459 167.627C377.217 165.809 377.123 163.974 377.045 162.141C376.695 153.917 376.648 145.688 376.902 137.453C377.03 135.742 376.945 134.022 376.648 132.331C376.16 130.128 374.951 128.159 373.941 126.135C371.924 122.323 371.011 118.039 371.3 113.751C371.606 109.343 373.559 105.986 371.64 109.404Z" fill="#E6E6E6"/>
<path d="M393.376 110.263C394.177 111.092 396.896 111.365 397.914 111.898C398.871 112.344 399.871 112.692 400.897 112.939C404.61 114.018 408.142 115.651 411.375 117.784C412.047 118.18 412.641 118.697 413.127 119.309C413.64 120.149 413.97 121.089 414.097 122.066C414.595 124.554 415.096 127.071 414.984 129.606C414.865 132.297 414.061 134.904 413.262 137.475L410.28 147.081C408.054 154.251 405.813 161.492 405.187 168.978C404.84 173.127 404.994 177.303 405.646 181.415C405.707 181.615 405.725 181.826 405.699 182.034C405.673 182.241 405.604 182.441 405.495 182.62C405.299 182.815 405.04 182.935 404.765 182.958C403.326 183.185 401.932 182.446 400.628 181.791C396.642 179.793 392.388 178.39 388 177.628C389.715 175.132 391.038 172.385 391.922 169.483C392.425 167.64 392.82 165.769 393.107 163.88L394.495 155.796C395.059 152.841 395.457 149.857 395.685 146.856C395.79 145.73 395.725 144.595 395.492 143.489C395.172 142.436 394.748 141.418 394.225 140.452C391.938 135.66 390.865 130.192 391.765 124.953C392.159 122.66 392.924 120.365 392.605 118.06C392.298 115.845 392.617 114.123 392.053 111.93C389.736 102.927 391.871 108.704 393.376 110.263Z" fill="#E6E6E6"/>
<path d="M350.866 131.226C349.778 133.348 347.958 135.155 347.339 137.438C347.098 138.504 346.994 139.594 347.031 140.684C346.923 142.326 347.097 143.974 347.544 145.565C347.889 146.572 348.452 147.5 348.857 148.487C349.422 149.865 349.673 151.339 349.596 152.814C349.486 154.858 348.747 156.842 348.689 158.887C348.599 162.104 350.183 165.128 351.728 168C352.117 167.095 352.712 166.281 353.471 165.614C354.23 164.948 355.135 164.445 356.123 164.142C357.11 163.838 358.156 163.741 359.188 163.857C360.219 163.972 361.212 164.298 362.095 164.812C362.449 164.404 362.617 163.881 362.562 163.356C362.677 159.625 362.787 155.892 362.893 152.16C363.06 146.388 363.22 140.539 361.806 134.919C361.168 132.382 360.175 129.855 358.354 127.887C357.395 126.851 354.141 124.121 352.567 125.282C351.86 125.804 352.025 127.225 351.913 127.945C351.744 129.082 351.391 130.189 350.866 131.226V131.226Z" fill="#E6E6E6"/>
<path d="M414.473 123.635C414.878 125.223 415.051 126.866 414.987 128.509C415.006 131.857 414.964 135.205 414.861 138.553C414.877 140.27 414.669 141.981 414.243 143.638C413.918 144.716 413.417 145.726 413.081 146.8C412.076 150.019 412.625 153.51 412.711 156.897C412.772 157.994 412.684 159.094 412.448 160.164C411.918 162.264 410.492 163.961 409.497 165.864C408.552 167.671 407.982 169.697 406.854 171.383C405.725 173.069 403.771 174.405 401.878 173.887C400.443 173.495 399.423 172.155 398.718 170.779C397.179 167.755 396.653 164.271 397.225 160.891C397.933 156.779 400.221 153.132 401.047 149.045C402.18 143.432 400.458 137.64 400.509 131.902C400.485 131.002 400.601 130.105 400.851 129.245C401.284 127.934 402.214 126.887 403.073 125.836C404.147 124.522 405.144 123.141 406.059 121.7C406.674 120.732 407.51 118.243 408.6 118.036C411.034 117.574 413.869 121.65 414.473 123.635Z" fill="#E6E6E6"/>
<path d="M337.416 179.471C336.013 179.114 334.568 178.959 333.123 179.009C331.604 179.094 330.121 179.506 328.772 180.216C327.422 180.927 326.238 181.92 325.297 183.131C324.356 184.341 323.68 185.74 323.314 187.235C322.949 188.73 322.901 190.287 323.176 191.803C323.526 193.444 324.098 195.028 324.877 196.511C326.015 198.851 327.381 201.186 329.488 202.686C330.758 203.51 332.125 204.169 333.558 204.648L344.658 208.883C346.291 209.506 347.924 210.13 349.574 210.707C357.859 213.608 366.496 215.348 375.247 215.877C377.91 216.13 380.594 215.992 383.218 215.468C383.852 215.384 384.434 215.066 384.851 214.575C385.062 214.201 385.187 213.784 385.215 213.354L385.898 208.511C386.051 207.836 386.031 207.134 385.84 206.469C385.527 205.655 384.743 205.143 383.995 204.708C376.698 200.463 368.177 198.12 362.034 192.293C360.588 190.922 359.378 188.747 357.621 187.816C355.629 186.759 353.283 186.156 351.223 185.182C346.721 183.054 342.295 180.608 337.416 179.471Z" fill="#2F2E41"/>
<path opacity="0.1" d="M348.094 186.034C352.115 187.19 369.09 195.201 372 197.998C371.61 198.127 358.377 191.321 357.98 191.211C354.34 190.294 350.776 189.141 347.314 187.762C346.624 187.469 342.834 186.093 343.006 185.295C343.199 184.393 347.38 185.828 348.094 186.034Z" fill="black"/>
<path d="M398.171 216.993C398.395 217.009 398.617 216.945 398.796 216.812C398.875 216.713 398.933 216.6 398.966 216.479C399 216.358 399.008 216.232 398.992 216.108L398.973 209.694C397.09 208.815 394.984 208.534 392.917 208.263L383.271 207C383.492 207.029 381.763 211.069 382.028 211.609C382.495 212.56 386.068 213.402 387.076 213.851C390.581 215.411 394.223 217.127 398.171 216.993Z" fill="#A0616A"/>
<path d="M367.099 210.625C365.23 210.911 363.145 211.163 361.935 212.557C360.4 214.325 361.053 216.961 361.785 219.152C361.83 219.434 361.933 219.706 362.089 219.949C362.245 220.193 362.451 220.404 362.693 220.571C362.936 220.737 363.211 220.855 363.502 220.918C363.793 220.981 364.094 220.987 364.387 220.936C366.091 221.039 367.905 221.12 369.394 220.319C370.068 219.892 370.717 219.429 371.338 218.933C372.436 218.233 373.643 217.704 374.914 217.366C377.25 216.662 379.655 216.187 382.091 215.948C383.051 215.906 384.002 215.746 384.919 215.47C385.377 215.329 385.795 215.088 386.14 214.767C386.485 214.445 386.749 214.052 386.91 213.617C387.255 212.447 386.545 211.254 385.865 210.227C385.081 208.883 384.063 207.677 382.855 206.661C381.011 205.288 380.099 206.342 378.242 207.221C374.726 208.884 370.97 210.032 367.099 210.625V210.625Z" fill="#A0616A"/>
<path d="M363.673 212.24L351.759 208.835C350.33 208.354 348.837 208.074 347.326 208.004C346.569 207.974 345.814 208.101 345.112 208.375C344.41 208.65 343.776 209.066 343.254 209.596C342.33 210.645 342.066 212.078 341.835 213.437L341.343 216.345C341.014 217.811 340.921 219.317 341.067 220.81C341.146 221.557 341.4 222.276 341.811 222.913C342.221 223.551 342.776 224.09 343.434 224.488C345.082 225.358 347.103 224.933 348.943 224.569C352.66 223.835 356.44 223.443 360.233 223.399C361.659 223.382 363.155 223.4 364.415 222.754C365.146 222.334 365.761 221.749 366.205 221.048C366.649 220.347 366.909 219.551 366.963 218.731C367.198 216.247 366.341 213.003 363.673 212.24Z" fill="#2F2E41"/>
<path d="M401.823 209.339C403.298 209.076 404.6 208.222 406.014 207.718C408.004 207.009 410.16 207.009 412.268 207.017C413.043 206.945 413.822 207.104 414.51 207.474C415.439 208.104 415.677 209.363 415.834 210.488L416.787 217.272C417.042 218.537 417.068 219.84 416.865 221.115C416.585 222.372 415.744 223.584 414.519 223.909C413.031 224.302 411.572 223.335 410.167 222.699C406.655 221.11 402.573 221.516 398.911 220.328C398.561 220.257 398.23 220.11 397.94 219.899C397.649 219.688 397.406 219.416 397.227 219.102C397.102 218.725 397.057 218.325 397.096 217.929C397.159 215.749 396.707 212.771 397.352 210.687C397.931 208.813 400.176 209.339 401.823 209.339Z" fill="#2F2E41"/>
<path d="M426.383 176.587C428.702 176.023 431.106 175.864 433.483 176.117C435.381 176.32 437.337 176.832 438.723 178.107C440.41 179.659 440.952 182.059 440.997 184.314C441.072 188.805 439.536 193.182 436.654 196.697C435.95 197.586 435.113 198.368 434.171 199.017C433.154 199.634 432.071 200.141 430.94 200.528L405.86 210.126C399.262 212.652 392.64 215.184 385.758 216.849C385.57 216.937 385.366 216.988 385.157 216.998C384.948 217.008 384.74 216.978 384.543 216.909C384.347 216.84 384.166 216.733 384.013 216.596C383.86 216.458 383.736 216.292 383.65 216.107C381.453 213.062 379.609 209.789 378.153 206.351C378.084 206.269 378.037 206.172 378.014 206.069C377.992 205.965 377.996 205.858 378.025 205.757C378.055 205.655 378.109 205.562 378.183 205.485C378.258 205.408 378.35 205.349 378.453 205.314L396.192 195.424C397.493 194.766 398.705 193.955 399.803 193.01C400.569 192.289 401.197 191.441 401.656 190.506C402.024 189.761 402.058 188.002 402.528 187.451C402.988 186.912 404.561 186.869 405.288 186.657C406.312 186.352 407.316 185.984 408.292 185.555C412.26 183.832 415.793 181.33 419.597 179.313C421.731 178.129 424.011 177.213 426.383 176.587V176.587Z" fill="#2F2E41"/>
<path opacity="0.1" d="M417.033 184.9C413.925 187.139 409.902 189.198 406.822 191.496C405.77 192.28 388.248 201.732 388 202.987C390.873 203.452 409.177 191.167 411.796 189.941C414.415 188.715 416.736 186.986 419.037 185.27C419.623 184.833 422.107 183.519 420.424 183.03C419.476 182.755 417.733 184.453 417.033 184.9Z" fill="black"/>
<path d="M395.93 111H369.359C368.279 111 367.244 111.42 366.481 112.167C365.718 112.914 365.289 113.927 365.289 114.984V116.442H365V119.705H365.289V121.988H365V123.946H365.289V148.016C365.289 149.073 365.718 150.086 366.481 150.833C367.244 151.58 368.279 152 369.359 152H395.93C397.009 152 398.045 151.58 398.808 150.833C399.571 150.086 400 149.073 400 148.016V114.983C400 113.927 399.571 112.914 398.808 112.167C398.044 111.42 397.009 111 395.93 111V111Z" fill="#D0CDE1"/>
<path d="M399.368 79.4518L386.105 72L367.789 75.0485L364 93L373.433 92.6104L376.068 86.0155V92.5022L380.421 92.3226L382.947 81.8223L384.526 93L400 92.661L399.368 79.4518Z" fill="#2F2E41"/>
<path d="M353.73 174.073C354.352 175.102 355.237 175.958 356.298 176.558C356.994 176.868 357.754 177.018 358.519 176.998C359.284 176.978 360.035 176.788 360.713 176.443C362.068 175.737 363.176 174.655 363.899 173.336C365.394 170.767 365.704 167.693 365.518 164.747C365.331 161.8 364.684 158.899 364.398 155.96C364.19 153.824 364.173 151.675 364.156 149.529C364.105 149.077 364.202 148.622 364.434 148.228C364.834 147.841 365.351 147.59 365.909 147.511C368.927 146.639 370.93 143.887 372.366 141.162C373.325 139.342 374.159 137.353 373.974 135.315C373.789 133.278 372.284 131.226 370.193 131.018C368.469 130.847 366.877 131.912 365.633 133.086C362.496 136.067 360.479 139.987 359.908 144.217C359.635 146.288 359.713 148.416 359.134 150.427C357.897 154.72 354.029 157.353 352.101 161.216C349.976 165.473 351.149 170.306 353.73 174.073Z" fill="#A0616A"/>
<path d="M409.428 158.098C409.002 159.11 408.382 160.024 407.604 160.787C406.826 161.55 405.907 162.146 404.9 162.54C403.648 163.053 402.267 163.14 400.963 162.786C400.317 162.603 399.72 162.27 399.22 161.814C398.72 161.357 398.33 160.789 398.079 160.153C397.88 159.513 397.771 158.847 397.755 158.175C397.567 155.234 397.64 152.203 398.686 149.456C399.09 148.397 399.634 147.392 399.953 146.303C400.266 145.045 400.426 143.752 400.43 142.454L400.774 134.429C400.831 133.846 400.791 133.258 400.657 132.689C400.314 131.527 399.251 130.773 398.275 130.08C395.919 128.408 393.591 126.456 392.45 123.769C392.058 122.96 391.917 122.048 392.047 121.155C392.369 119.561 393.945 118.53 395.502 118.182C396.521 117.955 397.574 117.94 398.598 118.139C399.623 118.339 400.597 118.748 401.463 119.341C402.328 119.935 403.067 120.702 403.635 121.595C404.202 122.488 404.587 123.489 404.765 124.538C404.92 125.444 404.917 126.369 405.008 127.284C405.199 129.224 405.802 131.094 406.18 133.005C407.109 137.713 406.628 142.58 407.547 147.288C408.316 151.224 411.214 153.792 409.428 158.098Z" fill="#A0616A"/>
<path d="M382.5 129C384.433 129 386 127.433 386 125.5C386 123.567 384.433 122 382.5 122C380.567 122 379 123.567 379 125.5C379 127.433 380.567 129 382.5 129Z" fill="#6C63FF"/>
<path d="M9.5 190C14.7467 190 19 185.747 19 180.5C19 175.253 14.7467 171 9.5 171C4.25329 171 0 175.253 0 180.5C0 185.747 4.25329 190 9.5 190Z" fill="#2F2E41"/>
<path d="M44.9207 208.945L40.2929 204L31 207.173L31.8926 219L51 218.025L45.1301 209.258L44.9207 208.945Z" fill="#FBBEBE"/>
<path d="M34.5 210C43.0604 210 50 202.613 50 193.5C50 184.387 43.0604 177 34.5 177C25.9396 177 19 184.387 19 193.5C19 202.613 25.9396 210 34.5 210Z" fill="#FBBEBE"/>
<path d="M131.773 230C131.773 230 151.301 263.163 155.948 268.142C158.159 270.592 160.513 272.911 163 275.087C163 275.087 160.815 282.249 157.335 281.993C155.352 281.875 153.407 281.402 151.595 280.595C151.595 280.595 150.042 276.617 147.333 274.872C144.624 273.127 122.492 251.61 123.009 244.733C123.526 237.855 131.773 230 131.773 230Z" fill="#2F2E41"/>
<path d="M63 277.543C63 277.543 83.7735 293.702 112.005 278.518L114.438 276.724C114.438 276.724 110.332 285.981 109.951 288.49C109.51 291.4 98.82 308.447 97.0756 309.264C95.3312 310.08 94.9468 310.834 94.9468 310.834L102.35 319L105.087 316.981C105.087 316.981 115.759 301.827 118.881 299.055C122.002 296.283 136.875 267.694 136.875 267.694C136.875 267.694 142.561 256.922 128.37 256.111C114.179 255.301 107.649 259.178 107.649 259.178L82.4637 263.187L63 277.543Z" fill="#2F2E41"/>
<path d="M166.274 244L177.001 251.38C177.001 251.38 190.686 255.643 182.256 258.481C173.826 261.318 151.611 262.344 151.107 258.43C150.603 254.515 151.983 248.354 153.091 248.691C154.2 249.028 161.892 251.014 166.274 244Z" fill="#2F2E41"/>
<path d="M167.853 276.191L169.818 286.987C169.818 286.987 175.406 297.679 168.696 294.362C161.986 291.044 148.162 278.443 150.204 275.802C152.245 273.16 156.751 270.295 157.208 271.156C157.666 272.017 161.052 277.781 167.853 276.191Z" fill="#2F2E41"/>
<path d="M86 266.827C86 266.827 72.0264 283.394 63.5427 279.37C55.0591 275.345 20.3509 228.731 24.314 220.116C28.277 211.5 29.6059 213.334 29.6059 213.334L47.5268 215.017L42.3705 206.621C42.3705 206.621 44.778 204.822 47.0722 207.348C49.3663 209.873 58.5769 216.181 61.7856 225.09C64.9943 233.999 74.4146 233.555 74.4146 233.555L86 266.827Z" fill="#FF6F61"/>
<path d="M143 232.383L118.209 258L96 219.831L117.113 195L143 232.383Z" fill="#3F3D56"/>
<path d="M141 232.291L118.966 255L99 220.006L117.311 197L141 232.291Z" fill="white"/>
<path d="M116.846 257L118 258.017L117.26 259.558L84.3115 270L84 268.798L85.499 267.147L116.846 257Z" fill="#B3B3B3"/>
<path d="M120 258.823L83.9659 270L62 228.822L97.3982 220L120 258.823Z" fill="#D0CDE1"/>
<path d="M117 253.848L115.429 255L98 224.839L99.8014 224L117 253.848Z" fill="#3F3D56"/>
<path d="M113 253.603L98.0131 258L81 228.359L95.8265 225L113 253.603Z" fill="#3F3D56"/>
<path d="M70.8564 232.167L73.8814 231.328C73.8814 231.328 90.7514 229.457 90.9977 234.655C91.244 239.853 71.6171 237.441 71.6171 237.441L69 233.954L70.8564 232.167Z" fill="#FBBEBE"/>
<path d="M85.8329 257L90.1145 255.172C90.1145 255.172 103.039 249.145 99.3315 245.219C95.6239 241.292 84.1891 248.111 84.1891 248.111L82 250.27L85.8329 257Z" fill="#FBBEBE"/>
<path d="M81.355 248.499C81.355 248.499 88.3576 255.537 86.7642 257.191C85.1707 258.844 59.0419 280.589 52.5648 273.631C46.0877 266.673 14.5303 231.741 26.8098 228.745C39.0892 225.749 42.3337 232.753 42.3337 232.753L58.544 260.723L81.355 248.499Z" fill="#FF6F61"/>
<path d="M60.895 228L73 231.515L72.8023 239L60 237.817L60.895 228Z" fill="#FF6F61"/>
<path opacity="0.2" d="M72 252.672L59.3981 260L45 238L58.8983 256.123L72 252.672Z" fill="black"/>
<path d="M27.5 208C37.7173 208 46 199.493 46 189C46 178.507 37.7173 170 27.5 170C17.2827 170 9 178.507 9 189C9 199.493 17.2827 208 27.5 208Z" fill="#2F2E41"/>
<path d="M128.987 234L116 214.864L121.505 208L135 227.687L128.987 234Z" fill="#6C63FF"/>
<path d="M129.103 242L109 213.181L109.991 212L130 240.887L129.103 242Z" fill="#E6E6E6"/>
<path d="M126.145 246L107 216.221L107.944 215L127 244.85L126.145 246Z" fill="#E6E6E6"/>
<path d="M124.103 247L104 218.181L104.991 217L125 245.887L124.103 247Z" fill="#E6E6E6"/>
<path d="M36 176H41.8438C44.8026 176 47.6402 177.264 49.7324 179.515C51.8246 181.765 53 184.817 53 188V188H36V176Z" fill="#2F2E41"/>
</svg>
