<svg width="358" height="271" viewBox="0 0 358 271" fill="none" xmlns="http://www.w3.org/2000/svg">
<path fill-rule="evenodd" clip-rule="evenodd" d="M301.356 213.368C301.089 213.636 300.344 213.336 299.618 212.693L298.862 213.309L298.656 213.552C299.499 214.63 299.825 215.981 299.635 217.27L299.637 217.271L301.223 217.54C301.245 217.495 301.27 217.45 301.296 217.405C301.68 216.74 302.287 216.371 302.651 216.581C303.015 216.791 302.999 217.501 302.615 218.167C302.231 218.832 301.624 219.201 301.26 218.991C301.052 218.871 300.968 218.588 301.005 218.244L299.573 217.7L299.553 217.696C299.35 218.543 298.918 219.347 298.257 220.008C297.824 220.441 297.331 220.775 296.804 221.011L297.117 221.855C297.799 221.826 298.357 222.082 298.402 222.465C298.451 222.883 297.872 223.295 297.109 223.384C296.345 223.473 295.687 223.206 295.638 222.788C295.599 222.452 295.966 222.121 296.508 221.957L296.381 221.178C294.848 221.7 293.106 221.438 291.781 220.391L291.776 220.395L290.995 221.339C291.63 222.061 291.926 222.799 291.659 223.065C291.362 223.363 290.476 222.959 289.68 222.163C288.884 221.368 288.481 220.482 288.778 220.184C289.047 219.915 289.797 220.219 290.526 220.868L291.437 220.125L291.452 220.107C291.418 220.075 291.384 220.042 291.35 220.008C290.3 218.958 289.828 217.549 289.934 216.176L289.379 215.972L288.057 215.748C287.683 216.339 287.135 216.659 286.791 216.468C286.423 216.264 286.427 215.554 286.799 214.882C287.172 214.21 287.772 213.83 288.14 214.034C288.418 214.188 288.484 214.629 288.34 215.124L289.442 215.543L290.004 215.645C290.18 214.713 290.629 213.822 291.35 213.101C291.98 212.471 292.738 212.05 293.541 211.836L293.47 210.986C293.02 211.099 292.629 211.03 292.482 210.775C292.271 210.411 292.64 209.804 293.306 209.42C293.971 209.035 294.681 209.019 294.891 209.384C295.088 209.725 294.778 210.278 294.192 210.662L294.097 211.721C295.571 211.507 297.123 211.967 298.257 213.101C298.286 213.13 298.315 213.16 298.343 213.189L298.522 213.04L299.174 212.252C298.515 211.518 298.204 210.758 298.475 210.487C298.773 210.19 299.659 210.593 300.455 211.389C301.25 212.184 301.654 213.071 301.356 213.368Z" fill="#646AD3"/>
<path fill-rule="evenodd" clip-rule="evenodd" d="M349.746 136.491C349.746 137.019 348.716 137.456 347.367 137.539L347.23 138.892L347.266 139.334C349.16 139.566 350.813 140.576 351.896 142.034L351.899 142.033L353.727 140.735C353.705 140.668 353.685 140.6 353.666 140.53C353.389 139.496 353.623 138.534 354.19 138.382C354.757 138.23 355.441 138.946 355.718 139.981C355.995 141.015 355.761 141.977 355.194 142.129C354.871 142.216 354.509 142.02 354.207 141.644L352.259 142.518L352.235 142.535C352.871 143.57 353.237 144.788 353.237 146.092C353.237 146.945 353.08 147.761 352.794 148.513L353.935 149.037C354.578 148.336 355.38 148.038 355.803 148.372C356.263 148.736 356.097 149.712 355.433 150.552C354.768 151.392 353.857 151.779 353.396 151.415C353.026 151.122 353.061 150.434 353.434 149.738L352.541 149.094C351.544 151.121 349.568 152.58 347.23 152.854L347.229 152.862L347.389 154.563C348.728 154.649 349.746 155.085 349.746 155.61C349.746 156.197 348.474 156.672 346.906 156.672C345.337 156.672 344.066 156.197 344.066 155.61C344.066 155.08 345.105 154.64 346.463 154.561L346.629 152.931L346.626 152.898C346.56 152.9 346.494 152.901 346.428 152.901C344.357 152.901 342.503 151.977 341.254 150.519L340.506 150.866L338.981 151.948C339.196 152.9 338.971 153.754 338.444 153.905C337.88 154.067 337.183 153.363 336.888 152.333C336.593 151.304 336.811 150.338 337.375 150.176C337.799 150.054 338.3 150.424 338.647 151.054L340.146 150.38L340.8 149.926C340.055 148.834 339.619 147.514 339.619 146.092C339.619 144.851 339.951 143.687 340.531 142.685L339.623 141.917C339.292 142.471 338.838 142.789 338.442 142.683C337.875 142.531 337.641 141.569 337.918 140.535C338.195 139.5 338.879 138.784 339.446 138.936C339.976 139.078 340.216 139.93 340.017 140.887L340.967 142.023C342.209 140.36 344.192 139.283 346.428 139.283C346.485 139.283 346.543 139.283 346.6 139.285L346.629 138.961L346.496 137.542C345.121 137.468 344.066 137.025 344.066 136.491C344.066 135.904 345.337 135.428 346.906 135.428C348.474 135.428 349.746 135.904 349.746 136.491Z" fill="#6C63FF"/>
<path fill-rule="evenodd" clip-rule="evenodd" d="M244.56 116.7C244.56 117.048 243.882 117.336 242.993 117.391L242.902 118.282L242.926 118.574C244.174 118.727 245.263 119.392 245.978 120.353L245.979 120.352L247.184 119.497C247.17 119.453 247.156 119.408 247.144 119.362C246.961 118.68 247.116 118.046 247.489 117.946C247.863 117.846 248.313 118.318 248.496 119C248.679 119.682 248.524 120.316 248.151 120.416C247.938 120.473 247.7 120.344 247.5 120.096L246.217 120.672L246.201 120.683C246.62 121.365 246.861 122.168 246.861 123.027C246.861 123.589 246.758 124.127 246.569 124.623L247.321 124.968C247.744 124.506 248.273 124.31 248.552 124.53C248.855 124.77 248.746 125.413 248.308 125.967C247.87 126.52 247.269 126.775 246.966 126.535C246.722 126.342 246.745 125.889 246.991 125.43L246.402 125.006C245.745 126.342 244.443 127.303 242.902 127.484L242.902 127.489L243.007 128.61C243.889 128.667 244.56 128.954 244.56 129.3C244.56 129.687 243.722 130 242.689 130C241.655 130 240.817 129.687 240.817 129.3C240.817 128.95 241.502 128.661 242.397 128.608L242.506 127.535L242.504 127.513C242.461 127.514 242.417 127.515 242.374 127.515C241.009 127.515 239.787 126.906 238.964 125.945L238.471 126.173L237.466 126.887C237.607 127.514 237.459 128.077 237.112 128.176C236.74 128.283 236.281 127.819 236.087 127.141C235.892 126.462 236.036 125.825 236.407 125.719C236.687 125.639 237.017 125.882 237.246 126.297L238.234 125.854L238.665 125.554C238.174 124.835 237.886 123.964 237.886 123.027C237.886 122.209 238.105 121.442 238.488 120.782L237.889 120.276C237.671 120.641 237.372 120.851 237.111 120.781C236.737 120.681 236.583 120.047 236.766 119.365C236.948 118.683 237.399 118.211 237.773 118.312C238.122 118.405 238.28 118.966 238.149 119.597L238.775 120.346C239.593 119.25 240.901 118.54 242.374 118.54C242.412 118.54 242.45 118.54 242.487 118.541L242.506 118.328L242.418 117.393C241.513 117.344 240.817 117.052 240.817 116.7C240.817 116.313 241.655 116 242.689 116C243.722 116 244.56 116.313 244.56 116.7Z" fill="#6C63FF"/>
<path fill-rule="evenodd" clip-rule="evenodd" d="M41.5236 198.972C41.5236 199.156 41.165 199.308 40.6953 199.337L40.6473 199.808L40.6601 199.962C41.3195 200.043 41.8951 200.395 42.2725 200.902L42.2734 200.902L42.9101 200.45C42.9024 200.427 42.8952 200.403 42.8887 200.379C42.7921 200.018 42.8738 199.683 43.0712 199.631C43.2685 199.578 43.5067 199.827 43.6033 200.187C43.6998 200.548 43.6181 200.883 43.4208 200.935C43.3082 200.966 43.1824 200.897 43.0771 200.766L42.3988 201.071L42.3905 201.077C42.6117 201.437 42.7393 201.862 42.7393 202.316C42.7393 202.613 42.6847 202.897 42.585 203.159L42.9823 203.341C43.2061 203.097 43.4857 202.993 43.6327 203.109C43.793 203.236 43.7353 203.576 43.5039 203.869C43.2726 204.161 42.9551 204.296 42.7948 204.169C42.666 204.067 42.678 203.827 42.8079 203.585L42.497 203.361C42.1497 204.067 41.4616 204.575 40.6474 204.67L40.6472 204.673L40.7028 205.266C41.1689 205.295 41.5236 205.447 41.5236 205.63C41.5236 205.834 41.0807 206 40.5345 206C39.9882 206 39.5454 205.834 39.5454 205.63C39.5454 205.445 39.9073 205.292 40.3803 205.265L40.4381 204.697L40.4371 204.686C40.4142 204.686 40.3912 204.687 40.3681 204.687C39.647 204.687 39.0011 204.365 38.5662 203.857L38.3057 203.978L37.7748 204.355C37.8494 204.686 37.7712 204.984 37.5876 205.036C37.3912 205.093 37.1487 204.848 37.0459 204.489C36.9431 204.13 37.0189 203.794 37.2153 203.738C37.3632 203.695 37.5374 203.824 37.6583 204.043L38.1803 203.809L38.4082 203.651C38.1486 203.27 37.9968 202.811 37.9968 202.316C37.9968 201.883 38.1125 201.478 38.3146 201.129L37.9985 200.862C37.8829 201.055 37.725 201.165 37.587 201.128C37.3897 201.076 37.308 200.741 37.4045 200.38C37.5011 200.02 37.7393 199.771 37.9367 199.824C38.1213 199.873 38.2047 200.17 38.1355 200.503L38.4665 200.899C38.8988 200.319 39.5896 199.944 40.3681 199.944C40.3881 199.944 40.4082 199.945 40.4281 199.945L40.4382 199.832L40.3917 199.338C39.9131 199.312 39.5454 199.158 39.5454 198.972C39.5454 198.768 39.9882 198.602 40.5345 198.602C41.0807 198.602 41.5236 198.768 41.5236 198.972Z" fill="#6C63FF"/>
<path fill-rule="evenodd" clip-rule="evenodd" d="M8.56046 72.0982C8.56046 72.446 7.88199 72.7346 6.99295 72.789L6.90215 73.6804L6.92645 73.972C8.17417 74.1253 9.26346 74.7906 9.97761 75.7515L9.97945 75.7506L11.1843 74.8953C11.1697 74.8514 11.1562 74.8065 11.1439 74.7606C10.9611 74.0787 11.1157 73.4448 11.4892 73.3447C11.8626 73.2447 12.3134 73.7163 12.4961 74.3982C12.6789 75.0801 12.5243 75.714 12.1508 75.8141C11.9378 75.8712 11.6995 75.7421 11.5002 75.4941L10.2168 76.0704L10.2009 76.0815C10.6197 76.7637 10.8612 77.5665 10.8612 78.4257C10.8612 78.9876 10.7579 79.5255 10.5692 80.0213L11.321 80.3659C11.7446 79.9042 12.2735 79.7079 12.5518 79.928C12.855 80.1678 12.7459 80.8111 12.3081 81.3648C11.8702 81.9186 11.2694 82.1731 10.9661 81.9333C10.7223 81.7405 10.7451 81.2868 10.991 80.8285L10.4027 80.4039C9.74544 81.7399 8.44327 82.7014 6.90238 82.8822L6.90193 82.8872L7.00733 84.0083C7.8893 84.0648 8.56046 84.3522 8.56046 84.6982C8.56046 85.0848 7.72246 85.3982 6.68874 85.3982C5.65501 85.3982 4.81701 85.0848 4.81701 84.6982C4.81701 84.3487 5.5018 84.059 6.39692 84.0066L6.50628 82.9329L6.50447 82.9111C6.46107 82.9124 6.41752 82.913 6.37382 82.913C5.00922 82.913 3.78689 82.3039 2.96388 81.3427L2.47101 81.5714L1.46632 82.2846C1.60747 82.912 1.4594 83.4747 1.11199 83.5744C0.740368 83.6809 0.281377 83.2172 0.0868045 82.5385C-0.107768 81.8599 0.0357601 81.2234 0.407383 81.1169C0.687385 81.0366 1.01699 81.2801 1.24571 81.6953L2.23365 81.2516L2.66487 80.9523C2.17368 80.2327 1.88648 79.3627 1.88648 78.4257C1.88648 77.6076 2.1054 76.8406 2.48787 76.1802L1.88962 75.6739C1.67094 76.0394 1.37201 76.2489 1.11093 76.179C0.737506 76.0789 0.582907 75.445 0.765623 74.7631C0.948338 74.0812 1.39918 73.6095 1.7726 73.7096C2.12206 73.8032 2.27988 74.3644 2.14895 74.9949L2.77534 75.7443C3.59349 74.6481 4.90077 73.9383 6.37382 73.9383C6.41179 73.9383 6.44965 73.9388 6.48739 73.9397L6.5065 73.7261L6.41858 72.7909C5.51287 72.742 4.81701 72.4505 4.81701 72.0982C4.81701 71.7116 5.65501 71.3982 6.68874 71.3982C7.72246 71.3982 8.56046 71.7116 8.56046 72.0982Z" fill="#6C63FF"/>
<path d="M84.9301 182.342C103.262 182.342 118.123 152.025 118.123 114.627C118.123 77.2298 103.262 46.9131 84.9301 46.9131C66.598 46.9131 51.7368 77.2298 51.7368 114.627C51.7368 152.025 66.598 182.342 84.9301 182.342Z" fill="#6C63FF"/>
<path d="M84.467 115.981C86.2235 86.5712 89.7625 66.706 89.7981 66.5088L89.0302 66.3865C88.9947 66.5839 85.4494 86.4809 83.69 115.928C82.0665 143.106 81.6748 184.215 89.03 225.714L89.7983 225.594C82.4555 184.165 82.8463 143.119 84.467 115.981Z" fill="#3F3D56"/>
<path d="M114.62 101.233L84.6309 117.284L84.9771 117.931L114.967 101.88L114.62 101.233Z" fill="#3F3D56"/>
<path d="M53.318 109.278L52.9719 109.925L82.9658 125.968L83.3119 125.321L53.318 109.278Z" fill="#3F3D56"/>
<path d="M315.07 175.26C338.78 175.26 358 136.027 358 87.6302C358 39.2334 338.78 0 315.07 0C291.361 0 272.14 39.2334 272.14 87.6302C272.14 136.027 291.361 175.26 315.07 175.26Z" fill="#6C63FF"/>
<path d="M314.643 88.3522C316.679 50.1059 320.782 24.272 320.823 24.0154L320.173 23.8992C320.132 24.1559 316.024 50.02 313.985 88.3024C312.103 123.635 311.649 177.077 320.173 231.025L320.824 230.911C312.311 177.029 312.764 123.647 314.643 88.3522Z" fill="#3F3D56"/>
<path d="M353.489 70.107L314.583 90.9309L314.911 91.5442L353.818 70.7202L353.489 70.107Z" fill="#3F3D56"/>
<path d="M273.839 80.5439L273.511 81.1572L312.423 101.971L312.751 101.357L273.839 80.5439Z" fill="#3F3D56"/>
<path d="M263.288 199.16C272.088 199.16 279.221 184.497 279.221 166.409C279.221 148.321 272.088 133.658 263.288 133.658C254.489 133.658 247.356 148.321 247.356 166.409C247.356 184.497 254.489 199.16 263.288 199.16Z" fill="#D1CEFF"/>
<path d="M262.875 167.846L262.969 168.025L277.451 160.197L277.124 159.58L262.905 167.266C263.692 152.639 265.301 142.82 265.333 142.627L264.65 142.51C264.615 142.721 262.703 154.381 262.024 171.254L247.683 163.501L247.356 164.118L261.837 171.947L262.01 171.621C261.467 185.547 261.772 202.959 264.65 220.403L265.334 220.289C262.195 201.269 262.126 182.286 262.875 167.846Z" fill="#3F3D56"/>
<path d="M344.513 238.106C258.9 211.132 181.268 212.569 131.219 218.525C76.9971 224.977 42.5906 237.969 42.2496 238.1L42 237.454C42.3421 237.323 76.8296 224.299 131.136 217.837C163.081 214.041 195.312 213.22 227.409 215.386C267.256 218.07 306.639 225.476 344.723 237.447L344.513 238.106Z" fill="#3F3D56"/>
<path d="M151.759 231.025C151.759 231.025 152.006 226.07 157.07 226.646Z" fill="#3F3D56"/>
<path d="M150.874 225.714C152.341 225.714 153.529 224.724 153.529 223.501C153.529 222.279 152.341 221.289 150.874 221.289C149.407 221.289 148.219 222.279 148.219 223.501C148.219 224.724 149.407 225.714 150.874 225.714Z" fill="#6C63FF"/>
<path d="M150.874 227.485H149.989V232.796H150.874V227.485Z" fill="#3F3D56"/>
<path d="M242.045 231.91C242.045 231.91 242.292 226.955 247.356 227.531Z" fill="#3F3D56"/>
<path d="M240.275 227.485C241.741 227.485 242.93 226.296 242.93 224.829C242.93 223.363 241.741 222.174 240.275 222.174C238.808 222.174 237.619 223.363 237.619 224.829C237.619 226.296 238.808 227.485 240.275 227.485Z" fill="#6C63FF"/>
<path d="M94.2241 223.059C94.2241 223.059 94.4711 218.104 99.535 218.68Z" fill="#3F3D56"/>
<path d="M92.4538 218.633C93.9204 218.633 95.1093 217.444 95.1093 215.978C95.1093 214.511 93.9204 213.322 92.4538 213.322C90.9872 213.322 89.7983 214.511 89.7983 215.978C89.7983 217.444 90.9872 218.633 92.4538 218.633Z" fill="#6C63FF"/>
<path d="M93.339 220.403H92.4539V224.829H93.339V220.403Z" fill="#3F3D56"/>
<path d="M132.286 216.863C132.286 216.863 132.491 211.908 136.711 212.484Z" fill="#3F3D56"/>
<path d="M130.515 211.552C131.982 211.552 133.171 210.561 133.171 209.339C133.171 208.117 131.982 207.126 130.515 207.126C129.049 207.126 127.86 208.117 127.86 209.339C127.86 210.561 129.049 211.552 130.515 211.552Z" fill="#6C63FF"/>
<path d="M226.997 225.714C226.997 225.714 227.244 220.759 232.308 221.335Z" fill="#3F3D56"/>
<path d="M225.227 221.288C226.694 221.288 227.882 220.1 227.882 218.633C227.882 217.166 226.694 215.978 225.227 215.978C223.76 215.978 222.572 217.166 222.572 218.633C222.572 220.1 223.76 221.288 225.227 221.288Z" fill="#6C63FF"/>
<path d="M226.112 223.059H225.227V227.485H226.112V223.059Z" fill="#3F3D56"/>
<path d="M333.824 215.978L348.263 237.183L334.82 250.499L333.078 247.046L336.065 240.142C336.065 240.142 335.567 233.731 333.824 232.005C332.082 230.279 324.364 219.923 324.364 219.923L333.824 215.978Z" fill="#FFB8B8"/>
<path d="M315.257 146.936C315.257 146.936 317.966 151.254 312.301 169.863C312.301 169.863 338.723 214.789 334.536 217.766C330.349 220.744 319.019 227.333 316.064 225.348C313.109 223.363 291.614 156.116 291.614 156.116L315.257 146.936Z" fill="#2F2E41"/>
<path d="M345.36 233.681L349.647 237.889C351.851 240.053 353.321 243.18 349.157 245.825C344.993 248.47 330.54 258.33 325.641 255.204C320.742 252.077 331.52 249.192 331.52 249.192C331.52 249.192 333.302 242.704 334.248 244.144C335.194 245.584 335.194 248.47 335.194 248.47L345.36 233.681Z" fill="#2F2E41"/>
<path d="M293.384 227.076C293.384 227.076 285.544 241.806 285.544 243.554C285.544 245.301 286.034 250.294 286.034 250.294L271.089 254.039L265.944 251.543L267.659 247.049C267.659 247.049 276.969 243.803 278.929 237.562C280.889 231.32 283.094 224.829 283.094 224.829L293.384 227.076Z" fill="#FFB8B8"/>
<path d="M302.678 82.3195C308.3 82.3195 312.857 77.7621 312.857 72.1402C312.857 66.5184 308.3 61.9609 302.678 61.9609C297.056 61.9609 292.499 66.5184 292.499 72.1402C292.499 77.7621 297.056 82.3195 302.678 82.3195Z" fill="#FFB8B8"/>
<path d="M299.58 81.3543L304.572 95.5966L315.513 90.7479C315.513 90.7479 308.044 79.3767 308.044 77.8936L299.58 81.3543Z" fill="#FFB8B8"/>
<path d="M298.283 131.888H311.558C311.558 131.888 321.077 146.134 315.566 161.117C314.722 163.412 313.885 166.626 313.048 170.426C311.125 179.164 309.211 191.002 307.249 201.879C304.493 217.158 301.644 230.543 298.546 230.786C292.284 231.278 280.106 231.196 280.106 228.739C280.106 226.283 288.263 155.222 288.263 155.222L290.017 152.275L290.348 139.436C290.4 137.41 291.26 135.485 292.744 134.074C294.227 132.662 296.216 131.878 298.283 131.888V131.888Z" fill="#2F2E41"/>
<path d="M285.001 243.417C285.001 243.417 287.795 248.405 287.066 251.986C286.337 255.567 285.122 255.056 279.777 255.567C274.431 256.079 256.207 256.079 256.207 252.498C256.207 248.917 270.423 244.266 270.483 245.696C270.543 247.126 271.029 249.94 269.571 250.452C268.114 250.963 269.45 250.58 269.45 250.58L285.001 243.417Z" fill="#2F2E41"/>
<path d="M299.58 162.595C299.58 162.595 298.526 180.48 291.501 175.156C284.475 169.831 294.239 160.213 294.239 160.213L299.58 162.595Z" fill="white"/>
<path d="M313.809 139.572C314.156 139.727 314.539 139.785 314.918 139.741C315.296 139.697 315.654 139.552 315.955 139.322C316.392 138.983 316.683 138.494 316.77 137.953C317.813 132.013 319.085 115.545 319.817 107.218C320.735 96.7692 316.147 88.6762 316.108 88.627L313.404 84.9572C313.123 84.5737 312.719 84.2954 312.257 84.1675C311.796 84.0397 311.304 84.0698 310.862 84.253C310.862 84.253 302.419 92.8979 302.388 93.2317C302.256 94.665 301.251 97.8413 296.014 103.01C290.283 108.666 290.251 113.602 290.378 114.98C290.386 115.071 290.391 115.161 290.391 115.252C290.38 115.87 290.465 116.486 290.643 117.079C293.043 124.548 291.164 133.489 288.145 142.822C288.031 143.244 288.052 143.69 288.206 144.1C288.36 144.509 288.639 144.861 289.005 145.107C289.887 145.698 288.829 144.82 289.144 145.2C291.224 147.716 294.218 144.21 297.642 140.384C298.835 139.051 300.187 137.54 301.781 135.968C303.972 133.805 308.158 138.74 310.104 138.74C311.385 138.755 312.648 139.039 313.809 139.572V139.572Z" fill="#FF6F61"/>
<path d="M314.964 92.1214C314.964 92.1214 320.247 96.6927 317.246 102.621C314.245 108.55 314.644 112.922 314.644 112.922C314.644 112.922 313.845 153.648 304.467 151.67L300.202 163.754L292.499 160.901L296.953 150.242C296.953 150.242 293.385 150.014 294.428 147.52C295.16 145.768 299.105 126.755 301.388 115.592C302.356 110.861 303.025 107.541 303.025 107.541C303.025 107.541 306.061 90.888 314.964 92.1214Z" fill="#FF6F61"/>
<path opacity="0.2" d="M316.398 112.906L312.857 132.773L314.767 111.53L316.398 112.906Z" fill="black"/>
<path d="M290.797 67.5612C290.797 67.5612 289.014 53.9779 303.568 58.4321C303.568 58.4321 313.963 56.5659 317.372 69.2884L320.824 82.6247L319.141 81.7288L318.357 83.4062L315.631 84.0817L314.465 81.8163L313.9 84.5674L291.573 86.7452C291.573 86.7452 301.573 80.9587 301.732 70.5879L299.827 72.5574L290.797 67.5612Z" fill="#2F2E41"/>
<path opacity="0.2" d="M307.546 202.812L311.972 170.835L308.372 205.356L307.546 202.812Z" fill="black"/>
<path d="M315.513 63.7312C318.446 63.7312 320.824 61.3534 320.824 58.4203C320.824 55.4872 318.446 53.1094 315.513 53.1094C312.579 53.1094 310.202 55.4872 310.202 58.4203C310.202 61.3534 312.579 63.7312 315.513 63.7312Z" fill="#2F2E41"/>
<path d="M310.017 57.2398C310.107 55.8916 310.726 54.6274 311.747 53.7047C312.768 52.7819 314.115 52.27 315.512 52.2733C315.399 52.2594 315.286 52.2424 315.171 52.2352C314.45 52.1901 313.727 52.2826 313.043 52.5076C312.359 52.7325 311.728 53.0855 311.185 53.5463C310.643 54.007 310.2 54.5666 309.881 55.193C309.562 55.8194 309.374 56.5004 309.328 57.197C309.281 57.8936 309.378 58.5923 309.611 59.253C309.844 59.9137 310.209 60.5235 310.686 61.0476C311.163 61.5718 311.743 61.9999 312.391 62.3076C313.039 62.6154 313.744 62.7966 314.465 62.841C314.581 62.8482 314.695 62.8454 314.809 62.8456C313.422 62.6758 312.154 62.0015 311.264 60.96C310.374 59.9185 309.927 58.5881 310.017 57.2398V57.2398Z" fill="#2F2E41"/>
<path opacity="0.2" d="M299.934 118.719L295.154 145.165L301.35 115.955L299.934 118.719Z" fill="black"/>
<path d="M299.58 79.4782L296.996 81.4343C294.335 80.0897 292.339 76.9786 291.614 74.0093L294.429 72.5828C294.651 75.6113 296.792 77.6248 299.58 79.4782Z" fill="white"/>
<path d="M299.845 79.664C299.802 79.664 299.759 79.6543 299.721 79.6358C299.682 79.6173 299.65 79.5906 299.625 79.5579C299.601 79.5253 299.586 79.4877 299.581 79.4485C299.577 79.4092 299.583 79.3696 299.599 79.333L301.723 74.5054C301.736 74.4759 301.755 74.449 301.78 74.4262C301.804 74.4034 301.833 74.3852 301.865 74.3727C301.897 74.3601 301.932 74.3535 301.966 74.353C302.001 74.3526 302.036 74.3585 302.068 74.3703C302.101 74.3821 302.13 74.3995 302.155 74.4217C302.18 74.4439 302.2 74.4704 302.214 74.4996C302.228 74.5288 302.235 74.5601 302.235 74.5919C302.236 74.6236 302.229 74.6551 302.216 74.6845L300.092 79.5122C300.072 79.557 300.038 79.5954 299.994 79.6224C299.95 79.6495 299.898 79.664 299.845 79.664V79.664Z" fill="white"/>
<path d="M301.35 75.238C302.328 75.238 303.12 74.2473 303.12 73.0251C303.12 71.803 302.328 70.8123 301.35 70.8123C300.372 70.8123 299.58 71.803 299.58 73.0251C299.58 74.2473 300.372 75.238 301.35 75.238Z" fill="#FFB8B8"/>
<path d="M180.969 79.9695L199.014 84.0897L206.639 69.742L191.209 63.7312L180.969 79.9695Z" fill="#2F2E41"/>
<path d="M190.706 158.765C190.706 158.765 184.636 172.042 184.636 175.904C184.636 175.904 187.039 186.406 186.28 189.302L183.625 194.734L178.061 192.561L176.543 178.077L176.796 154.902L190.706 158.765Z" fill="#FFB9B9"/>
<path d="M193.957 78.287C193.957 78.287 194.423 86.2206 193.49 88.6247C192.558 91.0288 196.988 95.5967 196.988 95.5967L203.983 86.2206C203.983 86.2206 199.32 81.4124 200.486 76.1233L193.957 78.287Z" fill="#FFB9B9"/>
<path d="M178.917 134.018C178.917 134.018 171.752 146.958 178.67 146C185.588 145.041 183.241 133.658 183.241 133.658" fill="#E6E6E6"/>
<path d="M182.903 133.295L185.395 110.408L185.264 96.4819L179.494 97.4504V110.287L178.314 133.658" fill="#FFB9B9"/>
<path d="M177.183 190.956L187.83 186.768L189.069 207.709C189.069 207.709 191.297 214.114 190.554 216.578C190.554 216.578 191.049 220.766 189.811 221.012C188.573 221.259 185.107 221.751 184.859 221.505C184.612 221.259 184.612 220.52 184.612 220.52C184.612 220.52 182.135 222.244 181.888 224.215C181.888 224.215 171.488 227.418 171.241 224.461C170.993 221.505 176.44 219.041 176.44 219.041L180.65 212.636L177.183 190.956Z" fill="#2F2E41"/>
<path d="M212.835 158.765C212.835 158.765 206.765 172.042 206.765 175.904C206.765 175.904 209.168 186.406 208.409 189.302L205.754 194.734L200.19 192.561L198.672 178.077L198.925 154.902L212.835 158.765Z" fill="#FFB9B9"/>
<path d="M199.312 190.956L209.959 186.768L211.197 207.709C211.197 207.709 213.426 214.114 212.683 216.578C212.683 216.578 213.178 220.766 211.94 221.012C210.702 221.259 207.236 221.751 206.988 221.505C206.74 221.259 206.74 220.52 206.74 220.52C206.74 220.52 204.264 222.244 204.017 224.215C204.017 224.215 193.617 227.418 193.37 224.461C193.122 221.505 198.569 219.041 198.569 219.041L202.779 212.636L199.312 190.956Z" fill="#2F2E41"/>
<path d="M203.983 72.582C203.982 74.5434 203.259 76.4356 201.951 77.8966C200.643 79.3575 198.842 80.2847 196.894 80.5005C194.946 80.7164 192.986 80.2059 191.391 79.0667C189.795 77.9274 188.675 76.2395 188.245 74.3258C188.114 73.7538 188.049 73.1688 188.05 72.582C188.052 70.4688 188.892 68.4427 190.385 66.949C191.879 65.4553 193.905 64.6162 196.017 64.6162C198.129 64.6162 200.154 65.4553 201.648 66.949C203.142 68.4427 203.982 70.4688 203.983 72.582V72.582Z" fill="#FFB9B9"/>
<path d="M197.125 88.161L203.272 84.9749L206.036 87.1727C206.036 87.1727 212.719 86.9256 215.194 89.8905C217.669 92.8553 219.031 100.391 219.031 100.391C219.031 100.391 210.863 98.6614 211.853 105.579L210.368 101.626L209.006 104.962L192.422 110.644L184.997 98.0438C184.997 98.0438 180.046 96.5613 178.314 100.02C178.314 100.02 178.685 87.5433 183.512 87.1727C186.758 86.9235 189.205 86.9256 189.205 86.9256L191.927 86.4315L193.671 85.8138L197.125 88.161Z" fill="#FF6F61"/>
<path d="M207.464 114.866C207.464 114.866 220.259 153.304 216.604 158.673C216.604 158.673 202.955 165.506 175.658 156.232L186.748 113.157C193.559 111.763 200.465 112.332 207.464 114.866Z" fill="#2F2E41"/>
<path d="M207.496 115.07L211.064 102.554C206.783 97.8024 210.478 87.2664 210.478 87.2664L205.313 86.1367C205.313 86.1367 200.129 100.403 194.815 98.6778C189.501 96.9523 192.4 85.8599 192.4 85.8599L187.569 86.3529L185.395 94.9803L186.965 113.344C193.513 112.771 200.38 113.438 207.496 115.07Z" fill="#FF6F61"/>
<path d="M213.97 133.295L215.841 110.287L216.375 96.4819L210.497 97.4504V110.287L209.294 133.658" fill="#FFB9B9"/>
<path d="M209.898 134.018C209.898 134.018 202.733 146.958 209.651 146C216.569 145.041 214.221 133.658 214.221 133.658" fill="white"/>
<path d="M219.031 100.597C219.031 100.597 218.18 87.5854 211.064 87.6305V102.678C211.064 102.678 216.398 99.3304 219.031 100.597Z" fill="#FF6F61"/>
<path d="M198.874 74.3529C198.832 74.3529 198.791 74.3403 198.757 74.3167C198.723 74.2931 198.698 74.2598 198.684 74.2213C198.67 74.1828 198.669 74.1411 198.68 74.1019C198.692 74.0628 198.715 74.028 198.748 74.0026L202.77 70.8562C202.791 70.8398 202.815 70.8276 202.84 70.8203C202.865 70.813 202.892 70.8106 202.918 70.8134C202.945 70.8162 202.97 70.824 202.994 70.8365C203.017 70.849 203.037 70.8658 203.054 70.8861C203.071 70.9064 203.083 70.9296 203.09 70.9546C203.098 70.9795 203.1 71.0056 203.097 71.0314C203.094 71.0572 203.086 71.0821 203.073 71.1048C203.06 71.1274 203.042 71.1474 203.022 71.1634L198.999 74.3099C198.964 74.3377 198.919 74.3529 198.874 74.3529Z" fill="white"/>
<path d="M198.672 79.4943C198.588 79.6064 198.505 79.7185 198.417 79.8223C197.407 80.3219 196.307 80.5696 195.199 80.5477C194.09 80.5257 192.999 80.2345 192.006 79.6952C191.014 79.156 190.143 78.3823 189.459 77.4303C188.775 76.4782 188.293 75.3719 188.05 74.1916L191.658 73.4678L198.672 74.1916C197.066 76.326 197.26 77.0651 198.672 79.4943Z" fill="white"/>
<path d="M191.914 61.3147C191.914 61.3147 187.907 62.0973 186.981 67.2868C186.836 68.162 186.809 69.0539 186.902 69.9366C186.995 70.9355 186.86 73.0454 184.772 75.5297C183.409 77.141 182.139 78.8346 180.969 80.6016V80.6016L185.156 81.7591L187.026 74.5555C187.933 71.063 189.33 67.7283 191.172 64.6585L191.211 64.5944C191.211 64.5944 192.601 68.4529 196.328 68.9819L195.179 67.4106C195.179 67.4106 199.536 70.0262 202.004 70.8252C202.286 70.9164 202.538 71.0858 202.734 71.3149C202.93 71.5441 203.062 71.8245 203.116 72.1258C203.17 72.4271 203.143 72.7379 203.04 73.0248C202.936 73.3117 202.759 73.5638 202.527 73.754C202.51 73.7683 202.492 73.7826 202.474 73.7969C200.659 75.229 196.955 78.6461 198.418 81.9516C199.881 85.2572 198.175 85.8599 198.175 85.8599L201.321 84.6167L202.762 83.9763L202.616 85.0821L209.646 85.2351C209.646 85.2351 211.546 85.2231 208.172 79.9565C208.172 79.9565 207.357 77.9817 208.026 76.4731C208.562 75.3305 208.829 74.0719 208.805 72.801C208.593 67.4913 206.439 56.6891 191.914 61.3147Z" fill="#2F2E41"/>
<path d="M92.5843 208.651C92.5843 208.651 92.5843 241.647 84.8646 250.302C84.8646 250.302 83.2104 254.629 82.659 256.252C82.3506 257.176 81.9823 258.079 81.5561 258.957V261.12C81.5561 261.12 66.6681 259.498 65.0139 255.711L67.7709 252.466C67.7709 252.466 68.3224 251.925 67.7709 250.302C67.2195 248.679 68.8738 248.679 68.8738 248.679L72.7336 240.024L72.1822 204.323L74.9393 155.099L98.6498 154.017L92.5843 208.651Z" fill="#2F2E41"/>
<path d="M80.1432 258.067C80.1432 258.067 83.9427 269.917 80.1432 270.481C76.3438 271.045 43.2341 271.61 43.7769 267.095C44.3196 262.581 55.1753 263.145 55.1753 263.145L66.5737 255.81L80.1432 258.067Z" fill="#2F2E41"/>
<path d="M114.226 154.902C114.226 154.902 115.322 161.951 110.936 169.543C106.55 177.134 109.292 202.62 109.292 202.62L148.219 236.24C148.219 236.24 140.543 249.254 137.801 248.712C135.06 248.17 91.747 213.465 91.747 213.465L74.7507 157.071L114.226 154.902Z" fill="#2F2E41"/>
<path d="M147.489 234.566C147.489 234.566 159.417 237.519 157.805 241.09C156.194 244.662 138.532 273.501 135.077 270.661C131.623 267.82 138.037 258.759 138.037 258.759L138.182 245.077L147.489 234.566Z" fill="#2F2E41"/>
<path d="M105.731 53.5518C105.735 56.4915 104.725 59.3427 102.87 61.6234C101.403 63.4411 99.4674 64.823 97.2717 65.6193C95.0761 66.4157 92.7044 66.5962 90.4135 66.1414C89.2664 65.9197 88.1562 65.5377 87.1156 65.0066C85.4628 64.1736 84.01 62.9927 82.8567 61.5452C81.7035 60.0976 80.8771 58.4177 80.4345 56.6206C80.1851 55.6168 80.0598 54.5861 80.0615 53.5518C80.0615 50.1478 81.4138 46.8832 83.8207 44.4762C86.2277 42.0693 89.4923 40.717 92.8963 40.717C96.3002 40.717 99.5648 42.0693 101.972 44.4762C104.379 46.8832 105.731 50.1478 105.731 53.5518V53.5518Z" fill="#A0616A"/>
<path d="M103.076 57.5352L102.502 73.7138L91.5956 77.8937C91.5956 77.8937 90.526 61.3278 89.0162 60.4094C87.5064 59.491 103.076 57.5352 103.076 57.5352Z" fill="#A0616A"/>
<path d="M89.2778 80.4455C89.2778 80.4455 103.886 65.8609 107.673 66.4011C111.46 66.9413 111.46 68.5618 111.46 69.6421C111.46 70.7225 110.378 71.2626 111.46 71.8028C112.542 72.343 113.624 71.8028 113.624 73.4233C113.624 75.0438 123.363 91.2489 120.116 109.075C116.87 126.9 113.083 135.543 114.706 145.266C116.329 154.989 115.247 157.15 115.247 157.15C115.247 157.15 74.6701 160.391 74.1291 156.61C73.5881 152.828 75.7522 154.989 73.047 152.288C70.3419 149.587 71.4239 149.587 71.4239 147.967C71.4239 146.346 83.3265 80.4455 89.2778 80.4455Z" fill="#FF6F61"/>
<path d="M96.8796 154.308C96.8796 154.308 90.2887 169.506 85.3455 165.838C80.4023 162.169 87.5425 149.591 87.5425 149.591L96.8796 154.308Z" fill="white"/>
<path d="M112.494 81.5329C112.494 81.5329 125.396 82.987 120.592 106.315C115.788 129.644 97.1176 156.672 97.1176 156.672L84.4873 150.726L100.962 118.832L97.1176 98.8312C97.1176 98.8312 94.921 79.9112 112.494 81.5329Z" fill="#FF6F61"/>
<path opacity="0.2" d="M101.305 118.611L83.6023 148.828L85.2117 150.476L101.305 118.611Z" fill="black"/>
<path opacity="0.2" d="M111.042 132.773L95.9944 156.672H101.111L111.042 132.773Z" fill="black"/>
<path opacity="0.2" d="M78.2697 175.882L77.5461 176.158L91.8682 213.71L92.5918 213.434L78.2697 175.882Z" fill="black"/>
<path d="M88.9132 83.2046C89.4021 83.2046 89.7984 82.8083 89.7984 82.3195C89.7984 81.8306 89.4021 81.4343 88.9132 81.4343C88.4244 81.4343 88.0281 81.8306 88.0281 82.3195C88.0281 82.8083 88.4244 83.2046 88.9132 83.2046Z" fill="#D0CDE1"/>
<path d="M82.251 104.448C82.3406 104.448 82.4278 104.422 82.4999 104.372C82.572 104.323 82.6251 104.254 82.6515 104.174L89.7795 82.8228C89.7958 82.7741 89.8017 82.7229 89.7967 82.6721C89.7916 82.6212 89.7758 82.5718 89.7502 82.5267C89.7245 82.4815 89.6895 82.4415 89.6471 82.4089C89.6047 82.3763 89.5558 82.3517 89.5031 82.3367C89.4504 82.3216 89.3951 82.3163 89.3402 82.321C89.2854 82.3258 89.232 82.3405 89.1833 82.3643C89.1346 82.3882 89.0914 82.4207 89.0563 82.46C89.0212 82.4993 88.9947 82.5447 88.9785 82.5935L81.8506 103.945C81.8313 104.004 81.827 104.065 81.838 104.125C81.849 104.185 81.875 104.241 81.914 104.29C81.9529 104.339 82.0037 104.379 82.0622 104.406C82.1207 104.434 82.1854 104.448 82.251 104.448V104.448Z" fill="#D0CDE1"/>
<path d="M90.6834 63.3535L87.4699 66.3866C84.1604 64.7342 80.9637 60.2817 80.0615 56.6327L84.2778 54.8796C84.553 58.6015 87.2158 61.0758 90.6834 63.3535Z" fill="white"/>
<path d="M91.3036 56.6499C91.2909 56.65 91.2782 56.649 91.2657 56.6471L83.8305 55.4669C83.796 55.4614 83.7628 55.4485 83.7328 55.4288C83.7027 55.4091 83.6765 55.383 83.6555 55.352C83.6346 55.321 83.6193 55.2857 83.6107 55.2482C83.602 55.2107 83.6 55.1716 83.6049 55.1332C83.6098 55.0949 83.6215 55.058 83.6392 55.0246C83.657 54.9912 83.6805 54.9621 83.7084 54.9388C83.7362 54.9155 83.768 54.8986 83.8018 54.8889C83.8355 54.8793 83.8707 54.8771 83.9052 54.8826L91.3404 56.0627C91.4069 56.0732 91.4673 56.1113 91.5096 56.1693C91.5518 56.2273 91.5727 56.301 91.568 56.3754C91.5634 56.4498 91.5335 56.5195 91.4844 56.5705C91.4353 56.6214 91.3707 56.6498 91.3036 56.6499V56.6499Z" fill="white"/>
<path d="M90.0338 62.8459C89.9927 62.846 89.9523 62.8351 89.9166 62.8143C89.8809 62.7936 89.8512 62.7637 89.8305 62.7277C89.8097 62.6916 89.7987 62.6507 89.7983 62.609C89.798 62.5672 89.8085 62.5261 89.8287 62.4898L92.013 58.5425C92.0281 58.5151 92.0484 58.4909 92.0727 58.4715C92.097 58.452 92.1249 58.4376 92.1547 58.4291C92.1845 58.4206 92.2157 58.4181 92.2464 58.4219C92.2772 58.4256 92.3069 58.4355 92.3339 58.4509C92.3609 58.4663 92.3846 58.487 92.4037 58.5117C92.4228 58.5364 92.4369 58.5648 92.4452 58.5951C92.4535 58.6253 92.4558 58.657 92.452 58.6882C92.4483 58.7194 92.4385 58.7495 92.4232 58.7769L90.2389 62.7241C90.2185 62.7611 90.1887 62.7919 90.1527 62.8133C90.1166 62.8347 90.0756 62.846 90.0338 62.8459V62.8459Z" fill="white"/>
<path d="M98.7668 61.2989C97.7647 60.7626 96.6006 60.652 95.516 60.3187C91.6355 59.126 89.0359 54.6856 89.8659 50.6673C90.0192 50.1519 90.0881 49.6146 90.0697 49.0766C89.9246 47.8866 88.7216 47.1187 87.568 46.846C86.4145 46.5733 85.1871 46.6129 84.0845 46.1744C82.3821 45.4974 81.2513 43.7265 81.0062 41.8918C80.761 40.057 81.2989 38.1857 82.1736 36.5598L82.5903 37.7735C83.2258 37.229 83.6975 36.5148 83.9518 35.7123C84.4253 35.7928 84.8705 35.9951 85.2447 36.2997C85.6189 36.6043 85.9096 37.0011 86.0889 37.452C86.7578 37.8512 86.8541 36.2117 87.5929 35.9698C87.9023 35.8685 88.2204 36.0609 88.515 36.2C90.0037 36.9029 91.7333 36.302 93.3302 35.9124C96.0954 35.2409 98.9779 35.2375 101.745 35.9023C103.583 36.3461 105.402 37.119 106.718 38.4924C107.798 39.6203 108.471 41.0789 109.044 42.5388C110.455 46.1327 111.387 50.0214 110.921 53.8598C110.533 57.0008 109.235 59.9552 107.19 62.3502C106.125 63.5925 102.65 67.9265 100.744 67.1876C98.35 66.2592 101.588 62.8088 98.7668 61.2989Z" fill="#2F2E41"/>
</svg>
