<svg viewBox="0 0 483 243" fill="none" xmlns="http://www.w3.org/2000/svg">
<path d="M96.8382 242.479H95.8295C95.8295 229.911 90.8345 217.857 81.9433 208.97C73.0522 200.082 60.9931 195.089 48.4191 195.089C35.8451 195.089 23.7861 200.082 14.8949 208.97C6.00374 217.857 1.00873 229.911 1.00873 242.479H0C1.91354e-07 229.643 5.10128 217.333 14.1816 208.257C23.262 199.18 35.5776 194.081 48.4191 194.081C61.2607 194.081 73.5763 199.18 82.6566 208.257C91.737 217.333 96.8382 229.643 96.8382 242.479Z" fill="#3F3D56"/>
<path d="M425 185H423.328C423.328 105.421 358.807 40.6782 279.5 40.6782C200.193 40.6782 135.672 105.421 135.672 185H134C134 104.495 199.271 39 279.5 39C359.729 39 425 104.495 425 185Z" fill="#3F3D56"/>
<path d="M77.6177 158.984L111.844 118.24H179.136L220.259 158.278L219.429 158.812H219.725V242.09H77.6646V158.812L77.6177 158.984Z" fill="#3F3D56"/>
<path d="M98.2096 141.271H105.968V114.425H98.2096V141.271Z" fill="#3F3D56"/>
<path d="M111.31 117.706L153.501 167.15V242.09H77.6641V157.744L111.31 117.706Z" fill="#6C63FF"/>
<path d="M143.751 176.962H128.263V192.791H143.751V176.962Z" fill="#3F3D56"/>
<path d="M143.751 198.501H128.263V214.33H143.751V198.501Z" fill="#3F3D56"/>
<path d="M143.751 176.962H128.263V192.791H143.751V176.962Z" fill="white"/>
<path d="M143.751 198.501H128.263V214.33H143.751V198.501Z" fill="white"/>
<path d="M122.332 176.962H106.844V192.791H122.332V176.962Z" fill="#3F3D56"/>
<path d="M122.332 198.501H106.844V214.33H122.332V198.501Z" fill="#3F3D56"/>
<path d="M122.332 176.962H106.844V192.791H122.332V176.962Z" fill="white"/>
<path d="M122.332 198.501H106.844V214.33H122.332V198.501Z" fill="white"/>
<path d="M100.912 176.962H85.4243V192.791H100.912V176.962Z" fill="#3F3D56"/>
<path d="M100.912 198.501H85.4243V214.33H100.912V198.501Z" fill="#3F3D56"/>
<path d="M100.912 176.962H85.4243V192.791H100.912V176.962Z" fill="white"/>
<path d="M100.912 198.501H85.4243V214.33H100.912V198.501Z" fill="white"/>
<path d="M251.174 38.2988H191.155V242.479H251.174V38.2988Z" fill="#6C63FF"/>
<path d="M275.384 38.2988H251.174V242.479H275.384V38.2988Z" fill="#3F3D56"/>
<path d="M211.329 76.6142H202.25V85.6889H211.329V76.6142Z" fill="white"/>
<path d="M225.956 76.6142H216.877V85.6889H225.956V76.6142Z" fill="white"/>
<path d="M240.582 76.6142H231.504V85.6889H240.582V76.6142Z" fill="white"/>
<path d="M211.582 97.2843H202.503V106.359H211.582V97.2843Z" fill="white"/>
<path d="M226.208 97.2843H217.129V106.359H226.208V97.2843Z" fill="white"/>
<path d="M240.835 97.2843H231.756V106.359H240.835V97.2843Z" fill="white"/>
<path d="M211.833 117.954H202.755V127.029H211.833V117.954Z" fill="white"/>
<path d="M226.46 117.954H217.382V127.029H226.46V117.954Z" fill="white"/>
<path d="M241.087 117.954H232.008V127.029H241.087V117.954Z" fill="white"/>
<path d="M212.086 138.625H203.007V147.699H212.086V138.625Z" fill="white"/>
<path d="M226.712 138.625H217.634V147.699H226.712V138.625Z" fill="white"/>
<path d="M241.339 138.625H232.26V147.699H241.339V138.625Z" fill="white"/>
<path d="M212.338 159.295H203.259V168.369H212.338V159.295Z" fill="white"/>
<path d="M226.965 159.295H217.886V168.369H226.965V159.295Z" fill="white"/>
<path d="M241.591 159.295H232.513V168.369H241.591V159.295Z" fill="white"/>
<path d="M212.59 179.965H203.512V189.039H212.59V179.965Z" fill="white"/>
<path d="M227.217 179.965H218.138V189.039H227.217V179.965Z" fill="white"/>
<path d="M241.843 179.965H232.765V189.039H241.843V179.965Z" fill="white"/>
<path d="M212.842 200.635H203.764V209.71H212.842V200.635Z" fill="white"/>
<path d="M227.469 200.635H218.391V209.71H227.469V200.635Z" fill="white"/>
<path d="M227.469 224.834H218.391V241.975H227.469V224.834Z" fill="white"/>
<path d="M242.096 200.635H233.017V209.71H242.096V200.635Z" fill="white"/>
<path d="M327.334 111.905H320.272V122.363H327.334V111.905Z" fill="#6C63FF"/>
<path d="M326.829 121.466H266.81V242.479H326.829V121.466Z" fill="#6C63FF"/>
<path d="M351.039 121.466H326.829V242.479H351.039V121.466Z" fill="#3F3D56"/>
<path d="M287.741 138.625H278.662V147.699H287.741V138.625Z" fill="white"/>
<path d="M302.367 138.625H293.289V147.699H302.367V138.625Z" fill="white"/>
<path d="M316.994 138.625H307.916V147.699H316.994V138.625Z" fill="white"/>
<path d="M287.993 159.295H278.915V168.369H287.993V159.295Z" fill="white"/>
<path d="M302.62 159.295H293.541V168.369H302.62V159.295Z" fill="white"/>
<path d="M317.246 159.295H308.167V168.369H317.246V159.295Z" fill="white"/>
<path d="M288.245 179.965H279.167V189.039H288.245V179.965Z" fill="white"/>
<path d="M302.872 179.965H293.793V189.039H302.872V179.965Z" fill="white"/>
<path d="M317.499 179.965H308.42V189.039H317.499V179.965Z" fill="white"/>
<path d="M288.497 200.635H279.419V209.71H288.497V200.635Z" fill="white"/>
<path d="M303.124 200.635H294.045V209.71H303.124V200.635Z" fill="white"/>
<path d="M303.124 224.834H294.045V241.975H303.124V224.834Z" fill="white"/>
<path d="M317.75 200.635H308.672V209.71H317.75V200.635Z" fill="white"/>
<path d="M330.864 111.905H326.829V122.064H330.864V111.905Z" fill="#3F3D56"/>
<path d="M13.446 218.321C20.6997 218.321 26.58 212.443 26.58 205.193C26.58 197.942 20.6997 192.064 13.446 192.064C6.19229 192.064 0.312012 197.942 0.312012 205.193C0.312012 212.443 6.19229 218.321 13.446 218.321Z" fill="#6C63FF"/>
<path opacity="0.2" d="M23.2161 196.424C24.4412 199.289 24.6074 202.495 23.685 205.471C22.7626 208.447 20.8116 210.997 18.1808 212.668C15.55 214.338 12.4108 215.019 9.32406 214.588C6.23733 214.158 3.40424 212.645 1.33105 210.319C2.07944 212.069 3.19954 213.635 4.61373 214.91C6.02793 216.184 7.70242 217.136 9.52119 217.699C11.34 218.263 13.2595 218.424 15.1469 218.172C17.0342 217.921 18.8442 217.262 20.4515 216.241C22.0588 215.221 23.4249 213.863 24.4552 212.263C25.4855 210.662 26.1553 208.857 26.4183 206.972C26.6813 205.087 26.5311 203.167 25.9782 201.346C25.4253 199.524 24.4828 197.845 23.2161 196.424H23.2161Z" fill="black"/>
<path d="M13.4823 205.193H13.5186L14.1677 242.414H12.7969L13.4823 205.193Z" fill="#3F3D56"/>
<path d="M15.8739 225.467L15.5713 224.892L13.4002 226.035L13.7028 226.609L15.8739 225.467Z" fill="#3F3D56"/>
<path d="M53.4626 231.892H22.1919V232.901H27.0686V242.479H28.0773V232.901H47.0728V242.479H48.0815V232.901H53.4626V231.892Z" fill="#3F3D56"/>
<path d="M85.2379 235.925C84.0036 235.925 82.7911 236.25 81.7227 236.868C80.6376 235.887 79.2909 235.242 77.8463 235.012C76.4016 234.781 74.921 234.974 73.5842 235.569C72.2475 236.163 71.112 237.132 70.3157 238.359C69.5193 239.586 69.0964 241.017 69.0982 242.479H92.2735C92.1472 240.7 91.3512 239.035 90.0457 237.819C88.7402 236.603 87.0223 235.926 85.2379 235.925Z" fill="#3F3D56"/>
<path d="M204.773 235.925C203.538 235.925 202.326 236.25 201.257 236.868C200.172 235.887 198.826 235.242 197.381 235.012C195.936 234.781 194.456 234.974 193.119 235.569C191.782 236.163 190.647 237.132 189.85 238.359C189.054 239.586 188.631 241.017 188.633 242.479H211.808C211.682 240.7 210.886 239.035 209.58 237.819C208.275 236.603 206.557 235.926 204.773 235.925Z" fill="#3F3D56"/>
<path d="M282.949 235.925C281.715 235.925 280.503 236.25 279.434 236.868C278.349 235.887 277.002 235.242 275.558 235.012C274.113 234.781 272.632 234.974 271.296 235.569C269.959 236.163 268.823 237.132 268.027 238.359C267.231 239.586 266.808 241.017 266.81 242.479H289.985C289.859 240.7 289.063 239.035 287.757 237.819C286.452 236.603 284.734 235.926 282.949 235.925Z" fill="#3F3D56"/>
<path d="M65.063 207.189H56.9932V215.255H60.734V242.435H61.7428V215.255H65.063V207.189Z" fill="#3F3D56"/>
<path d="M53.5246 228.876H22.2539V229.884H53.5246V228.876Z" fill="#3F3D56"/>
<path d="M53.5246 226.355H22.2539V227.363H53.5246V226.355Z" fill="#3F3D56"/>
<path d="M53.5246 223.834H22.2539V224.842H53.5246V223.834Z" fill="#3F3D56"/>
<circle cx="220" cy="56.0001" r="14" fill="#FF5252"/>
<path fill-rule="evenodd" clip-rule="evenodd" d="M222.925 54.2686V50.209L220.895 48.6866L220.497 54.2686H214.298V57.3134H220.279L219.88 62.8956H222.925V57.3134H228.507V54.2686H222.925Z" fill="#3F3D56"/>
<path fill-rule="evenodd" clip-rule="evenodd" d="M220.896 54.2687V48.6867H217.851V54.2687H212.269V57.3135H217.851V62.8957H220.896V57.3135H226.478V54.2687H220.896Z" fill="white"/>
<path d="M469.146 199.658L411.155 174.863C409.3 174.07 407.571 176.211 408.736 177.858L454.227 242.135H482L469.146 199.658Z" fill="#3F3D56" stroke="#3F3D56"/>
<path d="M399.519 174.647C403.73 172.571 408.67 172.587 412.869 174.689L460.704 198.646C461.648 199.119 461.312 200.541 460.257 200.541H351.29C350.231 200.541 349.898 199.112 350.847 198.644L399.519 174.647Z" fill="#5B51F7"/>
<path d="M350.036 199.713H461.732L463.534 242.5H348.685L350.036 199.713Z" fill="#6C63FF"/>
<rect x="391.247" y="199.488" width="31.5273" height="42.787" fill="white"/>
<path d="M405.209 199.488H391.247V242.275H398.904C398.904 242.275 398.003 235.895 396.877 232.571C395.751 229.247 394.85 225.954 395.976 224.19C399.447 218.752 405.059 204.727 405.209 199.488Z" fill="#3F3D56" stroke="#3F3D56"/>
<path d="M408.811 199.488H422.773V242.275H415.117C415.117 242.275 416.018 235.895 417.144 232.571C418.27 229.247 419.17 225.954 418.044 224.19C414.574 218.752 408.961 204.727 408.811 199.488Z" fill="#3F3D56" stroke="#3F3D56"/>
<circle cx="370.621" cy="218.324" r="10.4859" fill="#FF5252"/>
<path fill-rule="evenodd" clip-rule="evenodd" d="M372.812 217.027V213.986L371.291 212.846L370.993 217.027H366.351V219.307H370.83L370.531 223.488H372.812V219.307H376.994V217.027H372.812Z" fill="#3F3D56"/>
<path fill-rule="evenodd" clip-rule="evenodd" d="M371.291 217.027V212.846H369.01V217.027H364.83V219.308H369.01V223.488H371.291V219.308H375.473V217.027H371.291Z" fill="white"/>
<circle cx="444.324" cy="218.324" r="10.4859" fill="#FF5252"/>
<path fill-rule="evenodd" clip-rule="evenodd" d="M446.513 217.027V213.986L444.993 212.846L444.694 217.027H440.053V219.307H444.532L444.233 223.488H446.513V219.307H450.695V217.027H446.513Z" fill="#3F3D56"/>
<path fill-rule="evenodd" clip-rule="evenodd" d="M444.994 217.027V212.846H442.713V217.027H438.533V219.307H442.713V223.488H444.994V219.307H449.176V217.027H444.994Z" fill="white"/>
<path d="M365.14 236.008C363.905 236.008 362.693 236.333 361.625 236.951C360.539 235.97 359.193 235.325 357.748 235.095C356.303 234.864 354.823 235.057 353.486 235.652C352.149 236.246 351.014 237.215 350.218 238.442C349.421 239.669 348.998 241.1 349 242.562H372.175C372.049 240.783 371.253 239.118 369.948 237.902C368.642 236.686 366.924 236.009 365.14 236.008Z" fill="#3F3D56"/>
<path d="M220 1.74194C217.613 1.74194 215.324 2.70086 213.636 4.40773C211.948 6.11461 211 8.42963 211 10.8435C211 15.8698 220.43 32.5161 220.43 32.5161C220.43 32.5161 229 15.8766 229 10.8435C229 8.42963 228.052 6.11461 226.364 4.40773C224.676 2.70086 222.387 1.74194 220 1.74194ZM220 16.913C219.067 16.913 218.156 16.6334 217.381 16.1095C216.605 15.5855 216.001 14.8409 215.644 13.9696C215.287 13.0983 215.194 12.1396 215.376 11.2147C215.558 10.2898 216.007 9.44016 216.666 8.77333C217.325 8.10649 218.166 7.65237 219.08 7.46839C219.995 7.28441 220.943 7.37883 221.804 7.73972C222.666 8.10061 223.402 8.71176 223.92 9.49587C224.438 10.28 224.715 11.2019 224.715 12.1449C224.716 12.7715 224.594 13.392 224.358 13.9711C224.121 14.5501 223.774 15.0763 223.336 15.5195C222.898 15.9628 222.378 16.3143 221.805 16.5541C221.233 16.794 220.62 16.9173 220 16.9171V16.913Z" fill="#CB4343"/>
<path opacity="0.1" d="M220 1.74194C217.613 1.74194 215.324 2.70086 213.636 4.40773C211.948 6.11461 211 8.42963 211 10.8435C211 15.8698 220.43 32.5161 220.43 32.5161C220.43 32.5161 229 15.8766 229 10.8435C229 8.42963 228.052 6.11461 226.364 4.40773C224.676 2.70086 222.387 1.74194 220 1.74194ZM220 16.913C219.067 16.913 218.156 16.6334 217.381 16.1095C216.605 15.5855 216.001 14.8409 215.644 13.9696C215.287 13.0983 215.194 12.1396 215.376 11.2147C215.558 10.2898 216.007 9.44016 216.666 8.77333C217.325 8.10649 218.166 7.65237 219.08 7.46839C219.995 7.28441 220.943 7.37883 221.804 7.73972C222.666 8.10061 223.402 8.71176 223.92 9.49587C224.438 10.28 224.715 11.2019 224.715 12.1449C224.716 12.7715 224.594 13.392 224.358 13.9711C224.121 14.5501 223.774 15.0763 223.336 15.5195C222.898 15.9628 222.378 16.3143 221.805 16.5541C221.233 16.794 220.62 16.9173 220 16.9171V16.913Z" fill="#FF5252"/>
<path d="M220 0C217.613 0 215.324 0.95438 213.636 2.65319C211.948 4.35199 211 6.65607 211 9.05855C211 14.061 220.43 32.5161 220.43 32.5161C220.43 32.5161 229 14.0637 229 9.0599C229 7.8702 228.768 6.69212 228.315 5.59293C227.863 4.49374 227.2 3.49497 226.364 2.65367C225.529 1.81236 224.536 1.14499 223.444 0.68967C222.352 0.234351 221.182 -1.32513e-08 220 0ZM220 15.0994C219.067 15.0994 218.156 14.8211 217.381 14.2996C216.605 13.7782 216.001 13.037 215.644 12.1698C215.287 11.3027 215.194 10.3485 215.376 9.42796C215.558 8.50741 216.007 7.66182 216.666 6.99814C217.325 6.33446 218.166 5.88248 219.08 5.69937C219.995 5.51626 220.943 5.61024 221.804 5.96942C222.666 6.32861 223.402 6.93686 223.92 7.71727C224.438 8.49768 224.715 9.41519 224.715 10.3538C224.715 10.977 224.593 11.5941 224.356 12.1698C224.119 12.7456 223.772 13.2688 223.334 13.7094C222.896 14.1501 222.376 14.4997 221.804 14.7381C221.232 14.9766 220.619 15.0994 220 15.0994Z" fill="#FF5252"/>
</svg>
