<svg viewBox="0 0 271 198" fill="none" xmlns="http://www.w3.org/2000/svg">
<g clip-path="url(#clip0)">
<path d="M135.609 60.0942C140.969 60.0942 145.315 55.7521 145.315 50.3959C145.315 45.0396 140.969 40.6976 135.609 40.6976C130.248 40.6976 125.902 45.0396 125.902 50.3959C125.902 55.7521 130.248 60.0942 135.609 60.0942Z" fill="#3F3D56"/>
<path d="M129.977 125.839C130.979 132.863 129.758 140.025 127.854 146.858C127.499 148.13 127.116 149.414 126.451 150.556C125.785 151.698 124.859 152.68 124.078 153.754C122.448 155.995 121.493 158.637 120.599 161.252C118.137 168.489 116.068 175.853 114.404 183.313C114.303 183.619 114.303 183.948 114.404 184.254C114.64 184.797 115.357 184.867 115.946 184.865L123.564 184.824C123.836 184.303 123.334 183.739 123.021 183.24C121.935 181.552 122.978 179.36 123.936 177.594C126.266 173.305 128.069 168.751 129.307 164.03C129.828 162.042 130.252 160.01 131.099 158.135C132.122 155.862 133.727 153.906 135.03 151.779C136.545 149.308 137.65 146.625 138.747 143.931C140.279 140.193 141.823 136.408 142.426 132.415C142.994 128.666 142.714 124.846 142.345 121.073C142.362 120.961 142.352 120.846 142.316 120.738C142.28 120.63 142.219 120.533 142.138 120.453C142.057 120.374 141.958 120.315 141.849 120.281C141.741 120.247 141.626 120.24 141.514 120.259L131.292 119.733C129.185 119.624 128.685 119.163 129.005 121.23C129.228 122.774 129.755 124.277 129.977 125.839Z" fill="#3F3D56"/>
<path opacity="0.1" d="M129.977 125.839C130.979 132.863 129.758 140.025 127.854 146.858C127.499 148.13 127.116 149.414 126.451 150.556C125.785 151.698 124.859 152.68 124.078 153.754C122.448 155.995 121.493 158.637 120.599 161.252C118.137 168.489 116.068 175.853 114.404 183.313C114.303 183.619 114.303 183.948 114.404 184.254C114.64 184.797 115.357 184.867 115.946 184.865L123.564 184.824C123.836 184.303 123.334 183.739 123.021 183.24C121.935 181.552 122.978 179.36 123.936 177.594C126.266 173.305 128.069 168.751 129.307 164.03C129.828 162.042 130.252 160.01 131.099 158.135C132.122 155.862 133.727 153.906 135.03 151.779C136.545 149.308 137.65 146.625 138.747 143.931C140.279 140.193 141.823 136.408 142.426 132.415C142.994 128.666 142.714 124.846 142.345 121.073C142.362 120.961 142.352 120.846 142.316 120.738C142.28 120.63 142.219 120.533 142.138 120.453C142.057 120.374 141.958 120.315 141.849 120.281C141.741 120.247 141.626 120.24 141.514 120.259L131.292 119.733C129.185 119.624 128.685 119.163 129.005 121.23C129.228 122.774 129.755 124.277 129.977 125.839Z" fill="black"/>
<path d="M131.987 108.765C129.91 111.749 127.732 115.183 128.422 118.756C128.946 121.469 131.015 123.571 132.967 125.538C140.77 133.367 148.443 142.064 151.098 152.794C151.783 155.566 152.114 158.412 152.703 161.203C153.773 166.276 155.69 171.127 157.59 175.947L162.684 188.793C164.264 188.831 165.817 188.384 167.133 187.51C168.45 186.636 169.465 185.379 170.042 183.909C169.374 183.858 168.502 183.212 168.111 182.67C165.939 179.667 165.494 175.804 164.937 172.141C164.321 168.094 163.498 164.079 162.673 160.067L159.024 142.314C158.603 140.266 158.182 138.215 157.634 136.197C155.51 128.378 151.487 121.005 150.865 112.921C150.773 111.732 150.716 110.428 149.909 109.546C149.062 108.615 147.672 108.461 146.415 108.388C141.329 108.062 136.942 107.566 131.987 108.765Z" fill="#3F3D56"/>
<path d="M118.267 183.131C117.714 183 117.148 182.927 116.579 182.914C116.033 182.933 115.5 183.079 115.021 183.341C114.542 183.602 114.131 183.972 113.82 184.42C113.503 184.927 113.254 185.475 113.079 186.047L112.343 188.158C112.126 188.776 111.914 189.49 112.237 190.057C112.477 190.409 112.823 190.676 113.225 190.819C115.006 191.611 117.027 191.655 118.954 191.845C120.839 192.029 122.706 192.36 124.566 192.707C125.207 192.829 125.845 192.951 126.494 193.016C127.944 193.163 129.405 193.016 130.855 192.886L132.351 192.742C132.851 192.721 133.347 192.63 133.822 192.471C134.06 192.391 134.278 192.263 134.465 192.095C134.652 191.928 134.802 191.725 134.908 191.497C135.277 190.583 134.485 189.501 133.515 189.311C133.122 189.235 132.701 189.27 132.315 189.219C131.863 189.141 131.422 189.009 131.001 188.825C129.101 188.074 127.154 187.314 125.47 186.131C125.003 185.803 124.515 185.345 124.566 184.775C124.615 184.531 124.696 184.295 124.808 184.072C125.036 183.49 125.044 182.845 124.83 182.257C124.737 182.008 124.558 181.745 124.306 181.715C123.589 181.628 123.676 182.673 123.57 183.071C123.426 183.614 123.165 183.663 122.655 183.614C121.189 183.481 119.723 183.408 118.267 183.131Z" fill="#F2F2F2"/>
<path d="M161.131 190.421C161.144 191.481 161.509 192.506 162.168 193.337C162.369 193.585 162.621 193.787 162.906 193.931C163.336 194.108 163.801 194.181 164.264 194.145C165.556 194.117 166.833 193.859 168.035 193.383C168.459 193.191 168.894 193.027 169.338 192.892C169.898 192.778 170.464 192.696 171.033 192.648C173.278 192.325 175.249 191.001 177.419 190.331C178.067 190.171 178.702 189.962 179.319 189.707C180.177 189.303 180.872 188.622 181.554 187.963C181.956 187.607 182.302 187.193 182.58 186.734C182.979 185.993 183.004 185.106 183.02 184.268C183.035 184.137 183.012 184.004 182.955 183.885C182.893 183.8 182.808 183.733 182.71 183.693C182.051 183.367 181.269 183.53 180.538 183.658C177.899 184.127 175.198 184.04 172.518 183.953C172.264 183.988 172.005 183.938 171.782 183.811C171.559 183.684 171.385 183.487 171.285 183.251L170.267 181.623C169.977 181.156 169.515 180.622 168.988 180.782C168.567 180.909 168.396 181.425 168.413 181.867C168.429 182.309 168.565 182.749 168.481 183.18C168.42 183.417 168.312 183.64 168.163 183.834C168.014 184.028 167.826 184.19 167.612 184.309C167.184 184.541 166.728 184.716 166.254 184.829C164.755 185.253 163.012 185.733 161.853 186.834C161 187.616 161.079 189.365 161.131 190.421Z" fill="#F2F2F2"/>
<path d="M160.604 82.7924C161.188 82.346 161.69 81.8006 162.086 81.181C162.427 80.4818 162.641 79.7277 162.719 78.9537L163.145 76.2626C163.381 74.7787 163.658 73.208 164.649 72.0768C165.64 70.9455 167.614 70.5413 168.621 71.659C169.061 72.1446 169.235 72.8119 169.343 73.4603C169.653 75.3937 169.526 77.3718 168.97 79.2496C168.415 81.1273 167.446 82.8569 166.134 84.3115C164.915 85.6462 163.419 86.707 162.129 87.9684C161.005 89.0535 160.031 90.2987 158.993 91.4788C156.485 94.3294 153.612 96.8377 150.449 98.939C150.487 96.9207 150.745 94.7559 150.449 92.7511C150.229 91.3025 149.635 90.5212 151.038 89.5744C154.296 87.3608 157.584 85.3587 160.604 82.7924Z" fill="#FBBEBE"/>
<path d="M133.225 62.9401C133.119 64.3833 132.519 65.8591 131.324 66.6919C134.707 67.8747 138.044 69.1787 141.335 70.6038C140.7 69.9934 140.507 69.0575 140.477 68.1786C140.393 65.8808 141.188 63.621 142.351 61.6407C142.535 61.3895 142.642 61.0894 142.657 60.778C142.619 60.1378 141.859 59.8421 141.235 59.6929C139.104 59.1765 136.93 58.8613 134.74 58.7515C133.803 58.7217 132.693 58.426 132.905 59.6169C133.106 60.7292 133.309 61.8143 133.225 62.9401Z" fill="#FBBEBE"/>
<path d="M139.768 63.7132C144.151 63.7132 147.705 60.163 147.705 55.7836C147.705 51.4042 144.151 47.8541 139.768 47.8541C135.385 47.8541 131.832 51.4042 131.832 55.7836C131.832 60.163 135.385 63.7132 139.768 63.7132Z" fill="#FBBEBE"/>
<path d="M147.626 77.2012C147.349 76.6058 147.011 76.0403 146.619 75.5138C145.18 73.4494 143.703 71.3876 141.856 69.6786C140.458 68.4324 138.944 67.3215 137.336 66.3608C136.468 65.7664 135.514 65.3089 134.506 65.0044C133.909 64.8721 133.301 64.7895 132.69 64.7575L130.629 64.5893C130.449 64.5654 130.265 64.5709 130.086 64.6056C129.527 64.7467 129.272 65.4411 129.391 66.0027C129.511 66.5642 129.934 67.02 130.309 67.4459C130.401 71.6481 128.531 75.7932 128.278 79.9899C127.835 87.3281 132.318 94.1535 132.676 101.497C132.713 101.829 132.678 102.165 132.573 102.482C132.514 102.634 132.424 102.772 132.356 102.921C132.144 103.383 132.152 103.906 132.114 104.413C131.967 106.223 131.174 107.919 129.88 109.193C130.216 109.61 130.648 109.94 131.14 110.154C132.006 110.531 133.04 110.563 133.961 110.826C136.361 111.526 138.821 112.232 141.316 112.083C141.626 111.409 141.818 110.686 141.883 109.948C142.236 109.728 142.644 110.197 142.698 110.609C142.752 111.022 142.674 111.502 142.969 111.8C143.265 112.099 143.64 112.053 144.001 112.007C145.524 111.814 146.988 111.301 148.481 110.957C149.974 110.612 151.571 110.447 153.024 110.94C153.317 110.569 153.192 110.018 152.953 109.611C152.714 109.204 152.375 108.846 152.239 108.393C152.171 108.132 152.141 107.862 152.152 107.593C152.152 105.273 152.63 102.929 152.176 100.653C152.043 99.9861 151.832 99.335 151.696 98.6649C151.424 97.3655 151.465 96.0254 151.5 94.6988C151.536 93.3722 151.375 91.9372 151.348 90.5916C151.347 90.0356 151.311 89.4801 151.24 88.9287C151.147 88.3508 150.968 87.7866 150.919 87.2033C150.773 85.7221 151.37 84.2518 151.28 82.7652C151.131 80.5081 148.506 79.2819 147.626 77.2012Z" fill="#FF6F61"/>
<path d="M129.714 76.1378C127.792 81.2324 126.852 86.6363 125.913 92.0023L123.741 104.606C123.125 108.168 122.506 111.752 122.53 115.365C122.53 116.38 122.595 117.413 122.329 118.393C121.982 119.678 121.118 120.75 120.464 121.919C119.136 124.307 118.694 127.086 119.215 129.767C119.438 130.893 120.046 132.171 121.189 132.301C122.128 132.404 122.94 131.658 123.488 130.888C124.748 129.122 125.373 126.989 125.932 124.89C127.733 118.028 128.992 111.035 129.698 103.977C129.765 103.083 129.891 102.195 130.075 101.318C130.315 100.414 130.622 99.529 130.993 98.6704C131.824 96.6123 132.656 94.5541 133.488 92.496C135.408 87.7405 137.338 82.9632 139.975 78.563C137.368 77.8143 134.656 76.9353 132.049 76.1947C131.297 75.9723 130.491 76.1052 129.714 76.1378Z" fill="#FBBEBE"/>
<path d="M134.232 80.0091C132.408 79.6157 130.521 79.7378 128.658 79.6917C128.394 79.7109 128.13 79.6422 127.909 79.4964C127.531 79.1735 127.691 78.5686 127.881 78.1101L128.783 75.9399C128.931 75.4912 129.178 75.0815 129.505 74.7408C129.964 74.3339 130.61 74.2335 131.218 74.1603C133.198 73.9324 135.234 73.8564 137.154 74.3909C139.073 74.9253 140.879 76.1406 141.737 77.9392C142.095 78.688 142.261 79.632 141.786 80.3129C141.08 81.3248 139.497 82.4561 138.316 81.9026C136.901 81.2326 135.818 80.3455 134.232 80.0091Z" fill="#FF6F61"/>
<path d="M143.933 43.4673C142.365 43.4505 140.826 43.8938 139.508 44.7423C138.259 43.5604 136.719 42.7311 135.045 42.3392C133.37 41.9474 131.621 42.0072 129.978 42.5123C129.803 41.5122 129.357 40.5791 128.688 39.8149C128.019 39.0508 127.153 38.4849 126.184 38.179C125.215 37.8732 124.181 37.8391 123.194 38.0806C122.207 38.322 121.305 38.8297 120.587 39.5482C119.87 40.2667 119.363 41.1684 119.123 42.1549C118.883 43.1414 118.919 44.1749 119.227 45.1424C119.534 46.11 120.102 46.9745 120.868 47.6416C121.634 48.3087 122.569 48.7528 123.57 48.9254C123.212 50.1477 123.098 51.4285 123.235 52.6947C123.373 53.9609 123.758 55.1877 124.37 56.3051C124.982 57.4224 125.808 58.4084 126.801 59.2068C127.794 60.0051 128.935 60.6002 130.158 60.9581C131.382 61.316 132.663 61.4296 133.931 61.2924C135.198 61.1553 136.426 60.7701 137.544 60.1588C138.662 59.5476 139.649 58.7222 140.448 57.7299C141.247 56.7376 141.843 55.5978 142.201 54.3755C142.774 54.4926 143.357 54.5517 143.941 54.5518C147.77 54.5518 150.876 52.0696 150.876 49.0095C150.876 45.9495 147.756 43.4673 143.933 43.4673Z" fill="#3F3D56"/>
<path opacity="0.1" d="M145.315 51.7794C144.73 51.781 144.147 51.7219 143.575 51.603C143.303 52.5953 142.874 53.5376 142.304 54.3945C142.841 54.4979 143.386 54.5506 143.933 54.5519C147.512 54.5519 150.449 52.3816 150.827 49.6037C149.553 50.9276 147.558 51.7794 145.315 51.7794Z" fill="black"/>
<path opacity="0.1" d="M134.221 58.7079C132.703 58.7057 131.206 58.3479 129.85 57.6633C128.495 56.9788 127.319 55.9863 126.417 54.7657C125.514 53.5451 124.911 52.1302 124.655 50.6345C124.398 49.1388 124.497 47.6039 124.941 46.153C123.656 45.9271 122.493 45.2562 121.654 44.2579C120.815 43.2597 120.355 41.9981 120.355 40.6948C120.355 40.3618 120.385 40.0294 120.445 39.7019C119.768 40.4329 119.3 41.3327 119.092 42.3068C118.883 43.2808 118.941 44.293 119.259 45.2369C119.578 46.1808 120.145 47.0215 120.901 47.6706C121.657 48.3197 122.575 48.7532 123.556 48.9255C122.809 51.3778 123.064 54.0261 124.265 56.2914C125.466 58.5567 127.516 60.2546 129.967 61.014C132.417 61.7734 135.069 61.5325 137.342 60.3439C139.616 59.1553 141.325 57.1158 142.098 54.6712C141.2 55.921 140.018 56.939 138.648 57.641C137.278 58.343 135.761 58.7087 134.221 58.7079Z" fill="black"/>
<path d="M169.629 75.0594C169.659 75.0179 169.65 74.9607 169.609 74.9315C169.568 74.9024 169.511 74.9123 169.481 74.9538L168.715 76.027C168.685 76.0685 168.694 76.1257 168.735 76.1549C168.776 76.1841 168.833 76.1741 168.863 76.1326L169.629 75.0594Z" fill="#3A3768"/>
<path d="M165.338 70.5018C165.355 70.4786 165.349 70.4464 165.326 70.4299C165.303 70.4134 165.271 70.4187 165.254 70.4419L165.027 70.7599C165.011 70.7831 165.016 70.8153 165.039 70.8318C165.062 70.8483 165.095 70.843 165.111 70.8198L165.338 70.5018Z" fill="#3A3768"/>
<path d="M164.811 71.251C164.829 71.2254 164.823 71.1898 164.797 71.1715C164.772 71.1532 164.736 71.1592 164.718 71.1848L164.284 71.7921C164.266 71.8177 164.272 71.8533 164.297 71.8715C164.323 71.8898 164.359 71.8839 164.377 71.8583L164.811 71.251Z" fill="#3A3768"/>
<path d="M164.138 72.1931C164.155 72.1687 164.149 72.1348 164.125 72.1174C164.101 72.1 164.067 72.1056 164.049 72.13L163.608 72.7484C163.59 72.7728 163.596 72.8066 163.62 72.824C163.645 72.8414 163.679 72.8358 163.696 72.8114L164.138 72.1931Z" fill="#3A3768"/>
<path d="M170.945 72.7556L167.091 70.0075C166.783 69.7882 166.356 69.8596 166.137 70.1669L159.726 79.1435C159.506 79.4508 159.578 79.8778 159.885 80.0971L163.74 82.8451C164.047 83.0644 164.475 82.9931 164.694 82.6857L171.105 73.7091C171.324 73.4018 171.253 72.9749 170.945 72.7556Z" fill="#3A3768"/>
<path opacity="0.1" d="M170.945 72.7556L167.091 70.0075C166.783 69.7882 166.356 69.8596 166.137 70.1669L159.726 79.1435C159.506 79.4508 159.578 79.8778 159.885 80.0971L163.74 82.8451C164.047 83.0644 164.475 82.9931 164.694 82.6857L171.105 73.7091C171.324 73.4018 171.253 72.9749 170.945 72.7556Z" fill="black"/>
<path d="M170.693 72.2498L166.839 69.5018C166.531 69.2824 166.104 69.3538 165.884 69.6612L159.474 78.6378C159.254 78.9451 159.326 79.372 159.633 79.5913L163.488 82.3394C163.795 82.5587 164.222 82.4873 164.442 82.18L170.853 73.2034C171.072 72.896 171.001 72.4691 170.693 72.2498Z" fill="#3A3768"/>
<path d="M170.346 72.4132L169.778 72.0063L169.729 72.0741C169.669 72.1573 169.578 72.2137 169.477 72.2314C169.376 72.2491 169.271 72.2268 169.186 72.1691L167.373 70.8751C167.287 70.8135 167.229 70.7204 167.211 70.6161C167.194 70.5118 167.219 70.4049 167.28 70.319L167.329 70.2511L166.786 69.8713C166.734 69.8341 166.676 69.8075 166.614 69.7929C166.552 69.7784 166.488 69.7762 166.425 69.7866C166.362 69.7969 166.302 69.8195 166.248 69.8532C166.194 69.8868 166.147 69.9308 166.11 69.9826L159.844 78.7585C159.769 78.863 159.739 78.9926 159.76 79.1192C159.781 79.2458 159.851 79.3589 159.955 79.434L163.523 81.9759C163.574 82.013 163.633 82.0395 163.695 82.0538C163.757 82.0681 163.822 82.0701 163.884 82.0595C163.947 82.0489 164.007 82.026 164.061 81.9921C164.115 81.9582 164.162 81.914 164.199 81.862L170.465 73.0887C170.502 73.0366 170.528 72.9778 170.542 72.9155C170.556 72.8533 170.557 72.7889 170.546 72.7261C170.535 72.6633 170.512 72.6033 170.477 72.5496C170.443 72.4959 170.398 72.4496 170.346 72.4132Z" fill="#6C63FF"/>
<path d="M168.694 71.2821L168.141 70.8882C168.102 70.8603 168.048 70.8694 168.02 70.9084C167.992 70.9475 168.001 71.0017 168.04 71.0295L168.593 71.4235C168.632 71.4513 168.686 71.4422 168.714 71.4032C168.742 71.3642 168.733 71.31 168.694 71.2821Z" fill="#E6E8EC"/>
<path d="M168.885 71.64C168.939 71.64 168.983 71.5963 168.983 71.5424C168.983 71.4884 168.939 71.4447 168.885 71.4447C168.831 71.4447 168.787 71.4884 168.787 71.5424C168.787 71.5963 168.831 71.64 168.885 71.64Z" fill="#E6E8EC"/>
<path d="M165 33.7419C162.613 33.7419 160.324 34.7009 158.636 36.4077C156.948 38.1146 156 40.4296 156 42.8435C156 47.8698 165.43 64.5161 165.43 64.5161C165.43 64.5161 174 47.8766 174 42.8435C174 40.4296 173.052 38.1146 171.364 36.4077C169.676 34.7009 167.387 33.7419 165 33.7419ZM165 48.913C164.067 48.913 163.156 48.6334 162.381 48.1095C161.605 47.5855 161.001 46.8409 160.644 45.9696C160.287 45.0983 160.194 44.1396 160.376 43.2147C160.558 42.2898 161.007 41.4402 161.666 40.7733C162.325 40.1065 163.166 39.6524 164.08 39.4684C164.995 39.2844 165.943 39.3788 166.804 39.7397C167.666 40.1006 168.402 40.7118 168.92 41.4959C169.438 42.28 169.715 43.2019 169.715 44.1449C169.716 44.7715 169.594 45.392 169.358 45.9711C169.121 46.5501 168.774 47.0763 168.336 47.5195C167.898 47.9628 167.378 48.3143 166.805 48.5541C166.233 48.794 165.62 48.9173 165 48.9171V48.913Z" fill="#CB4343"/>
<path opacity="0.1" d="M165 33.7419C162.613 33.7419 160.324 34.7009 158.636 36.4077C156.948 38.1146 156 40.4296 156 42.8435C156 47.8698 165.43 64.5161 165.43 64.5161C165.43 64.5161 174 47.8766 174 42.8435C174 40.4296 173.052 38.1146 171.364 36.4077C169.676 34.7009 167.387 33.7419 165 33.7419ZM165 48.913C164.067 48.913 163.156 48.6334 162.381 48.1095C161.605 47.5855 161.001 46.8409 160.644 45.9696C160.287 45.0983 160.194 44.1396 160.376 43.2147C160.558 42.2898 161.007 41.4402 161.666 40.7733C162.325 40.1065 163.166 39.6524 164.08 39.4684C164.995 39.2844 165.943 39.3788 166.804 39.7397C167.666 40.1006 168.402 40.7118 168.92 41.4959C169.438 42.28 169.715 43.2019 169.715 44.1449C169.716 44.7715 169.594 45.392 169.358 45.9711C169.121 46.5501 168.774 47.0763 168.336 47.5195C167.898 47.9628 167.378 48.3143 166.805 48.5541C166.233 48.794 165.62 48.9173 165 48.9171V48.913Z" fill="#FF5252"/>
<path d="M165 32C162.613 32 160.324 32.9544 158.636 34.6532C156.948 36.352 156 38.6561 156 41.0585C156 46.061 165.43 64.5161 165.43 64.5161C165.43 64.5161 174 46.0637 174 41.0599C174 39.8702 173.768 38.6921 173.315 37.5929C172.863 36.4937 172.2 35.495 171.364 34.6537C170.529 33.8124 169.536 33.145 168.444 32.6897C167.352 32.2344 166.182 32 165 32ZM165 47.0994C164.067 47.0994 163.156 46.8211 162.381 46.2996C161.605 45.7782 161.001 45.037 160.644 44.1698C160.287 43.3027 160.194 42.3485 160.376 41.428C160.558 40.5074 161.007 39.6618 161.666 38.9981C162.325 38.3345 163.166 37.8825 164.08 37.6994C164.995 37.5163 165.943 37.6102 166.804 37.9694C167.666 38.3286 168.402 38.9369 168.92 39.7173C169.438 40.4977 169.715 41.4152 169.715 42.3538C169.715 42.977 169.593 43.5941 169.356 44.1698C169.119 44.7456 168.772 45.2688 168.334 45.7094C167.896 46.1501 167.376 46.4997 166.804 46.7381C166.232 46.9766 165.619 47.0994 165 47.0994Z" fill="#FF5252"/>
<path d="M143.5 62.5C147.1 61.7 147.833 58.5 147.5 57C147.5 57 146 58.5 143.5 58C142.368 57.7735 141.522 58.84 141.271 60C140.968 61.4006 141.531 62.9376 143.5 62.5Z" fill="white"/>
<path d="M141.271 60C140.968 61.4006 141.531 62.9376 143.5 62.5C147.1 61.7 147.833 58.5 147.5 57C147.5 57 146 58.5 143.5 58C142.368 57.7735 141.522 58.84 141.271 60ZM141.271 60L139 58.5" stroke="#FEFEFE"/>
<path d="M34.1397 141.008C32.9055 141.008 31.693 141.333 30.6245 141.951C29.5394 140.97 28.1928 140.325 26.7481 140.095C25.3035 139.864 23.8229 140.057 22.4861 140.652C21.1493 141.246 20.0139 142.215 19.2175 143.442C18.4212 144.668 17.9982 146.1 18 147.562H41.1754C41.0491 145.783 40.253 144.118 38.9476 142.902C37.6421 141.686 35.9242 141.009 34.1397 141.008Z" fill="#3F3D56"/>
<path d="M84.1397 141.008C82.9054 141.008 81.6929 141.333 80.6245 141.951C79.5394 140.97 78.1928 140.325 76.7481 140.095C75.3034 139.864 73.8229 140.057 72.4861 140.652C71.1493 141.246 70.0138 142.215 69.2175 143.442C68.4212 144.668 67.9982 146.1 68 147.562H91.1754C91.049 145.783 90.253 144.118 88.9475 142.902C87.6421 141.686 85.9242 141.009 84.1397 141.008Z" fill="#3F3D56"/>
<path d="M38.4718 68.4725C45.7255 68.4725 51.6058 62.5947 51.6058 55.3442C51.6058 48.0936 45.7255 42.2158 38.4718 42.2158C31.2182 42.2158 25.3379 48.0936 25.3379 55.3442C25.3379 62.5947 31.2182 68.4725 38.4718 68.4725Z" fill="#6C63FF"/>
<path opacity="0.2" d="M48.2425 46.5757C49.4676 49.4402 49.6337 52.6468 48.7113 55.6225C47.7889 58.5982 45.838 61.1491 43.2072 62.8194C40.5764 64.4897 37.4371 65.1705 34.3504 64.7401C31.2637 64.3098 28.4306 62.7964 26.3574 60.4704C27.1058 62.2204 28.2259 63.787 29.6401 65.0614C31.0543 66.3359 32.7288 67.2877 34.5475 67.8511C36.3663 68.4144 38.2859 68.5758 40.1732 68.324C42.0605 68.0722 43.8706 67.4132 45.4778 66.3928C47.0851 65.3723 48.4512 64.0148 49.4815 62.4142C50.5118 60.8136 51.1816 59.0083 51.4446 57.1233C51.7076 55.2382 51.5574 53.3186 51.0045 51.4973C50.4516 49.6761 49.5091 47.9967 48.2425 46.5757Z" fill="black"/>
<path d="M38 55H38.053L39 147H37L38 55Z" fill="#3F3D56"/>
<path d="M77.0858 55.9279C88.1164 55.9279 97.0584 46.9898 97.0584 35.964C97.0584 24.9382 88.1164 16 77.0858 16C66.0553 16 57.1133 24.9382 57.1133 35.964C57.1133 46.9898 66.0553 55.9279 77.0858 55.9279Z" fill="#6C63FF"/>
<path opacity="0.2" d="M91.9422 22.6299C93.8052 26.9859 94.058 31.8621 92.6553 36.3872C91.2526 40.9123 88.2859 44.7914 84.2852 47.3314C80.2846 49.8713 75.5108 50.9066 70.8169 50.2522C66.123 49.5978 61.8147 47.2964 58.6621 43.7591C59.8002 46.4205 61.5034 48.8027 63.654 50.7407C65.8045 52.6787 68.3509 54.1262 71.1166 54.9829C73.8824 55.8396 76.8014 56.0849 79.6715 55.702C82.5415 55.3191 85.294 54.317 87.7381 52.7653C90.1823 51.2135 92.2597 49.1491 93.8264 46.7152C95.3932 44.2812 96.4118 41.5358 96.8117 38.6693C97.2116 35.8028 96.9832 32.8836 96.1424 30.1141C95.3016 27.3445 93.8684 24.7908 91.9422 22.6299Z" fill="black"/>
<path d="M77.5 36H77.5791L79 143H76L77.5 36Z" fill="#3F3D56"/>
<path d="M80.7765 66.7944L80.3164 65.9209L77.0149 67.6583L77.475 68.5319L80.7765 66.7944Z" fill="#3F3D56"/>
</g>
<defs>
<clipPath id="clip0">
<rect x="-13" width="284" height="198" fill="white"/>
</clipPath>
</defs>
</svg>
