<svg width="371" height="241" viewBox="0 0 371 241" fill="none" xmlns="http://www.w3.org/2000/svg">
<g clip-path="url(#clip0)">
<path d="M345.99 129.688L345.009 143.068C344.956 143.785 344.646 144.459 344.136 144.965C343.625 145.472 342.948 145.777 342.23 145.825C341.816 145.852 341.401 145.793 341.011 145.652C340.621 145.51 340.265 145.289 339.965 145.003C339.666 144.716 339.429 144.371 339.271 143.988C339.113 143.605 339.036 143.194 339.046 142.78L339.358 129.688L350.898 92.7449L349.501 70.1123L360.424 69.7229L359.644 95.8115L345.99 129.688Z" fill="#A0616A"/>
<path d="M362.681 74.3201C357.81 73.1986 353.64 74.5058 350.405 79.0522L347.9 60.141C347.777 58.953 348.087 57.7605 348.773 56.7821C349.46 55.8036 350.476 55.1048 351.637 54.8137C352.868 54.5046 354.172 54.6774 355.28 55.2966C356.388 55.9157 357.217 56.9344 357.597 58.144L362.681 74.3201Z" fill="#FF6F61"/>
<path d="M363.256 52.1233C351.999 47.3445 340.435 50.3723 326.743 52.4738C326.616 49.9289 325.072 46.8317 326.689 45.0563C328.655 42.8993 328.474 40.6329 327.291 38.3535C324.267 32.5246 328.6 26.3224 332.975 21.1653C333.961 20.0056 335.207 19.0943 336.613 18.5056C338.018 17.9169 339.542 17.6674 341.062 17.7772L349.167 18.355C353.205 18.643 354.184 21.403 355.329 25.2794C357.264 27.9065 358.3 30.5262 357.648 33.1324C360.547 35.1096 361.034 37.4963 359.731 40.1868C358.627 41.8809 358.638 43.5299 359.781 45.1333C361.282 47.1775 362.432 49.4569 363.183 51.8779L363.256 52.1233Z" fill="#2F2E41"/>
<path d="M323.076 226.537H317.692L314.494 182.147L328.147 181.758L323.076 226.537Z" fill="#A0616A"/>
<path d="M323.466 240.944C322.03 241.598 320.828 236.299 319.617 237.487C316.229 240.809 308.103 240.065 308.103 240.065C307.83 239.977 307.578 239.835 307.361 239.648C307.145 239.46 306.969 239.23 306.845 238.973C306.72 238.715 306.649 238.435 306.636 238.149C306.622 237.864 306.668 237.578 306.768 237.31C306.889 236.99 307.085 236.703 307.341 236.475C307.597 236.247 307.905 236.085 308.237 236.002L311.84 235.103L317.496 225.174L323.271 224.784C324.558 226.423 325.457 228.331 325.899 230.365C326.341 232.4 326.315 234.508 325.822 236.532C325.298 238.666 324.49 240.477 323.466 240.944Z" fill="#2F2E41"/>
<path d="M358.927 226.537H353.543L350.345 182.147L364.388 179.422L358.927 226.537Z" fill="#A0616A"/>
<path d="M359.317 240.944C357.881 241.598 356.679 236.299 355.468 237.487C352.08 240.809 343.954 240.065 343.954 240.065C343.681 239.977 343.429 239.835 343.213 239.648C342.997 239.46 342.821 239.23 342.696 238.973C342.571 238.715 342.5 238.435 342.487 238.149C342.474 237.864 342.519 237.578 342.619 237.31C342.74 236.99 342.936 236.703 343.192 236.475C343.448 236.247 343.756 236.085 344.089 236.002L347.691 235.103L353.348 225.174L359.512 224.395L359.668 224.649C360.86 226.566 361.628 228.715 361.922 230.952C362.216 233.189 362.028 235.463 361.371 237.622C360.859 239.262 360.161 240.559 359.317 240.944Z" fill="#2F2E41"/>
<path d="M371 184.152C362.298 187.995 357.085 183.836 348.227 185.093C345.697 185.452 342.718 148.326 340.176 148.481C336.941 148.678 334.139 186.094 330.884 185.966C322.7 185.616 314.584 184.335 306.691 182.147C315.127 149.49 325.088 119.961 325.026 95.7047L350.333 93.7578L353.817 99.2705C359.402 112.35 365.107 126.875 367.95 142.077L371 184.152Z" fill="#2F2E41"/>
<path d="M337.51 45.4745C343.973 45.4745 349.213 40.2445 349.213 33.793C349.213 27.3415 343.973 22.1116 337.51 22.1116C331.046 22.1116 325.807 27.3415 325.807 33.793C325.807 40.2445 331.046 45.4745 337.51 45.4745Z" fill="#A0616A"/>
<path d="M350.383 54.4303L335.949 55.2088L333.609 42.3591L345.312 40.4126L350.383 54.4303Z" fill="#A0616A"/>
<path d="M351.503 95.7047L333.01 96.1493L325.026 97.2622C321.108 84.3414 317.808 71.4502 325.807 60.6603L335.169 51.3152L349.213 50.9258L349.399 51.0319C351.629 52.3073 353.358 54.303 354.3 56.6902C355.241 59.0774 355.341 61.7136 354.58 64.1645C351.095 75.4686 351.537 86.1433 351.503 95.7047Z" fill="#FF6F61"/>
<path d="M350.795 33.734C350.8 30.2468 349.519 26.8798 347.197 24.2745V20.1252H334.506C333.539 20.1252 332.581 20.3155 331.687 20.6851C330.793 21.0547 329.98 21.5965 329.296 22.2795C328.612 22.9624 328.069 23.7732 327.699 24.6656C327.328 25.5579 327.138 26.5144 327.138 27.4802V27.4803H335.597C333.315 31.6714 332.332 36.0656 334.528 40.2989C335.853 42.8528 335.912 47.9264 334.097 50.3626C335.051 50.4169 336.008 50.4169 336.963 50.3626C340.883 50.3626 351.575 50.8716 354.156 48.3195C356.77 45.7351 350.795 37.6966 350.795 33.734Z" fill="#2F2E41"/>
<path d="M331.117 130.913H256.148C255.675 130.914 255.221 131.103 254.886 131.437C254.552 131.771 254.363 132.224 254.362 132.697V211.24C254.363 211.713 254.552 212.165 254.886 212.5C255.221 212.834 255.675 213.022 256.148 213.024H331.117C331.59 213.022 332.044 212.834 332.379 212.5C332.714 212.165 332.902 211.713 332.904 211.24V132.697C332.902 132.224 332.714 131.771 332.379 131.437C332.044 131.103 331.59 130.914 331.117 130.913Z" fill="#E6E6E6"/>
<path d="M329.33 133.142H257.935C257.58 133.144 257.24 133.285 256.989 133.536C256.738 133.786 256.597 134.126 256.595 134.48V209.456C256.596 209.811 256.738 210.15 256.989 210.401C257.24 210.652 257.58 210.793 257.935 210.794H329.33C329.685 210.793 330.025 210.652 330.276 210.401C330.528 210.15 330.669 209.811 330.67 209.456V134.48C330.669 134.126 330.528 133.786 330.276 133.535C330.025 133.285 329.685 133.143 329.33 133.142Z" fill="white"/>
<path d="M324.636 131.917L323.655 145.298C323.603 146.014 323.293 146.688 322.782 147.195C322.271 147.701 321.594 148.006 320.876 148.054C320.462 148.082 320.047 148.023 319.657 147.881C319.267 147.74 318.911 147.519 318.612 147.232C318.312 146.946 318.076 146.6 317.917 146.217C317.759 145.835 317.682 145.423 317.692 145.009L318.005 131.917L327.757 94.9259L328.147 72.3418L339.07 71.9524L338.29 98.0409L324.636 131.917Z" fill="#A0616A"/>
<path d="M340.241 73.8994C335.61 72.0197 331.284 72.6492 327.367 76.625L327.904 57.5568C327.971 56.3644 328.467 55.2362 329.301 54.379C330.134 53.5218 331.249 52.993 332.441 52.8895C333.706 52.7797 334.965 53.1569 335.961 53.944C336.957 54.731 337.613 55.8682 337.796 57.1226L340.241 73.8994Z" fill="#FF6F61"/>
<path d="M324.032 152.108C324.236 152.108 324.432 152.189 324.576 152.333C324.721 152.477 324.802 152.672 324.802 152.876V154.412C324.802 154.616 324.721 154.811 324.576 154.955C324.432 155.099 324.236 155.18 324.032 155.18H263.233C263.132 155.18 263.032 155.16 262.939 155.122C262.845 155.083 262.76 155.027 262.689 154.955C262.618 154.884 262.561 154.799 262.522 154.706C262.484 154.613 262.464 154.513 262.464 154.412V152.876C262.464 152.775 262.484 152.675 262.522 152.582C262.561 152.489 262.618 152.404 262.689 152.333C262.76 152.261 262.845 152.205 262.939 152.166C263.032 152.128 263.132 152.108 263.233 152.108H324.032Z" fill="#E6E6E6"/>
<path d="M324.032 159.406C324.236 159.406 324.432 159.486 324.576 159.631C324.721 159.775 324.802 159.97 324.802 160.174V161.71C324.802 161.914 324.721 162.109 324.576 162.253C324.432 162.397 324.236 162.478 324.032 162.478H263.233C263.132 162.478 263.032 162.458 262.939 162.42C262.845 162.381 262.76 162.325 262.689 162.253C262.618 162.182 262.561 162.097 262.522 162.004C262.484 161.911 262.464 161.811 262.464 161.71V160.174C262.464 160.073 262.484 159.973 262.522 159.88C262.561 159.787 262.618 159.702 262.689 159.631C262.76 159.559 262.845 159.503 262.939 159.464C263.032 159.425 263.132 159.406 263.233 159.406H324.032" fill="#E6E6E6"/>
<path d="M324.032 166.703C324.236 166.703 324.432 166.784 324.576 166.928C324.721 167.072 324.802 167.268 324.802 167.471V169.008C324.802 169.211 324.721 169.407 324.576 169.551C324.432 169.695 324.236 169.776 324.032 169.776H263.233C263.029 169.776 262.833 169.695 262.689 169.551C262.545 169.407 262.464 169.211 262.464 169.008V167.471C262.464 167.268 262.545 167.072 262.689 166.928C262.833 166.784 263.029 166.703 263.233 166.703H324.032Z" fill="#6C63FF"/>
<path d="M324.032 174.161C324.236 174.161 324.432 174.242 324.576 174.386C324.721 174.53 324.802 174.725 324.802 174.929V176.465C324.802 176.669 324.721 176.864 324.576 177.008C324.432 177.152 324.236 177.233 324.032 177.233H263.233C263.132 177.233 263.032 177.213 262.939 177.175C262.845 177.136 262.76 177.08 262.689 177.008C262.618 176.937 262.561 176.852 262.522 176.759C262.484 176.666 262.464 176.566 262.464 176.465V174.929C262.464 174.828 262.484 174.728 262.522 174.635C262.561 174.542 262.618 174.457 262.689 174.386C262.76 174.314 262.845 174.258 262.939 174.219C263.032 174.181 263.132 174.161 263.233 174.161H324.032" fill="#E6E6E6"/>
<path d="M324.032 181.458C324.236 181.458 324.432 181.539 324.576 181.683C324.721 181.827 324.802 182.023 324.802 182.226V183.763C324.802 183.966 324.721 184.162 324.576 184.306C324.432 184.45 324.236 184.531 324.032 184.531H263.233C263.132 184.531 263.032 184.511 262.939 184.472C262.845 184.434 262.76 184.377 262.689 184.306C262.618 184.235 262.561 184.15 262.522 184.057C262.484 183.964 262.464 183.864 262.464 183.763V182.226C262.464 182.126 262.484 182.026 262.522 181.932C262.561 181.839 262.618 181.755 262.689 181.683C262.76 181.612 262.845 181.555 262.939 181.517C263.032 181.478 263.132 181.458 263.233 181.458H324.032Z" fill="#E6E6E6"/>
<path d="M324.032 188.756C324.236 188.756 324.432 188.837 324.576 188.981C324.721 189.125 324.802 189.32 324.802 189.524V191.06C324.802 191.264 324.721 191.46 324.576 191.604C324.432 191.748 324.236 191.829 324.032 191.829H263.233C263.029 191.829 262.833 191.748 262.689 191.604C262.545 191.46 262.464 191.264 262.464 191.06V189.524C262.464 189.32 262.545 189.125 262.689 188.981C262.833 188.837 263.029 188.756 263.233 188.756H324.032Z" fill="#E6E6E6"/>
<path d="M55.7174 224.45L49.7477 224.781L36.15 133.416L23.3814 224.616L16.9141 223.126C13.3228 183.813 8.64689 143.177 11.9394 125.471H57.3757C64.123 143.072 59.619 184.396 55.7174 224.45Z" fill="#2F2E41"/>
<path d="M18.5765 240.993C17.79 240.953 17.0222 240.74 16.3279 240.369C15.6336 239.998 15.03 239.478 14.5603 238.847C14.0905 238.216 13.7663 237.49 13.6107 236.719C13.4551 235.949 13.4721 235.153 13.6603 234.39L16.3768 223.375C18.6477 220.558 20.6805 220.682 22.5054 223.375L24.3706 222.576L25.7029 232.151L23.8654 237.509C23.4713 238.577 22.7455 239.491 21.7939 240.118C20.8424 240.745 19.715 241.051 18.5765 240.993Z" fill="#2F2E41"/>
<path d="M54.7185 240.993C55.505 240.953 56.2728 240.74 56.9671 240.369C57.6614 239.998 58.265 239.478 58.7347 238.847C59.2044 238.216 59.5286 237.49 59.6842 236.719C59.8398 235.949 59.8229 235.153 59.6347 234.39L56.9181 223.375C54.6472 220.558 52.6144 220.682 50.7895 223.375L48.9243 222.576L47.592 232.151L49.4295 237.509C49.8236 238.577 50.5495 239.491 51.501 240.118C52.4526 240.745 53.58 241.051 54.7185 240.993Z" fill="#2F2E41"/>
<path d="M37.4765 32.1186C44.8032 32.1186 50.7426 26.1902 50.7426 18.8772C50.7426 11.5641 44.8032 5.63574 37.4765 5.63574C30.1499 5.63574 24.2104 11.5641 24.2104 18.8772C24.2104 26.1902 30.1499 32.1186 37.4765 32.1186Z" fill="#FFB8B8"/>
<path d="M45.4362 43.3737H28.522L29.5169 25.8289H45.4362V43.3737Z" fill="#FFB8B8"/>
<path d="M63.3455 127.457H9.61792C17.4515 101.092 16.0744 72.849 10.2812 43.7049L24.8739 39.0703L28.8537 35.76C33.8479 41.8312 39.3702 41.7811 45.4363 35.429L50.4111 39.0703L65.0038 44.0359C57.3069 72.1146 56.055 99.9482 63.3455 127.457Z" fill="#FF6F61"/>
<path d="M23.3081 15.4558C22.751 13.8669 22.5356 12.1786 22.6759 10.501C22.8161 8.82346 23.309 7.19421 24.1222 5.71944C25.7433 2.84984 28.8653 0.159879 34.8671 0.00814405C47.9619 -0.322895 53.6364 9.53212 52.8986 12.422C52.1608 15.3119 49.5212 22.1875 49.5212 22.1875C49.5212 22.1875 51.1581 15.5668 47.8844 14.9048C44.6107 14.2427 31.925 11.5944 28.2421 14.5737C27.1918 15.3765 26.3734 16.4427 25.8702 17.6639C25.367 18.885 25.1971 20.2174 25.3776 21.5255L23.3081 15.4558Z" fill="#2F2E41"/>
<path d="M76.9339 131.359H1.96558C1.49273 131.362 1.0402 131.551 0.705835 131.885C0.371466 132.219 0.182115 132.67 0.178711 133.142V211.686C0.180097 212.158 0.3688 212.611 0.703604 212.945C1.03841 213.28 1.4921 213.468 1.96558 213.469H76.9339C77.4074 213.468 77.8611 213.28 78.1959 212.945C78.5307 212.611 78.7194 212.158 78.7208 211.686V133.142C78.7194 132.67 78.5307 132.217 78.1959 131.883C77.8611 131.549 77.4074 131.36 76.9339 131.359Z" fill="#E6E6E6"/>
<path d="M75.1471 133.588H3.75251C3.3974 133.589 3.05713 133.731 2.80603 133.981C2.55492 134.232 2.41339 134.572 2.41235 134.926V209.902C2.41339 210.257 2.55492 210.596 2.80603 210.847C3.05713 211.098 3.3974 211.239 3.75251 211.24H75.1471C75.5022 211.239 75.8425 211.098 76.0936 210.847C76.3447 210.596 76.4862 210.257 76.4873 209.902V134.926C76.4862 134.572 76.3447 134.232 76.0936 133.981C75.8425 133.731 75.5022 133.589 75.1471 133.588Z" fill="white"/>
<path d="M61.6058 137.761C60.9274 137.498 60.309 137.101 59.7873 136.594C59.2655 136.088 58.851 135.482 58.5684 134.813C58.2858 134.143 58.1408 133.424 58.1421 132.697C58.1434 131.971 58.2909 131.252 58.5759 130.584L63.0138 120.174L62.3504 87.0704L60.0289 75.8152L71.9684 71.1807L74.2899 86.7394L69.9784 122.491L68.9844 133.207C68.9069 134.043 68.636 134.849 68.193 135.563C67.7501 136.276 67.1473 136.878 66.432 137.319C65.7167 137.761 64.9084 138.03 64.0709 138.107C63.2335 138.184 62.3896 138.065 61.6058 137.761Z" fill="#FFB8B8"/>
<path d="M12.6841 137.761C13.3625 137.498 13.9809 137.101 14.5026 136.595C15.0244 136.088 15.4389 135.482 15.7215 134.813C16.0041 134.143 16.1491 133.424 16.1478 132.698C16.1465 131.971 15.999 131.252 15.714 130.584L11.2762 120.174L11.9395 87.0706L14.261 75.8154L2.32156 71.1809L0 86.7396L4.31147 122.491L5.30551 133.207C5.38305 134.043 5.65395 134.849 6.09687 135.563C6.53979 136.277 7.14264 136.878 7.85795 137.319C8.57325 137.761 9.38147 138.03 10.219 138.107C11.0564 138.184 11.9003 138.065 12.6841 137.761Z" fill="#FFB8B8"/>
<path d="M72.9633 72.1739C68.23 73.3812 63.7417 75.3972 59.6973 78.1326L56.7124 69.1946L64.3404 43.7048C66.3984 44.3896 68.2048 45.6719 69.5282 47.3876C70.8516 49.1033 71.6318 51.1743 71.7688 53.3353C71.5924 59.638 71.9922 65.9437 72.9633 72.1739Z" fill="#FF6F61"/>
<path d="M1.32666 72.1741C6.06002 73.3814 10.5483 75.3974 14.5927 78.1328L17.5776 69.1948L10.9446 43.374C6.73468 44.7747 2.80153 48.9149 2.52122 53.3354C2.69764 59.6382 2.2978 65.9439 1.32666 72.1741Z" fill="#FF6F61"/>
<path d="M69.8492 152.14C70.0533 152.14 70.2491 152.221 70.3934 152.365C70.5377 152.509 70.6188 152.704 70.6188 152.908V154.444C70.6188 154.648 70.5377 154.843 70.3934 154.987C70.2491 155.131 70.0533 155.212 69.8492 155.212H9.05036C8.9493 155.212 8.84922 155.192 8.75585 155.154C8.66248 155.115 8.57763 155.059 8.50617 154.987C8.4347 154.916 8.37802 154.831 8.33934 154.738C8.30067 154.645 8.28076 154.545 8.28076 154.444V152.908C8.28076 152.807 8.30067 152.707 8.33934 152.614C8.37802 152.521 8.4347 152.436 8.50617 152.365C8.57763 152.293 8.66248 152.237 8.75585 152.198C8.84922 152.159 8.9493 152.14 9.05036 152.14H69.8492Z" fill="#E6E6E6"/>
<path d="M69.8492 159.437C70.0533 159.437 70.2491 159.518 70.3934 159.662C70.5377 159.806 70.6188 160.002 70.6188 160.205V161.742C70.6188 161.946 70.5377 162.141 70.3934 162.285C70.2491 162.429 70.0533 162.51 69.8492 162.51H9.05036C8.9493 162.51 8.84922 162.49 8.75585 162.451C8.66248 162.413 8.57763 162.356 8.50617 162.285C8.4347 162.214 8.37802 162.129 8.33934 162.036C8.30067 161.943 8.28076 161.843 8.28076 161.742V160.205C8.28076 160.105 8.30067 160.005 8.33934 159.911C8.37802 159.818 8.4347 159.734 8.50617 159.662C8.57763 159.591 8.66248 159.534 8.75585 159.496C8.84922 159.457 8.9493 159.437 9.05036 159.437H69.8492Z" fill="#E6E6E6"/>
<path d="M69.8492 166.735C70.0533 166.735 70.2491 166.816 70.3934 166.96C70.5377 167.104 70.6188 167.299 70.6188 167.503V169.039C70.6188 169.243 70.5377 169.439 70.3934 169.583C70.2491 169.727 70.0533 169.808 69.8492 169.808H9.05036C8.84625 169.808 8.6505 169.727 8.50617 169.583C8.36184 169.439 8.28076 169.243 8.28076 169.039V167.503C8.28076 167.299 8.36184 167.104 8.50617 166.96C8.6505 166.816 8.84625 166.735 9.05036 166.735H69.8492" fill="#6C63FF"/>
<path d="M69.8492 174.192C70.0533 174.192 70.2491 174.273 70.3934 174.417C70.5377 174.561 70.6188 174.757 70.6188 174.961V176.497C70.6188 176.701 70.5377 176.896 70.3934 177.04C70.2491 177.184 70.0533 177.265 69.8492 177.265H9.05036C8.9493 177.265 8.84922 177.245 8.75585 177.207C8.66248 177.168 8.57763 177.111 8.50617 177.04C8.4347 176.969 8.37802 176.884 8.33934 176.791C8.30067 176.698 8.28076 176.598 8.28076 176.497V174.961C8.28076 174.86 8.30067 174.76 8.33934 174.667C8.37802 174.573 8.4347 174.489 8.50617 174.417C8.57763 174.346 8.66248 174.289 8.75585 174.251C8.84922 174.212 8.9493 174.192 9.05036 174.192H69.8492Z" fill="#E6E6E6"/>
<path d="M69.8492 181.49C70.0533 181.49 70.2491 181.571 70.3934 181.715C70.5377 181.859 70.6188 182.054 70.6188 182.258V183.795C70.6188 183.998 70.5377 184.194 70.3934 184.338C70.2491 184.482 70.0533 184.563 69.8492 184.563H9.05036C8.9493 184.563 8.84922 184.543 8.75585 184.504C8.66248 184.466 8.57763 184.409 8.50617 184.338C8.4347 184.266 8.37802 184.182 8.33934 184.089C8.30067 183.995 8.28076 183.895 8.28076 183.795V182.258C8.28076 182.157 8.30067 182.057 8.33934 181.964C8.37802 181.871 8.4347 181.786 8.50617 181.715C8.57763 181.644 8.66248 181.587 8.75585 181.548C8.84922 181.51 8.9493 181.49 9.05036 181.49H69.8492Z" fill="#E6E6E6"/>
<path d="M69.8492 188.788C70.0533 188.788 70.2491 188.869 70.3934 189.013C70.5377 189.157 70.6188 189.352 70.6188 189.556V191.092C70.6188 191.296 70.5377 191.491 70.3934 191.635C70.2491 191.779 70.0533 191.86 69.8492 191.86H9.05036C8.84625 191.86 8.6505 191.779 8.50617 191.635C8.36184 191.491 8.28076 191.296 8.28076 191.092V189.556C8.28076 189.352 8.36184 189.157 8.50617 189.013C8.6505 188.869 8.84625 188.788 9.05036 188.788H69.8492Z" fill="#E6E6E6"/>
<path d="M221.573 78.4766H146.604C146.131 78.4772 145.676 78.6653 145.341 78.9996C145.006 79.334 144.818 79.7873 144.817 80.2601V211.249C144.819 211.722 145.007 212.174 145.342 212.509C145.677 212.843 146.131 213.031 146.604 213.032H221.573C222.046 213.031 222.5 212.843 222.835 212.509C223.169 212.174 223.358 211.722 223.359 211.249V80.2601C223.359 79.7873 223.17 79.334 222.835 78.9996C222.5 78.6653 222.046 78.4772 221.573 78.4766Z" fill="#E6E6E6"/>
<path d="M221.094 81.7581C221.058 81.5984 220.995 81.4461 220.907 81.3077C220.784 81.1232 220.617 80.9718 220.422 80.8668C220.226 80.7619 220.008 80.7065 219.785 80.7058H148.391C148.036 80.7061 147.695 80.8471 147.444 81.0979C147.192 81.3487 147.051 81.6888 147.051 82.0435V209.465C147.052 209.82 147.193 210.159 147.444 210.41C147.696 210.661 148.036 210.802 148.391 210.803H219.785C220.141 210.802 220.481 210.661 220.732 210.41C220.983 210.159 221.125 209.82 221.126 209.465V82.0435C221.127 81.9475 221.116 81.8517 221.094 81.7581Z" fill="white"/>
<path d="M214.488 149.91C214.692 149.91 214.888 149.991 215.032 150.135C215.176 150.279 215.258 150.475 215.258 150.678V152.215C215.258 152.418 215.176 152.614 215.032 152.758C214.888 152.902 214.692 152.983 214.488 152.983H153.689C153.588 152.983 153.488 152.963 153.395 152.924C153.301 152.886 153.216 152.829 153.145 152.758C153.073 152.687 153.017 152.602 152.978 152.509C152.939 152.415 152.919 152.316 152.919 152.215V150.678C152.919 150.577 152.939 150.478 152.978 150.384C153.017 150.291 153.073 150.206 153.145 150.135C153.216 150.064 153.301 150.007 153.395 149.969C153.488 149.93 153.588 149.91 153.689 149.91H214.488Z" fill="#E6E6E6"/>
<path d="M214.488 157.208C214.692 157.208 214.888 157.289 215.032 157.433C215.176 157.577 215.258 157.772 215.258 157.976V159.512C215.258 159.716 215.176 159.911 215.032 160.055C214.888 160.2 214.692 160.28 214.488 160.28H153.689C153.588 160.28 153.488 160.261 153.395 160.222C153.301 160.183 153.216 160.127 153.145 160.055C153.073 159.984 153.017 159.899 152.978 159.806C152.939 159.713 152.919 159.613 152.919 159.512V157.976C152.919 157.875 152.939 157.775 152.978 157.682C153.017 157.589 153.073 157.504 153.145 157.433C153.216 157.361 153.301 157.305 153.395 157.266C153.488 157.228 153.588 157.208 153.689 157.208H214.488Z" fill="#E6E6E6"/>
<path d="M214.488 164.505C214.692 164.505 214.888 164.586 215.032 164.73C215.176 164.874 215.258 165.07 215.258 165.274V166.81C215.258 167.014 215.176 167.209 215.032 167.353C214.888 167.497 214.692 167.578 214.488 167.578H153.689C153.485 167.578 153.289 167.497 153.145 167.353C153.001 167.209 152.919 167.014 152.919 166.81V165.274C152.919 165.07 153.001 164.874 153.145 164.73C153.289 164.586 153.485 164.505 153.689 164.505H214.488Z" fill="#6C63FF"/>
<path d="M214.488 171.963C214.692 171.963 214.888 172.044 215.032 172.188C215.176 172.332 215.258 172.527 215.258 172.731V174.267C215.258 174.471 215.176 174.666 215.032 174.81C214.888 174.954 214.692 175.035 214.488 175.035H153.689C153.588 175.035 153.488 175.016 153.395 174.977C153.301 174.938 153.216 174.882 153.145 174.81C153.073 174.739 153.017 174.654 152.978 174.561C152.939 174.468 152.919 174.368 152.919 174.267V172.731C152.919 172.63 152.939 172.53 152.978 172.437C153.017 172.344 153.073 172.259 153.145 172.188C153.216 172.116 153.301 172.06 153.395 172.021C153.488 171.983 153.588 171.963 153.689 171.963H214.488Z" fill="#E6E6E6"/>
<path d="M214.488 179.26C214.692 179.26 214.888 179.341 215.032 179.485C215.176 179.629 215.258 179.825 215.258 180.028V181.565C215.258 181.769 215.176 181.964 215.032 182.108C214.888 182.252 214.692 182.333 214.488 182.333H153.689C153.588 182.333 153.488 182.313 153.395 182.274C153.301 182.236 153.216 182.179 153.145 182.108C153.073 182.037 153.017 181.952 152.978 181.859C152.939 181.766 152.919 181.666 152.919 181.565V180.028C152.919 179.928 152.939 179.828 152.978 179.734C153.017 179.641 153.073 179.557 153.145 179.485C153.216 179.414 153.301 179.357 153.395 179.319C153.488 179.28 153.588 179.26 153.689 179.26H214.488Z" fill="#E6E6E6"/>
<path d="M214.488 186.558C214.692 186.558 214.888 186.639 215.032 186.783C215.176 186.927 215.258 187.123 215.258 187.326V188.863C215.258 189.066 215.176 189.262 215.032 189.406C214.888 189.55 214.692 189.631 214.488 189.631H153.689C153.485 189.631 153.289 189.55 153.145 189.406C153.001 189.262 152.919 189.066 152.919 188.863V187.326C152.919 187.123 153.001 186.927 153.145 186.783C153.289 186.639 153.485 186.558 153.689 186.558H214.488Z" fill="#E6E6E6"/>
<path d="M154.129 92.9465C153.892 92.9468 153.665 93.0408 153.498 93.208C153.33 93.3752 153.236 93.6019 153.236 93.8383V135.268C153.236 135.505 153.33 135.731 153.498 135.899C153.665 136.066 153.892 136.16 154.129 136.16H214.048C214.285 136.16 214.512 136.066 214.679 135.899C214.847 135.731 214.941 135.505 214.941 135.268V93.8383C214.941 93.6019 214.847 93.3752 214.679 93.208C214.512 93.0408 214.285 92.9468 214.048 92.9465H154.129Z" fill="#6C63FF"/>
<path d="M247.183 60.7713C248.811 61.4619 250.43 62.2276 251.994 63.0473L252.41 62.2578C250.824 61.4268 249.183 60.6506 247.533 59.9504L247.183 60.7713Z" fill="#CCCCCC"/>
<path d="M265.683 71.4456L265.087 72.1105C266.405 73.2866 267.689 74.5322 268.904 75.8121L269.552 75.1991C268.321 73.9012 267.019 72.6382 265.683 71.4456Z" fill="#CCCCCC"/>
<path d="M256.604 65.7079C258.096 66.6533 259.568 67.6717 260.977 68.7353L261.517 68.0238C260.088 66.9459 258.595 65.9132 257.082 64.9548L256.604 65.7079Z" fill="#CCCCCC"/>
<path d="M237.091 57.4266C238.811 57.8454 240.531 58.3395 242.205 58.8944L242.487 58.0479C240.79 57.4856 239.046 56.9848 237.303 56.5601L237.091 57.4266Z" fill="#CCCCCC"/>
<path d="M286.114 108.465L285.232 108.606C285.511 110.344 285.718 112.118 285.847 113.879L286.738 113.814C286.607 112.027 286.397 110.227 286.114 108.465Z" fill="#CCCCCC"/>
<path d="M282.643 98.3193C283.22 99.9847 283.731 101.696 284.161 103.407L285.028 103.189C284.591 101.454 284.073 99.7175 283.487 98.0276L282.643 98.3193Z" fill="#CCCCCC"/>
<path d="M278.316 88.6324C279.172 90.1769 279.97 91.7754 280.689 93.3831L281.505 93.0199C280.776 91.389 279.966 89.7676 279.098 88.2009L278.316 88.6324Z" fill="#CCCCCC"/>
<path d="M272.399 79.8177C273.503 81.1952 274.561 82.6363 275.545 84.1004L276.287 83.604C275.29 82.119 274.216 80.6576 273.097 79.2607L272.399 79.8177Z" fill="#CCCCCC"/>
<path d="M229.06 51.1997C227.033 52.8074 223.815 54.2658 221.238 55.0881C223.729 56.1423 226.801 57.8871 228.672 59.6723L227.474 55.824C228.948 55.9605 230.424 56.1436 231.875 56.3757L232.016 55.4953C230.531 55.2575 229.02 55.0706 227.511 54.9319L229.06 51.1997Z" fill="#CCCCCC"/>
<path d="M86.8152 93.02L87.631 93.3831C88.3493 91.7761 89.1476 90.1776 90.004 88.6325L89.2222 88.2009C88.3534 89.7683 87.5437 91.3897 86.8152 93.02Z" fill="#CCCCCC"/>
<path d="M83.2922 103.189L84.1586 103.407C84.5883 101.699 85.0992 99.9868 85.6772 98.3189L84.8326 98.0276C84.2465 99.7197 83.728 101.456 83.2922 103.189Z" fill="#CCCCCC"/>
<path d="M81.5813 113.814L82.4726 113.879C82.6012 112.117 82.8082 110.344 83.0879 108.606L82.2058 108.465C81.9222 110.227 81.7122 112.027 81.5813 113.814Z" fill="#CCCCCC"/>
<path d="M92.0327 83.6038L92.7748 84.1002C93.7574 82.6371 94.8158 81.1962 95.9208 79.8174L95.2232 79.2605C94.1025 80.6585 93.0291 82.1198 92.0327 83.6038Z" fill="#CCCCCC"/>
<path d="M115.91 62.2578L116.325 63.0473C117.891 62.2269 119.51 61.4612 121.136 60.7713L120.786 59.9504C119.138 60.65 117.497 61.4261 115.91 62.2578Z" fill="#CCCCCC"/>
<path d="M125.833 58.048L126.114 58.8945C127.788 58.3395 129.509 57.8455 131.229 57.4266L131.016 56.5601C129.274 56.9848 127.53 57.4856 125.833 58.048Z" fill="#CCCCCC"/>
<path d="M98.7668 75.1988L99.4155 75.8119C100.629 74.5328 101.913 73.2872 103.232 72.1102L102.637 71.4453C101.3 72.6389 99.9975 73.9016 98.7668 75.1988Z" fill="#CCCCCC"/>
<path d="M106.803 68.0236L107.342 68.7351C108.752 67.6713 110.224 66.6528 111.717 65.7079L111.238 64.9548C109.725 65.9128 108.233 66.9452 106.803 68.0236Z" fill="#CCCCCC"/>
<path d="M147.082 55.088C144.505 54.2648 141.287 52.8064 139.26 51.1987L140.809 54.9318C139.3 55.0705 137.788 55.2574 136.303 55.4952L136.445 56.3756C137.896 56.1435 139.372 55.9604 140.846 55.8239L139.647 59.6714C141.519 57.8862 144.59 56.1413 147.082 55.088Z" fill="#CCCCCC"/>
<path d="M184.088 68.9105C181.349 68.9105 178.672 68.0998 176.395 66.581C174.117 65.0622 172.342 62.9034 171.294 60.3776C170.246 57.8519 169.972 55.0726 170.506 52.3913C171.04 49.71 172.359 47.2471 174.296 45.3139C176.233 43.3808 178.7 42.0643 181.387 41.531C184.073 40.9976 186.857 41.2714 189.388 42.3176C191.918 43.3638 194.081 45.1354 195.603 47.4086C197.124 49.6817 197.937 52.3541 197.937 55.088C197.932 58.7527 196.472 62.2661 193.876 64.8574C191.28 67.4487 187.76 68.9064 184.088 68.9105ZM184.088 42.1572C181.526 42.1572 179.021 42.9155 176.891 44.3364C174.761 45.7572 173.1 47.7768 172.12 50.1395C171.139 52.5023 170.882 55.1023 171.382 57.6106C171.882 60.1189 173.116 62.423 174.928 64.2314C176.74 66.0398 179.048 67.2713 181.561 67.7703C184.074 68.2692 186.679 68.0131 189.046 67.0344C191.413 66.0557 193.436 64.3984 194.86 62.2719C196.283 60.1454 197.043 57.6454 197.043 55.0879C197.039 51.6597 195.673 48.3729 193.244 45.9488C190.816 43.5246 187.523 42.161 184.088 42.1572V42.1572Z" fill="#6C63FF"/>
<path d="M185.429 48.3997H182.748V61.7763H185.429V48.3997Z" fill="#6C63FF"/>
<path d="M190.789 56.4258V53.7505H177.388V56.4258H190.789Z" fill="#6C63FF"/>
</g>
<defs>
<clipPath id="clip0">
<rect width="371" height="241" fill="white"/>
</clipPath>
</defs>
</svg>
