<svg width="396" height="310" viewBox="0 0 396 310" fill="none" xmlns="http://www.w3.org/2000/svg">
<path d="M394.84 213.161C392.361 234.34 387.21 251.343 380.14 264.904C370.732 282.972 354.64 290.252 340.265 297.869C336.111 300.066 331.792 301.939 327.348 303.47C301.189 312.523 271.912 310.121 248.914 305.341C232.784 301.986 216.411 299.922 199.951 299.169C195.256 298.957 190.557 298.853 185.853 298.854C178.599 298.864 47.9944 301.336 16.1957 237.14C8.34478 221.304 2.96347 201.96 1.03015 178.38C-4.44055 111.717 25.6271 67.9353 64.4111 39.3178C137.779 -14.8165 238.344 -12.5463 310.63 43.014C358.78 80.023 403.862 136.034 394.84 213.161Z" fill="#162B4D"/>
<path d="M300.65 153.177C280.296 138.004 248.418 123.654 213.188 113.808C181.112 104.843 149.826 100.514 125.086 101.62L124.957 98.7509C149.991 97.633 181.602 101.998 213.966 111.043C249.523 120.981 281.747 135.5 302.374 150.877L300.65 153.177Z" fill="#F2F2F2"/>
<path d="M298.536 164.863C298.554 178.306 295.728 191.602 290.242 203.881C289.784 204.909 289.307 205.928 288.811 206.937C280.904 223.087 268.607 236.697 253.32 246.217C238.033 255.736 220.371 260.782 202.349 260.778C149.227 260.778 106.161 217.835 106.161 164.863C106.161 162.644 106.237 160.441 106.389 158.256C106.461 157.144 106.554 156.04 106.668 154.942C111.647 106.631 152.587 68.9487 202.349 68.9487C255.471 68.9487 298.536 111.892 298.536 164.863Z" fill="#D1CEFF"/>
<path opacity="0.1" d="M290.242 203.881C289.784 204.909 289.307 205.928 288.811 206.937C286 207.241 283.041 207.462 279.935 207.6C277.363 207.715 274.717 207.773 272.012 207.773C248.392 207.773 219.965 203.425 190.924 195.309C158.56 186.263 129.281 173.611 108.477 159.68C107.768 159.206 107.072 158.732 106.389 158.256C106.461 157.144 106.554 156.04 106.668 154.942C107.771 155.726 108.909 156.511 110.081 157.297C130.64 171.061 159.626 183.578 191.702 192.544C220.489 200.59 248.648 204.901 271.998 204.901C274.668 204.901 277.27 204.844 279.805 204.731C283.497 204.565 286.976 204.281 290.242 203.881Z" fill="black"/>
<path d="M272.013 205.476C248.393 205.476 219.965 201.128 190.925 193.012C158.562 183.966 129.281 171.313 108.477 157.383C87.2382 143.162 77.2791 129.149 80.4337 117.926C83.5882 106.703 99.4003 99.8931 124.957 98.751L125.086 101.62C113.151 102.153 103.425 103.922 96.1773 106.877C88.9473 109.825 84.5833 113.803 83.2067 118.701C81.83 123.599 83.4848 129.259 88.125 135.525C92.7765 141.806 100.164 148.358 110.082 154.999C130.639 168.764 159.626 181.281 191.703 190.247C220.491 198.292 248.647 202.604 271.999 202.604C274.667 202.604 277.269 202.548 279.805 202.435C291.74 201.901 301.466 200.133 308.714 197.177C315.944 194.229 320.308 190.251 321.685 185.353C324.156 176.559 316.686 165.132 300.649 153.177L302.374 150.877C310.626 157.029 316.735 163.093 320.531 168.9C324.6 175.126 325.921 180.923 324.458 186.129C321.303 197.352 305.491 204.161 279.934 205.304C277.363 205.419 274.718 205.476 272.013 205.476Z" fill="#F2F2F2"/>
<path d="M204.893 51.6503C205.502 51.6503 205.995 51.1583 205.995 50.5512C205.995 49.9442 205.502 49.4521 204.893 49.4521C204.285 49.4521 203.791 49.9442 203.791 50.5512C203.791 51.1583 204.285 51.6503 204.893 51.6503Z" fill="#F2F2F2"/>
<path d="M58.6667 98.5517C59.2754 98.5517 59.7689 98.0596 59.7689 97.4526C59.7689 96.8456 59.2754 96.3535 58.6667 96.3535C58.0579 96.3535 57.5645 96.8456 57.5645 97.4526C57.5645 98.0596 58.0579 98.5517 58.6667 98.5517Z" fill="#F2F2F2"/>
<path d="M54.6247 172.557C55.2334 172.557 55.7269 172.065 55.7269 171.458C55.7269 170.851 55.2334 170.359 54.6247 170.359C54.0159 170.359 53.5225 170.851 53.5225 171.458C53.5225 172.065 54.0159 172.557 54.6247 172.557Z" fill="#F2F2F2"/>
<path d="M279.477 57.8785C279.883 57.8785 280.212 57.5505 280.212 57.1458C280.212 56.7411 279.883 56.4131 279.477 56.4131C279.071 56.4131 278.742 56.7411 278.742 57.1458C278.742 57.5505 279.071 57.8785 279.477 57.8785Z" fill="#F2F2F2"/>
<path d="M368.021 161.2C368.427 161.2 368.756 160.872 368.756 160.467C368.756 160.062 368.427 159.734 368.021 159.734C367.615 159.734 367.286 160.062 367.286 160.467C367.286 160.872 367.615 161.2 368.021 161.2Z" fill="#F2F2F2"/>
<path d="M327.606 127.494C328.012 127.494 328.341 127.166 328.341 126.762C328.341 126.357 328.012 126.029 327.606 126.029C327.2 126.029 326.871 126.357 326.871 126.762C326.871 127.166 327.2 127.494 327.606 127.494Z" fill="#F2F2F2"/>
<path d="M125.166 74.3649C125.572 74.3649 125.901 74.0368 125.901 73.6321C125.901 73.2275 125.572 72.8994 125.166 72.8994C124.761 72.8994 124.432 73.2275 124.432 73.6321C124.432 74.0368 124.761 74.3649 125.166 74.3649Z" fill="#F2F2F2"/>
<path d="M325.035 151.308C325.44 151.308 325.769 150.98 325.769 150.576C325.769 150.171 325.44 149.843 325.035 149.843C324.629 149.843 324.3 150.171 324.3 150.576C324.3 150.98 324.629 151.308 325.035 151.308Z" fill="#F2F2F2"/>
<path d="M63.4428 224.947C63.8486 224.947 64.1776 224.619 64.1776 224.214C64.1776 223.809 63.8486 223.481 63.4428 223.481C63.037 223.481 62.708 223.809 62.708 224.214C62.708 224.619 63.037 224.947 63.4428 224.947Z" fill="#F2F2F2"/>
<path d="M107.164 254.989C107.569 254.989 107.898 254.661 107.898 254.256C107.898 253.851 107.569 253.523 107.164 253.523C106.758 253.523 106.429 253.851 106.429 254.256C106.429 254.661 106.758 254.989 107.164 254.989Z" fill="#F2F2F2"/>
<path d="M170.724 19.8718H169.71V18.8608H169.167V19.8718H168.152V20.4145H169.167V21.4255H169.71V20.4145H170.724V19.8718Z" fill="#F2F2F2"/>
<path d="M280.212 268.999H279.197V267.988H278.653V268.999H277.64V269.541H278.653V270.552H279.197V269.541H280.212V268.999Z" fill="#F2F2F2"/>
<path d="M348.181 253.978H347.167V252.967H346.623V253.978H345.609V254.52H346.623V255.531H347.167V254.52H348.181V253.978Z" fill="#F2F2F2"/>
<path d="M203.791 97.8192C208.255 97.8192 211.874 94.2106 211.874 89.7592C211.874 85.3078 208.255 81.6992 203.791 81.6992C199.327 81.6992 195.708 85.3078 195.708 89.7592C195.708 94.2106 199.327 97.8192 203.791 97.8192Z" fill="#3F3D56"/>
<path d="M141.7 156.804C146.164 156.804 149.783 153.195 149.783 148.744C149.783 144.292 146.164 140.684 141.7 140.684C137.236 140.684 133.617 144.292 133.617 148.744C133.617 153.195 137.236 156.804 141.7 156.804Z" fill="#3F3D56"/>
<path d="M230.979 237.77C235.443 237.77 239.062 234.161 239.062 229.71C239.062 225.258 235.443 221.65 230.979 221.65C226.515 221.65 222.896 225.258 222.896 229.71C222.896 234.161 226.515 237.77 230.979 237.77Z" fill="#3F3D56"/>
<path d="M203.791 169.26C208.255 169.26 211.874 165.651 211.874 161.2C211.874 156.748 208.255 153.14 203.791 153.14C199.327 153.14 195.708 156.748 195.708 161.2C195.708 165.651 199.327 169.26 203.791 169.26Z" fill="#3F3D56"/>
<path d="M145.741 213.59C150.205 213.59 153.824 209.981 153.824 205.53C153.824 201.078 150.205 197.47 145.741 197.47C141.277 197.47 137.658 201.078 137.658 205.53C137.658 209.981 141.277 213.59 145.741 213.59Z" fill="#3F3D56"/>
<path d="M247.144 126.029C251.609 126.029 255.227 122.42 255.227 117.969C255.227 113.517 251.609 109.909 247.144 109.909C242.68 109.909 239.062 113.517 239.062 117.969C239.062 122.42 242.68 126.029 247.144 126.029Z" fill="#3F3D56"/>
<path d="M273.966 180.617C278.43 180.617 282.049 177.008 282.049 172.557C282.049 168.106 278.43 164.497 273.966 164.497C269.502 164.497 265.883 168.106 265.883 172.557C265.883 177.008 269.502 180.617 273.966 180.617Z" fill="#3F3D56"/>
<path d="M203.791 136.653C209.676 136.653 214.446 131.897 214.446 126.029C214.446 120.161 209.676 115.404 203.791 115.404C197.907 115.404 193.137 120.161 193.137 126.029C193.137 131.897 197.907 136.653 203.791 136.653Z" fill="white"/>
<path d="M203.791 110.642C199.796 110.642 195.965 112.224 193.14 115.041C190.315 117.858 188.728 121.679 188.728 125.662C188.728 133.958 203.791 161.2 203.791 161.2C203.791 161.2 218.855 133.958 218.855 125.662C218.855 121.679 217.268 117.858 214.443 115.041C211.618 112.224 207.786 110.642 203.791 110.642V110.642ZM203.791 132.99C202.411 132.99 201.061 132.581 199.913 131.817C198.765 131.052 197.87 129.965 197.342 128.693C196.814 127.421 196.675 126.021 196.945 124.671C197.214 123.321 197.879 122.08 198.855 121.107C199.831 120.133 201.075 119.47 202.429 119.202C203.783 118.933 205.187 119.071 206.463 119.598C207.738 120.125 208.828 121.017 209.595 122.162C210.363 123.306 210.772 124.652 210.772 126.029C210.772 126.943 210.591 127.848 210.241 128.693C209.89 129.537 209.376 130.305 208.727 130.951C208.079 131.597 207.31 132.11 206.463 132.46C205.616 132.81 204.708 132.99 203.791 132.99V132.99Z" fill="#FF6F61"/>
<path d="M145.742 182.083C151.626 182.083 156.396 177.326 156.396 171.458C156.396 165.59 151.626 160.833 145.742 160.833C139.857 160.833 135.087 165.59 135.087 171.458C135.087 177.326 139.857 182.083 145.742 182.083Z" fill="white"/>
<path d="M145.741 156.071C141.746 156.071 137.915 157.653 135.09 160.47C132.265 163.287 130.678 167.108 130.678 171.092C130.678 179.388 145.741 206.629 145.741 206.629C145.741 206.629 160.805 179.388 160.805 171.092C160.805 167.108 159.218 163.287 156.393 160.47C153.568 157.653 149.736 156.071 145.741 156.071ZM145.741 178.419C144.361 178.419 143.011 178.011 141.863 177.246C140.715 176.481 139.82 175.394 139.292 174.122C138.764 172.85 138.625 171.45 138.895 170.1C139.164 168.75 139.829 167.509 140.805 166.536C141.782 165.562 143.025 164.899 144.379 164.631C145.734 164.362 147.137 164.5 148.413 165.027C149.688 165.554 150.779 166.446 151.546 167.591C152.313 168.735 152.722 170.081 152.722 171.458C152.722 172.372 152.541 173.277 152.191 174.122C151.84 174.966 151.326 175.734 150.677 176.38C150.029 177.027 149.26 177.539 148.413 177.889C147.566 178.239 146.658 178.419 145.741 178.419V178.419Z" fill="#FF6F61"/>
<path d="M273.965 149.11C279.85 149.11 284.62 144.353 284.62 138.485C284.62 132.618 279.85 127.861 273.965 127.861C268.081 127.861 263.311 132.618 263.311 138.485C263.311 144.353 268.081 149.11 273.965 149.11Z" fill="white"/>
<path d="M273.965 123.098C269.97 123.098 266.138 124.681 263.313 127.498C260.488 130.315 258.901 134.135 258.901 138.119C258.901 146.415 273.965 173.656 273.965 173.656C273.965 173.656 289.029 146.415 289.029 138.119C289.029 134.135 287.442 130.315 284.617 127.498C281.792 124.681 277.96 123.098 273.965 123.098ZM273.965 145.446C272.584 145.446 271.235 145.038 270.087 144.273C268.939 143.508 268.044 142.421 267.516 141.149C266.987 139.877 266.849 138.478 267.118 137.127C267.388 135.777 268.053 134.537 269.029 133.563C270.005 132.59 271.249 131.927 272.603 131.658C273.957 131.39 275.361 131.527 276.636 132.054C277.912 132.581 279.002 133.473 279.769 134.618C280.536 135.763 280.946 137.109 280.946 138.485C280.946 140.332 280.21 142.102 278.901 143.407C277.592 144.713 275.816 145.446 273.965 145.446Z" fill="#FF6F61"/>
<path d="M203.791 65.2124C209.676 65.2124 214.446 60.4557 214.446 54.5879C214.446 48.7201 209.676 43.9634 203.791 43.9634C197.907 43.9634 193.137 48.7201 193.137 54.5879C193.137 60.4557 197.907 65.2124 203.791 65.2124Z" fill="white"/>
<path d="M203.791 39.2007C199.796 39.2007 195.965 40.7832 193.14 43.6002C190.315 46.4172 188.728 50.2378 188.728 54.2216C188.728 62.5174 203.791 89.7588 203.791 89.7588C203.791 89.7588 218.855 62.5174 218.855 54.2216C218.855 50.2378 217.268 46.4172 214.443 43.6002C211.618 40.7832 207.786 39.2007 203.791 39.2007V39.2007ZM203.791 61.5488C202.411 61.5488 201.061 61.1406 199.913 60.3757C198.765 59.6108 197.87 58.5237 197.342 57.2517C196.814 55.9798 196.675 54.5802 196.945 53.2299C197.214 51.8796 197.879 50.6393 198.855 49.6658C199.831 48.6923 201.075 48.0293 202.429 47.7608C203.783 47.4922 205.187 47.63 206.463 48.1569C207.738 48.6837 208.828 49.5759 209.595 50.7206C210.363 51.8654 210.772 53.2112 210.772 54.5879C210.772 56.4341 210.036 58.2046 208.727 59.51C207.418 60.8155 205.643 61.5488 203.791 61.5488V61.5488Z" fill="#FF6F61"/>
<path d="M230.979 206.262C236.863 206.262 241.634 201.506 241.634 195.638C241.634 189.77 236.863 185.013 230.979 185.013C225.095 185.013 220.324 189.77 220.324 195.638C220.324 201.506 225.095 206.262 230.979 206.262Z" fill="white"/>
<path d="M230.98 180.25C226.984 180.25 223.153 181.833 220.328 184.65C217.503 187.467 215.916 191.288 215.916 195.271C215.916 203.567 230.98 230.809 230.98 230.809C230.98 230.809 246.043 203.567 246.043 195.271C246.043 193.299 245.654 191.346 244.897 189.523C244.14 187.701 243.03 186.045 241.631 184.65C240.232 183.255 238.572 182.149 236.744 181.394C234.917 180.639 232.958 180.25 230.98 180.25V180.25ZM230.98 202.599C229.599 202.599 228.249 202.19 227.101 201.426C225.953 200.661 225.059 199.573 224.53 198.302C224.002 197.03 223.864 195.63 224.133 194.28C224.402 192.929 225.067 191.689 226.043 190.716C227.02 189.742 228.264 189.079 229.618 188.811C230.972 188.542 232.375 188.68 233.651 189.207C234.927 189.734 236.017 190.626 236.784 191.77C237.551 192.915 237.96 194.261 237.96 195.638C237.96 197.484 237.225 199.254 235.916 200.56C234.607 201.865 232.831 202.599 230.98 202.599V202.599Z" fill="#FF6F61"/>
<path d="M141.7 124.564C147.584 124.564 152.354 119.807 152.354 113.939C152.354 108.071 147.584 103.314 141.7 103.314C135.815 103.314 131.045 108.071 131.045 113.939C131.045 119.807 135.815 124.564 141.7 124.564Z" fill="white"/>
<path d="M141.699 98.5518C137.704 98.5518 133.873 100.134 131.048 102.951C128.223 105.768 126.636 109.589 126.636 113.573C126.636 121.868 141.699 149.11 141.699 149.11C141.699 149.11 156.763 121.868 156.763 113.573C156.763 111.6 156.373 109.647 155.616 107.824C154.859 106.002 153.75 104.346 152.351 102.951C150.952 101.556 149.292 100.45 147.464 99.6951C145.636 98.9403 143.678 98.5518 141.699 98.5518V98.5518ZM141.699 120.9C140.319 120.9 138.969 120.492 137.821 119.727C136.673 118.962 135.778 117.875 135.25 116.603C134.722 115.331 134.583 113.931 134.853 112.581C135.122 111.231 135.787 109.99 136.763 109.017C137.74 108.043 138.983 107.38 140.337 107.112C141.692 106.843 143.095 106.981 144.371 107.508C145.646 108.035 146.737 108.927 147.504 110.072C148.271 111.216 148.68 112.562 148.68 113.939C148.68 115.785 147.945 117.556 146.635 118.861C145.326 120.167 143.551 120.9 141.699 120.9V120.9Z" fill="#FF6F61"/>
<path d="M247.145 94.8882C253.029 94.8882 257.8 90.1315 257.8 84.2637C257.8 78.3959 253.029 73.6392 247.145 73.6392C241.261 73.6392 236.49 78.3959 236.49 84.2637C236.49 90.1315 241.261 94.8882 247.145 94.8882Z" fill="white"/>
<path d="M247.145 68.8765C243.15 68.8765 239.318 70.459 236.493 73.276C233.668 76.093 232.081 79.9136 232.081 83.8974C232.081 92.1932 247.145 119.435 247.145 119.435C247.145 119.435 262.208 92.1932 262.208 83.8974C262.208 79.9136 260.621 76.093 257.796 73.276C254.971 70.459 251.14 68.8765 247.145 68.8765V68.8765ZM247.145 91.2246C245.764 91.2246 244.414 90.8164 243.266 90.0515C242.118 89.2866 241.224 88.1995 240.695 86.9275C240.167 85.6556 240.029 84.256 240.298 82.9057C240.567 81.5554 241.232 80.3151 242.209 79.3416C243.185 78.3681 244.429 77.7051 245.783 77.4365C247.137 77.168 248.54 77.3058 249.816 77.8327C251.092 78.3595 252.182 79.2517 252.949 80.3964C253.716 81.5411 254.125 82.887 254.125 84.2637C254.125 86.1098 253.39 87.8804 252.081 89.1858C250.772 90.4912 248.996 91.2246 247.145 91.2246V91.2246Z" fill="#FF6F61"/>
</svg>
