<svg width="432" height="273" viewBox="0 0 432 273" fill="none" xmlns="http://www.w3.org/2000/svg">
<path d="M216 272.265C335.294 272.265 432 265.455 432 257.055C432 248.655 335.294 241.845 216 241.845C96.7065 241.845 0 248.655 0 257.055C0 265.455 96.7065 272.265 216 272.265Z" fill="#1C1F4B"/>
<g clip-path="url(#clip0)">
<path d="M210.093 57.5998H121.779C121.345 57.5993 120.93 57.427 120.623 57.1207C120.317 56.8145 120.144 56.3992 120.144 55.9661V34.0831C120.144 33.65 120.317 33.2348 120.623 32.9285C120.93 32.6223 121.345 32.45 121.779 32.4495H210.093C210.527 32.45 210.942 32.6223 211.249 32.9285C211.556 33.2348 211.728 33.65 211.729 34.0831V55.9661C211.728 56.3992 211.556 56.8145 211.249 57.1207C210.942 57.427 210.527 57.5993 210.093 57.5998ZM121.779 33.1029C121.519 33.1032 121.269 33.2066 121.085 33.3903C120.901 33.5741 120.798 33.8232 120.798 34.0831V55.9661C120.798 56.226 120.901 56.4751 121.085 56.6589C121.269 56.8426 121.519 56.946 121.779 56.9463H210.093C210.353 56.946 210.603 56.8426 210.787 56.6589C210.971 56.4751 211.074 56.226 211.074 55.9661V34.0831C211.074 33.8232 210.971 33.5741 210.787 33.3903C210.603 33.2066 210.353 33.1032 210.093 33.1029L121.779 33.1029Z" fill="#3F3D56"/>
<path d="M135.501 50.8396C139.18 50.8396 142.163 47.8602 142.163 44.1849C142.163 40.5097 139.18 37.5303 135.501 37.5303C131.822 37.5303 128.839 40.5097 128.839 44.1849C128.839 47.8602 131.822 50.8396 135.501 50.8396Z" fill="#D1CEFF"/>
<path d="M150.887 39.7485C150.592 39.7485 150.31 39.8654 150.102 40.0734C149.893 40.2814 149.776 40.5635 149.776 40.8576C149.776 41.1518 149.893 41.4339 150.102 41.6419C150.31 41.8499 150.592 41.9667 150.887 41.9667H203.23C203.525 41.9667 203.807 41.8499 204.016 41.6419C204.224 41.4339 204.341 41.1518 204.341 40.8576C204.341 40.5635 204.224 40.2814 204.016 40.0734C203.807 39.8654 203.525 39.7485 203.23 39.7485H150.887Z" fill="#E6E6E6"/>
<path d="M150.887 46.4031C150.592 46.4031 150.31 46.5199 150.102 46.7279C149.893 46.9359 149.776 47.218 149.776 47.5122C149.776 47.8063 149.893 48.0884 150.102 48.2964C150.31 48.5044 150.592 48.6213 150.887 48.6213H173.41C173.556 48.6216 173.701 48.5931 173.836 48.5375C173.971 48.4818 174.093 48.4002 174.197 48.2972C174.3 48.1941 174.382 48.0718 174.438 47.9371C174.494 47.8024 174.523 47.658 174.523 47.5122C174.523 47.3664 174.494 47.222 174.438 47.0873C174.382 46.9526 174.3 46.8302 174.197 46.7272C174.093 46.6242 173.971 46.5425 173.836 46.4869C173.701 46.4313 173.556 46.4028 173.41 46.4031H150.887Z" fill="#E6E6E6"/>
<path d="M171.752 135.603H132.502C132.068 135.602 131.652 135.43 131.346 135.124C131.039 134.817 130.867 134.402 130.866 133.969V93.1356C130.867 92.7025 131.039 92.2873 131.346 91.981C131.652 91.6747 132.068 91.5025 132.502 91.502H171.752C172.186 91.5025 172.602 91.6747 172.908 91.981C173.215 92.2873 173.387 92.7025 173.388 93.1356V133.969C173.387 134.402 173.215 134.817 172.908 135.124C172.602 135.43 172.186 135.602 171.752 135.603ZM132.502 92.1554C132.241 92.1557 131.992 92.2591 131.808 92.4428C131.624 92.6266 131.521 92.8757 131.52 93.1356V133.969C131.521 134.229 131.624 134.478 131.808 134.662C131.992 134.846 132.241 134.949 132.502 134.949H171.752C172.013 134.949 172.262 134.846 172.446 134.662C172.63 134.478 172.733 134.229 172.734 133.969V93.1356C172.733 92.8757 172.63 92.6266 172.446 92.4428C172.262 92.2591 172.013 92.1557 171.752 92.1554H132.502Z" fill="#3F3D56"/>
<path d="M140.865 99.9224C140.571 99.9224 140.288 100.039 140.08 100.247C139.872 100.455 139.755 100.737 139.755 101.031C139.755 101.326 139.872 101.608 140.08 101.816C140.288 102.024 140.571 102.141 140.865 102.141H163.389C163.683 102.141 163.966 102.024 164.174 101.816C164.382 101.608 164.499 101.326 164.499 101.031C164.499 100.737 164.382 100.455 164.174 100.247C163.966 100.039 163.683 99.9224 163.389 99.9224H140.865Z" fill="#E6E6E6"/>
<path d="M140.865 106.457C140.719 106.457 140.575 106.485 140.44 106.541C140.305 106.596 140.182 106.678 140.079 106.781C139.976 106.884 139.894 107.007 139.838 107.141C139.782 107.276 139.753 107.42 139.753 107.566C139.753 107.712 139.782 107.856 139.838 107.991C139.894 108.126 139.976 108.248 140.079 108.351C140.182 108.454 140.305 108.536 140.44 108.591C140.575 108.647 140.719 108.676 140.865 108.675H163.389C163.683 108.675 163.966 108.558 164.174 108.35C164.382 108.142 164.499 107.86 164.499 107.566C164.499 107.272 164.382 106.99 164.174 106.782C163.966 106.574 163.683 106.457 163.389 106.457H140.865Z" fill="#E6E6E6"/>
<path d="M152.127 127.182C150.744 127.182 149.393 126.772 148.244 126.005C147.094 125.238 146.199 124.148 145.67 122.872C145.141 121.597 145.002 120.193 145.272 118.839C145.542 117.484 146.207 116.24 147.185 115.264C148.162 114.288 149.407 113.623 150.763 113.353C152.119 113.084 153.524 113.222 154.801 113.751C156.078 114.279 157.17 115.174 157.938 116.322C158.706 117.47 159.116 118.82 159.116 120.201C159.114 122.051 158.377 123.826 157.066 125.135C155.756 126.444 153.98 127.18 152.127 127.182Z" fill="#D1CEFF"/>
<path d="M236.051 0H275.302C275.736 0.000508575 276.152 0.172788 276.458 0.479048C276.765 0.785307 276.937 1.20054 276.938 1.63366V42.467C276.937 42.9002 276.765 43.3154 276.458 43.6216C276.152 43.9279 275.736 44.1002 275.302 44.1007H236.051C235.618 44.1002 235.202 43.9279 234.896 43.6216C234.589 43.3154 234.417 42.9002 234.416 42.467V1.63366C234.417 1.20054 234.589 0.785307 234.896 0.479048C235.202 0.172788 235.618 0.000508575 236.051 0ZM275.302 43.4472C275.562 43.4469 275.812 43.3436 275.996 43.1598C276.18 42.9761 276.283 42.7269 276.284 42.467V1.63366C276.283 1.37378 276.18 1.12463 275.996 0.940866C275.812 0.757106 275.562 0.653745 275.302 0.653461H236.051C235.791 0.653745 235.542 0.757106 235.358 0.940866C235.174 1.12463 235.07 1.37378 235.07 1.63366V42.467C235.07 42.7269 235.174 42.9761 235.358 43.1598C235.542 43.3436 235.791 43.4469 236.051 43.4472H275.302Z" fill="#3F3D56"/>
<path d="M266.939 35.6801C267.233 35.6801 267.516 35.5633 267.724 35.3553C267.932 35.1473 268.049 34.8652 268.049 34.571C268.049 34.2769 267.932 33.9948 267.724 33.7868C267.516 33.5788 267.233 33.4619 266.939 33.4619H244.415C244.121 33.4619 243.838 33.5788 243.63 33.7868C243.422 33.9948 243.305 34.2769 243.305 34.571C243.305 34.8652 243.422 35.1473 243.63 35.3553C243.838 35.5633 244.121 35.6801 244.415 35.6801H266.939Z" fill="#E6E6E6"/>
<path d="M266.939 29.1455C267.233 29.1455 267.516 29.0286 267.724 28.8206C267.932 28.6126 268.049 28.3305 268.049 28.0364C268.049 27.7422 267.932 27.4601 267.724 27.2521C267.516 27.0441 267.233 26.9272 266.939 26.9272H244.415C244.121 26.9272 243.838 27.0441 243.63 27.2521C243.422 27.4601 243.305 27.7422 243.305 28.0364C243.305 28.3305 243.422 28.6126 243.63 28.8206C243.838 29.0286 244.121 29.1455 244.415 29.1455H266.939Z" fill="#E6E6E6"/>
<path d="M255.676 8.42065C257.059 8.42065 258.41 8.8301 259.559 9.59722C260.709 10.3643 261.604 11.4547 262.133 12.7303C262.662 14.006 262.801 15.4097 262.531 16.764C262.261 18.1182 261.596 19.3622 260.618 20.3385C259.641 21.3149 258.396 21.9798 257.04 22.2492C255.684 22.5185 254.279 22.3803 253.002 21.8519C251.725 21.3235 250.633 20.4287 249.865 19.2806C249.097 18.1325 248.687 16.7828 248.688 15.402C248.69 13.5511 249.427 11.7765 250.737 10.4677C252.047 9.15895 253.824 8.42275 255.676 8.42065Z" fill="#D1CEFF"/>
<path d="M120.648 84.478C127.594 79.1044 135.708 75.4401 144.335 73.7816C153.031 72.1264 161.998 72.5867 170.478 75.1234C174.74 76.3913 178.836 78.164 182.677 80.4037C186.591 82.6892 190.128 85.5026 193.53 88.4815C196.977 91.4991 200.311 94.6511 203.909 97.492C214.183 105.695 226.936 110.176 240.088 110.205C241.175 110.207 242.26 110.177 243.345 110.115C243.934 110.083 243.937 109.165 243.345 109.197C229.939 109.935 216.7 105.939 205.947 97.9087C202.217 95.1229 198.812 91.9377 195.335 88.8511C191.965 85.8586 188.504 82.9476 184.68 80.5434C175.327 74.6573 164.445 71.6526 153.393 71.9043C142.341 72.1559 131.608 75.6527 122.533 81.9584C121.67 82.5577 120.827 83.1841 119.998 83.8289C119.532 84.1913 120.186 84.8369 120.648 84.478V84.478Z" fill="#3F3D56"/>
<path d="M120.16 88.9156C122.798 88.9156 124.936 86.7794 124.936 84.1444C124.936 81.5094 122.798 79.3733 120.16 79.3733C117.522 79.3733 115.384 81.5094 115.384 84.1444C115.384 86.7794 117.522 88.9156 120.16 88.9156Z" fill="#3F3D56"/>
<path d="M297.85 152.263C300.487 152.263 302.626 150.127 302.626 147.492C302.626 144.857 300.487 142.721 297.85 142.721C295.212 142.721 293.073 144.857 293.073 147.492C293.073 150.127 295.212 152.263 297.85 152.263Z" fill="#3F3D56"/>
<path d="M322.872 120.313H244.936C244.503 120.313 244.087 120.14 243.78 119.834C243.474 119.528 243.301 119.113 243.301 118.68V78.173C243.301 77.7399 243.474 77.3246 243.78 77.0184C244.087 76.7121 244.503 76.5398 244.936 76.5393H322.872C323.305 76.5398 323.721 76.7121 324.028 77.0184C324.334 77.3246 324.507 77.7398 324.507 78.173V118.68C324.507 119.113 324.334 119.528 324.028 119.834C323.721 120.141 323.305 120.313 322.872 120.313ZM244.936 77.1928C244.676 77.1931 244.427 77.2964 244.243 77.4802C244.059 77.664 243.955 77.9131 243.955 78.173V118.68C243.955 118.939 244.059 119.189 244.243 119.372C244.427 119.556 244.676 119.66 244.936 119.66H322.872C323.132 119.66 323.381 119.556 323.565 119.372C323.749 119.189 323.853 118.939 323.853 118.68V78.173C323.853 77.9131 323.749 77.664 323.565 77.4802C323.381 77.2964 323.132 77.1931 322.872 77.1928H244.936Z" fill="#3F3D56"/>
<path d="M258.004 97.5434C261.683 97.5434 264.666 94.564 264.666 90.8888C264.666 87.2135 261.683 84.2341 258.004 84.2341C254.324 84.2341 251.342 87.2135 251.342 90.8888C251.342 94.564 254.324 97.5434 258.004 97.5434Z" fill="#D1CEFF"/>
<path d="M273.39 86.4522C273.244 86.4519 273.099 86.4804 272.964 86.536C272.829 86.5916 272.707 86.6733 272.603 86.7763C272.5 86.8793 272.418 87.0017 272.362 87.1363C272.306 87.271 272.277 87.4154 272.277 87.5613C272.277 87.7071 272.306 87.8515 272.362 87.9862C272.418 88.1209 272.5 88.2432 272.603 88.3462C272.707 88.4492 272.829 88.5309 272.964 88.5865C273.099 88.6421 273.244 88.6706 273.39 88.6704H315.355C315.649 88.6704 315.932 88.5535 316.14 88.3455C316.348 88.1375 316.465 87.8554 316.465 87.5613C316.465 87.2671 316.348 86.985 316.14 86.777C315.932 86.569 315.649 86.4522 315.355 86.4522H273.39Z" fill="#E6E6E6"/>
<path d="M273.39 93.1069C273.244 93.1067 273.099 93.1352 272.964 93.1908C272.829 93.2464 272.707 93.3281 272.603 93.4311C272.5 93.5341 272.418 93.6564 272.362 93.7911C272.306 93.9258 272.277 94.0702 272.277 94.216C272.277 94.3619 272.306 94.5063 272.362 94.641C272.418 94.7756 272.5 94.898 272.603 95.001C272.707 95.104 272.829 95.1857 272.964 95.2413C273.099 95.2969 273.244 95.3254 273.39 95.3252H295.913C296.208 95.3252 296.49 95.2083 296.698 95.0003C296.907 94.7923 297.024 94.5102 297.024 94.216C297.024 93.9219 296.907 93.6398 296.698 93.4318C296.49 93.2238 296.208 93.1069 295.913 93.1069H273.39Z" fill="#E6E6E6"/>
<path d="M252.894 103.746C252.05 103.746 251.362 104.243 251.362 104.855C251.362 105.466 252.05 105.964 252.894 105.964H314.734C315.578 105.964 316.266 105.466 316.266 104.855C316.266 104.243 315.578 103.746 314.734 103.746H252.894Z" fill="#E6E6E6"/>
<path d="M252.894 110.4C252.05 110.4 251.362 110.898 251.362 111.51C251.362 112.121 252.05 112.619 252.894 112.619H314.734C315.578 112.619 316.266 112.121 316.266 111.51C316.266 110.898 315.578 110.4 314.734 110.4H252.894Z" fill="#E6E6E6"/>
<path d="M238.671 151.934C243.068 150.028 247.977 151.69 252.121 153.446C254.256 154.35 256.367 155.315 258.576 156.029C260.434 156.629 262.337 157.079 264.267 157.377C268.139 157.969 272.078 157.993 275.958 157.448C279.857 156.905 283.657 155.801 287.24 154.171C290.802 152.558 294.096 150.407 297.004 147.794C297.374 147.46 297.737 147.119 298.092 146.77C298.516 146.356 297.865 145.707 297.442 146.121C294.642 148.847 291.427 151.114 287.917 152.837C284.421 154.554 280.693 155.751 276.85 156.389C272.995 157.038 269.064 157.106 265.188 156.59C263.255 156.329 261.346 155.914 259.478 155.35C257.333 154.653 255.229 153.837 253.176 152.905C248.993 151.111 244.346 149.353 239.749 150.591C239.223 150.737 238.707 150.92 238.207 151.141C237.666 151.376 238.134 152.167 238.671 151.934V151.934Z" fill="#3F3D56"/>
<path d="M236.972 163.194H200.151L208.817 148.202C208.972 147.933 209.195 147.71 209.464 147.555C209.733 147.399 210.038 147.318 210.349 147.318C210.66 147.318 210.965 147.399 211.234 147.555C211.503 147.71 211.726 147.933 211.881 148.202L215.583 154.606L221.877 143.716C222.071 143.38 222.351 143.101 222.688 142.906C223.025 142.712 223.407 142.61 223.796 142.61C224.185 142.61 224.567 142.712 224.903 142.906C225.24 143.101 225.52 143.38 225.714 143.716L236.972 163.194Z" fill="#D1CEFF"/>
<path d="M237.007 163.19H197.757C197.323 163.189 196.907 163.017 196.601 162.711C196.294 162.405 196.122 161.989 196.121 161.556V139.673C196.122 139.24 196.294 138.825 196.601 138.519C196.907 138.212 197.323 138.04 197.757 138.04H237.007C237.441 138.04 237.857 138.212 238.163 138.519C238.47 138.825 238.642 139.24 238.643 139.673V161.556C238.642 161.989 238.47 162.405 238.163 162.711C237.857 163.017 237.441 163.189 237.007 163.19ZM197.757 138.693C197.496 138.693 197.247 138.797 197.063 138.98C196.879 139.164 196.776 139.413 196.775 139.673V161.556C196.776 161.816 196.879 162.065 197.063 162.249C197.247 162.433 197.496 162.536 197.757 162.536H237.007C237.268 162.536 237.517 162.433 237.701 162.249C237.885 162.065 237.988 161.816 237.989 161.556V139.673C237.988 139.413 237.885 139.164 237.701 138.98C237.517 138.797 237.268 138.693 237.007 138.693H197.757Z" fill="#3F3D56"/>
<path d="M313.993 143.931L306.997 147.479C304.499 148.746 302.09 148.53 301.167 145.888C300.947 145.26 300.866 144.591 300.929 143.928C300.992 143.266 301.198 142.624 301.532 142.048C301.866 141.472 302.321 140.975 302.865 140.591C303.409 140.207 304.03 139.945 304.685 139.823L311.335 138.583L339.813 129.145L357.064 116.926L363.388 126.99L343.455 137.734L313.993 143.931Z" fill="#FFB8B8"/>
<path d="M346.652 261.728L341.299 260.837L341.894 250.737H347.544L346.652 261.728Z" fill="#FFB8B8"/>
<path d="M398.605 251.863L393.424 253.477L389.398 244.194L394.442 241.65L398.605 251.863Z" fill="#FFB8B8"/>
<path d="M395.72 243.013L389.178 245.686L357.953 204.693L348.139 252.816L341.597 251.628C337.4 210.139 333.978 167.821 338.177 147.806L362.414 146.767L373.417 181.819L378.77 205.584L395.72 243.013Z" fill="#2F2E41"/>
<path d="M346.357 269.896C345.378 270.105 344.358 269.997 343.445 269.587L340.266 268.157C337.599 268.021 335.784 268.551 334.299 266.616C333.88 266.063 333.617 265.408 333.538 264.719C333.458 264.03 333.564 263.332 333.845 262.698C334.124 262.062 334.567 261.511 335.129 261.102C335.691 260.694 336.352 260.442 337.044 260.373L341.412 257.624L341.641 259.684C343.637 260.814 346.007 260.326 348.518 259.227L349.889 264.019C350.066 264.637 350.114 265.285 350.03 265.922C349.945 266.559 349.731 267.172 349.4 267.723C349.069 268.274 348.628 268.751 348.104 269.125C347.581 269.499 346.986 269.761 346.357 269.896Z" fill="#2F2E41"/>
<path d="M400.725 260.065C399.867 260.581 398.867 260.809 397.87 260.717L394.398 260.397C391.832 261.132 390.287 262.223 388.254 260.874C387.678 260.487 387.216 259.952 386.917 259.327C386.617 258.701 386.491 258.007 386.551 257.316C386.607 256.623 386.848 255.959 387.246 255.39C387.645 254.821 388.189 254.368 388.821 254.079L392.058 250.062L392.945 251.937C395.2 252.358 397.283 251.127 399.3 249.273L402.155 253.361C402.523 253.888 402.779 254.485 402.906 255.115C403.034 255.745 403.03 256.394 402.896 257.023C402.762 257.652 402.5 258.246 402.127 258.769C401.753 259.292 401.276 259.733 400.725 260.065Z" fill="#2F2E41"/>
<path d="M353.492 104.585C359.405 104.585 364.198 99.7967 364.198 93.8906C364.198 87.9844 359.405 83.1965 353.492 83.1965C347.579 83.1965 342.786 87.9844 342.786 93.8906C342.786 99.7967 347.579 104.585 353.492 104.585Z" fill="#FFB8B8"/>
<path d="M366.577 116.467L352.599 113.496L350.815 101.911L360.629 99.8318L366.577 116.467Z" fill="#FFB8B8"/>
<path d="M362.711 148.252H337.73L343.361 134.131C342.952 129.272 345.013 125.698 347.964 122.587L351.707 113.199C357.756 109.223 362.316 109.52 367.171 114.685C372.928 122.827 368.943 135.067 362.711 148.252Z" fill="#4046BB"/>
<path d="M351.41 178.255L350.699 186.061C350.446 188.847 348.981 190.771 346.251 190.147C345.601 189.999 344.991 189.712 344.463 189.306C343.934 188.901 343.5 188.386 343.189 187.797C342.878 187.208 342.698 186.559 342.662 185.894C342.626 185.23 342.734 184.565 342.978 183.946L345.462 177.661L352.599 148.549L351.41 127.458H363.305L361.818 150.034L351.41 178.255Z" fill="#FFB8B8"/>
<path d="M364.197 128.052H350.518L351.477 119.138C351.54 117.596 352.177 116.134 353.265 115.038C354.352 113.942 355.81 113.291 357.353 113.214C358.17 113.173 358.988 113.295 359.758 113.572C360.528 113.849 361.236 114.275 361.84 114.827C362.444 115.379 362.932 116.045 363.277 116.787C363.622 117.528 363.815 118.331 363.848 119.148L364.197 128.052Z" fill="#4046BB"/>
<path d="M366.742 82.8947C368.964 82.8947 370.766 81.095 370.766 78.8751C370.766 76.6551 368.964 74.8555 366.742 74.8555C364.519 74.8555 362.718 76.6551 362.718 78.8751C362.718 81.095 364.519 82.8947 366.742 82.8947Z" fill="#2F2E41"/>
<path d="M362.595 77.891C362.661 76.8711 363.114 75.9148 363.861 75.2168C364.608 74.5188 365.594 74.1316 366.617 74.1341C366.534 74.1236 366.451 74.1108 366.367 74.1053C365.302 74.0376 364.254 74.3949 363.453 75.0988C362.652 75.8026 362.164 76.7954 362.095 77.8589C362.027 78.9223 362.384 79.9694 363.088 80.77C363.792 81.5705 364.786 82.059 365.85 82.128C365.935 82.1334 366.018 82.1312 366.102 82.1314C365.087 82.003 364.159 81.4929 363.508 80.7051C362.856 79.9172 362.53 78.9109 362.595 77.891Z" fill="#2F2E41"/>
<path d="M362.573 79.6076C358.984 76.6337 348.691 80.4133 348.026 82.4127C343.173 83.0734 339.499 85.9017 339.499 90.9307V90.9307C342.384 92.1114 345.666 91.9659 349.213 90.9307C354.868 95.5338 355.255 101.32 351.816 107.967L356.047 108.051L361.291 100.395L361.542 108.161L371.24 107.967V96.8378C371.271 93.1375 370.418 89.4831 368.753 86.178C367.241 83.2452 364.896 81.5327 362.573 79.6076Z" fill="#2F2E41"/>
<path d="M353.541 99.27C354.604 99.27 355.466 98.0652 355.466 96.579C355.466 95.0928 354.604 93.8879 353.541 93.8879C352.479 93.8879 351.617 95.0928 351.617 96.579C351.617 98.0652 352.479 99.27 353.541 99.27Z" fill="#FFB8B8"/>
<path d="M111.422 99.9937C111.422 99.9937 112.58 79.9662 118.594 84.517C124.607 89.0677 115.968 101.851 115.968 101.851L111.422 99.9937Z" fill="#FFB9B9"/>
<path d="M89.0486 159.4C89.0486 159.4 102.407 174.38 94.933 175.41C87.4594 176.439 84.5195 161.298 84.5195 161.298L89.0486 159.4Z" fill="#FFB9B9"/>
<path d="M71.6175 88.4934C73.2941 88.9341 74.803 89.8598 75.9546 91.1543C77.1062 92.4487 77.8493 94.0542 78.0905 95.7691L82.3395 125.979L88.2962 150.077C88.2962 150.077 91.2745 152.755 90.0832 154.242C88.8919 155.73 91.5723 161.978 91.5723 161.978L84.1265 164.358C84.1265 164.358 83.233 158.11 81.7439 157.813C80.4351 157.551 65.7849 118.458 62.2536 108.987C61.7667 107.681 61.4912 106.939 61.4912 106.939C61.4912 106.939 62.0869 87.0058 71.6175 88.4934Z" fill="#575A89"/>
<path d="M72.9776 246.036L77.551 254.132C81.0927 261.685 77.9454 263.057 69.2617 259.313L67.2822 249.753L72.9776 246.036Z" fill="#FFB9B9"/>
<path d="M75.2851 256.796C75.2851 256.796 77.4562 253.265 78.2414 253.856C79.0267 254.447 82.2655 257.008 82.2655 257.008L86.4843 261.044C86.4843 261.044 100.738 262.55 91.6808 267.538C82.6239 272.527 77.6187 268.39 77.6187 268.39C77.6187 268.39 64.9336 269.049 65.1382 265.514C65.3428 261.979 69.4339 256.386 69.4339 256.386C69.4339 256.386 74.59 259.839 75.2851 256.796Z" fill="#2F2E41"/>
<path d="M52.6826 154.525L56.9702 206.348C56.9702 206.348 57.1131 237.327 61.6866 243.323C66.26 249.319 66.4029 252.317 66.4029 252.317L75.8356 247.463C75.8356 247.463 70.9763 239.375 71.9768 238.137C72.5935 237.352 73.0323 236.442 73.2631 235.471L70.6905 203.492L75.5498 147.815L52.6826 154.525Z" fill="#2F2E41"/>
<path d="M64.4023 246.036L60.4006 256.6L51.3252 252.81L56.1131 244.894L64.4023 246.036Z" fill="#FFB9B9"/>
<path d="M57.7263 253.042C57.7263 253.042 61.13 250.917 61.5555 251.767C61.981 252.617 63.6828 256.23 63.6828 256.23L65.5974 261.542C65.5974 261.542 77.2978 268.98 67.2993 269.405C57.3008 269.83 54.748 264.092 54.748 264.092C54.748 264.092 43.4731 259.204 45.175 256.229C46.8768 253.254 52.8334 250.169 52.8334 250.169C52.8334 250.169 55.8117 255.379 57.7263 253.042Z" fill="#2F2E41"/>
<path d="M88.9842 154.667L91.271 202.35C91.271 202.35 70.4047 245.465 68.118 246.607C67.4366 246.958 66.8326 247.443 66.3416 248.031C65.8507 248.62 65.4827 249.3 65.2596 250.033L52.6826 246.893L58.3994 237.756L70.9764 207.204C70.9764 207.204 72.9772 206.348 73.5489 203.492C74.1206 200.637 75.264 200.637 72.4056 200.066C69.5472 199.495 69.5472 196.64 69.5472 196.64L60.1144 153.24L88.9842 154.667Z" fill="#2F2E41"/>
<path d="M89.9805 70.2676C90.992 64.0414 86.759 58.175 80.526 57.1646C74.2929 56.1542 68.4201 60.3825 67.4086 66.6087C66.3971 72.835 70.63 78.7014 76.8631 79.7118C83.0961 80.7222 88.969 76.4939 89.9805 70.2676Z" fill="#FFB9B9"/>
<path d="M68.5469 69.1521C68.5469 69.1521 67.6894 83.714 66.5461 85.1416C65.4027 86.5692 78.5513 86.2837 78.5513 86.2837C78.5513 86.2837 77.6938 74.0061 78.5513 72.864C79.4088 71.7218 68.5469 69.1521 68.5469 69.1521Z" fill="#FFB9B9"/>
<path d="M89.8411 157.808C89.8411 157.808 57.5411 154.954 51.54 157.808C51.54 157.808 53.7492 149.622 53.1784 148.767C52.7632 148.141 53.9086 124.822 53.5491 111.37C53.3452 103.78 51.5919 96.3672 56.6886 90.7318C58.4233 88.8176 60.3582 87.2106 62.4006 86.4257C62.4006 86.4257 61.8298 81.0014 64.6876 80.7163C64.6876 80.7163 75.5519 79.5721 79.5514 83.0008C80.8302 84.0893 81.6345 87.4069 81.7198 90.2653C79.7404 99.9884 80.441 110.778 82.2572 121.971C82.3684 122.682 82.4908 123.396 82.6131 124.111C84.5405 135.211 87.454 146.656 89.8411 157.808Z" fill="#FF6F61"/>
<path d="M72.7211 71.8037C73.6881 71.7461 74.6322 72.0725 75.5925 72.1998C79.0279 72.6554 82.6018 70.1652 83.3604 66.7874C83.4212 66.3376 83.5554 65.9007 83.7577 65.4943C84.2864 64.632 85.4905 64.4676 86.4832 64.6659C87.4758 64.8642 88.4168 65.3282 89.4277 65.3812C90.9886 65.463 92.487 64.5032 93.3189 63.1813C94.105 61.8177 94.4393 60.2406 94.274 58.6757L93.5257 59.4602C93.2216 58.8177 93.1042 58.1028 93.1869 57.3969C92.7903 57.2914 92.3734 57.2893 91.9758 57.391C91.5783 57.4926 91.2135 57.6944 90.9164 57.9772C90.2567 58.0473 90.7546 56.7547 90.2644 56.308C90.026 56.1617 89.7419 56.1086 89.4667 56.1589C88.063 56.1724 86.9276 55.1 85.8215 54.2367C83.905 52.7442 81.6639 51.7231 79.2793 51.2558C77.6943 50.947 76.0089 50.8974 74.5057 51.4869C73.2923 52.031 72.1972 52.807 71.2821 53.7712C68.9288 56.0315 66.8449 58.6874 65.8659 61.7985C65.07 64.3467 65.0474 67.0733 65.8011 69.6344C66.1956 70.9644 67.3845 75.5193 69.125 75.6254C71.312 75.7587 69.999 71.9659 72.7211 71.8037Z" fill="#2F2E41"/>
<path d="M77.4539 89.895L81.5502 90.3334C81.5502 90.3334 85.5713 98.1261 85.2793 99.7515C84.9873 101.377 84.3513 100.39 86.1612 102.991C87.971 105.591 93.1066 112.313 93.7425 113.3C94.3785 114.287 111.716 101.073 110.638 97.1144C110.638 97.1144 116.113 101.038 118.459 101.561C118.459 101.561 100.592 124.968 98.102 127.963C95.6122 130.959 93.6082 130.344 90.1865 128.568C86.7647 126.791 69.4541 109.075 69.4541 109.075L77.4539 89.895Z" fill="#FF6F61"/>
<path opacity="0.1" d="M82.6133 124.111L68.376 109.889L71.9789 108.715L82.2575 121.971C82.3687 122.682 82.491 123.396 82.6133 124.111Z" fill="black"/>
</g>
<path fill-rule="evenodd" clip-rule="evenodd" d="M157.56 111.7C157.56 112.048 156.882 112.336 155.993 112.391L155.902 113.282L155.926 113.574C157.174 113.727 158.263 114.392 158.978 115.353L158.979 115.352L160.184 114.497C160.17 114.453 160.156 114.408 160.144 114.362C159.961 113.68 160.116 113.047 160.489 112.947C160.863 112.846 161.313 113.318 161.496 114C161.679 114.682 161.524 115.316 161.151 115.416C160.938 115.473 160.699 115.344 160.5 115.096L159.217 115.672L159.201 115.683C159.62 116.365 159.861 117.168 159.861 118.027C159.861 118.589 159.758 119.127 159.569 119.623L160.321 119.968C160.745 119.506 161.274 119.31 161.552 119.53C161.855 119.77 161.746 120.413 161.308 120.967C160.87 121.52 160.269 121.775 159.966 121.535C159.722 121.342 159.745 120.889 159.991 120.43L159.403 120.006C158.745 121.342 157.443 122.303 155.902 122.484L155.902 122.489L156.007 123.61C156.889 123.667 157.56 123.954 157.56 124.3C157.56 124.687 156.722 125 155.689 125C154.655 125 153.817 124.687 153.817 124.3C153.817 123.951 154.502 123.661 155.397 123.608L155.506 122.535L155.504 122.513C155.461 122.514 155.418 122.515 155.374 122.515C154.009 122.515 152.787 121.906 151.964 120.945L151.471 121.173L150.466 121.886C150.607 122.514 150.459 123.077 150.112 123.176C149.74 123.283 149.281 122.819 149.087 122.14C148.892 121.462 149.036 120.825 149.407 120.719C149.687 120.638 150.017 120.882 150.246 121.297L151.234 120.853L151.665 120.554C151.174 119.834 150.886 118.965 150.886 118.027C150.886 117.209 151.105 116.442 151.488 115.782L150.89 115.276C150.671 115.641 150.372 115.851 150.111 115.781C149.738 115.681 149.583 115.047 149.766 114.365C149.948 113.683 150.399 113.211 150.773 113.311C151.122 113.405 151.28 113.966 151.149 114.597L151.775 115.346C152.593 114.25 153.901 113.54 155.374 113.54C155.412 113.54 155.45 113.541 155.487 113.542L155.507 113.328L155.419 112.393C154.513 112.344 153.817 112.052 153.817 111.7C153.817 111.313 154.655 111 155.689 111C156.722 111 157.56 111.313 157.56 111.7Z" fill="#6C63FF"/>
<path fill-rule="evenodd" clip-rule="evenodd" d="M256.419 81.9641C256.419 82.3468 255.673 82.6643 254.694 82.7242L254.595 83.7051L254.621 84.0259C255.994 84.1945 257.193 84.9267 257.979 85.984L257.981 85.9831L259.307 85.042C259.29 84.9937 259.276 84.9441 259.262 84.8936C259.061 84.1432 259.231 83.4457 259.642 83.3356C260.053 83.2255 260.549 83.7445 260.75 84.4949C260.951 85.2452 260.781 85.9427 260.37 86.0528C260.136 86.1156 259.873 85.9737 259.654 85.7008L258.242 86.335L258.225 86.3472C258.685 87.0978 258.951 87.9811 258.951 88.9265C258.951 89.5448 258.837 90.1367 258.63 90.6822L259.457 91.0614C259.923 90.5533 260.505 90.3374 260.811 90.5795C261.145 90.8434 261.025 91.5512 260.543 92.1605C260.061 92.7698 259.4 93.0499 259.066 92.7861C258.798 92.5739 258.823 92.0746 259.094 91.5703L258.446 91.1032C257.723 92.5733 256.29 93.6312 254.595 93.8302L254.594 93.8356L254.71 95.0692C255.681 95.1315 256.419 95.4477 256.419 95.8283C256.419 96.2537 255.497 96.5986 254.36 96.5986C253.222 96.5986 252.3 96.2537 252.3 95.8283C252.3 95.4437 253.054 95.125 254.039 95.0674L254.159 93.8859L254.157 93.862C254.109 93.8634 254.061 93.8641 254.013 93.8641C252.512 93.8641 251.167 93.1938 250.261 92.1362L249.719 92.3878L248.613 93.1725C248.769 93.8628 248.606 94.4821 248.224 94.5917C247.815 94.7089 247.31 94.1987 247.096 93.4519C246.881 92.7052 247.039 92.0049 247.448 91.8876C247.756 91.7993 248.119 92.0672 248.371 92.524L249.458 92.0359L249.932 91.7065C249.392 90.9147 249.076 89.9575 249.076 88.9265C249.076 88.0264 249.317 87.1825 249.737 86.4559L249.079 85.8989C248.838 86.3009 248.51 86.5313 248.222 86.4544C247.811 86.3443 247.641 85.6468 247.842 84.8964C248.043 84.1461 248.54 83.6271 248.95 83.7372C249.335 83.8403 249.509 84.4579 249.364 85.1518L250.054 85.9763C250.954 84.77 252.392 83.9889 254.013 83.9889C254.055 83.9889 254.097 83.9894 254.138 83.9904L254.159 83.7553L254.062 82.7264C253.066 82.6725 252.3 82.3517 252.3 81.9641C252.3 81.5387 253.222 81.1938 254.36 81.1938C255.497 81.1938 256.419 81.5387 256.419 81.9641Z" fill="#6C63FF"/>
<path fill-rule="evenodd" clip-rule="evenodd" d="M209.728 146.55C209.728 146.824 209.195 147.05 208.496 147.093L208.425 147.794L208.444 148.023C209.425 148.143 210.281 148.666 210.842 149.422L210.844 149.421L211.791 148.749C211.779 148.714 211.768 148.679 211.759 148.643C211.615 148.107 211.737 147.608 212.03 147.53C212.324 147.451 212.678 147.822 212.822 148.358C212.965 148.894 212.844 149.392 212.55 149.471C212.383 149.515 212.196 149.414 212.039 149.219L211.03 149.672L211.018 149.681C211.347 150.217 211.536 150.848 211.536 151.523C211.536 151.965 211.455 152.388 211.307 152.777L211.898 153.048C212.231 152.685 212.646 152.531 212.865 152.704C213.103 152.893 213.018 153.398 212.674 153.833C212.329 154.269 211.857 154.469 211.619 154.28C211.427 154.129 211.445 153.772 211.639 153.412L211.176 153.078C210.66 154.128 209.636 154.884 208.425 155.026L208.425 155.03L208.508 155.911C209.201 155.956 209.728 156.181 209.728 156.453C209.728 156.757 209.069 157.003 208.257 157.003C207.444 157.003 206.786 156.757 206.786 156.453C206.786 156.179 207.324 155.951 208.028 155.91L208.114 155.066L208.112 155.049C208.078 155.05 208.044 155.05 208.009 155.05C206.937 155.05 205.976 154.571 205.329 153.816L204.942 153.996L204.152 154.556C204.263 155.049 204.147 155.492 203.874 155.57C203.582 155.654 203.221 155.289 203.068 154.756C202.915 154.223 203.028 153.722 203.32 153.639C203.54 153.575 203.799 153.767 203.979 154.093L204.756 153.744L205.094 153.509C204.708 152.944 204.483 152.26 204.483 151.523C204.483 150.88 204.655 150.278 204.955 149.759L204.485 149.361C204.313 149.648 204.078 149.812 203.873 149.757C203.58 149.679 203.458 149.181 203.602 148.645C203.745 148.109 204.1 147.738 204.393 147.817C204.668 147.89 204.792 148.331 204.689 148.827L205.181 149.416C205.824 148.554 206.852 147.996 208.009 147.996C208.039 147.996 208.069 147.997 208.099 147.998L208.114 147.83L208.045 147.095C207.333 147.056 206.786 146.827 206.786 146.55C206.786 146.246 207.444 146 208.257 146C209.069 146 209.728 146.246 209.728 146.55Z" fill="#6C63FF"/>
<path fill-rule="evenodd" clip-rule="evenodd" d="M255.419 5.77023C255.419 6.15297 254.673 6.4705 253.694 6.53033L253.595 7.51125L253.621 7.83208C254.994 8.00067 256.193 8.73288 256.979 9.79019L256.981 9.78921L258.307 8.84816C258.29 8.79981 258.276 8.75029 258.262 8.69972C258.061 7.94939 258.231 7.25188 258.642 7.14178C259.053 7.03168 259.549 7.55069 259.75 8.30102C259.951 9.05134 259.781 9.74885 259.37 9.85895C259.136 9.92176 258.873 9.77981 258.654 9.50697L257.242 10.1411L257.225 10.1533C257.685 10.904 257.951 11.7873 257.951 12.7326C257.951 13.351 257.837 13.9428 257.63 14.4883L258.457 14.8676C258.923 14.3595 259.505 14.1435 259.811 14.3857C260.145 14.6495 260.025 15.3574 259.543 15.9667C259.061 16.576 258.4 16.8561 258.066 16.5922C257.798 16.3801 257.823 15.8808 258.094 15.3765L257.446 14.9094C256.723 16.3794 255.29 17.4374 253.595 17.6363L253.594 17.6418L253.71 18.8754C254.681 18.9377 255.419 19.2538 255.419 19.6345C255.419 20.0599 254.497 20.4047 253.36 20.4047C252.222 20.4047 251.3 20.0599 251.3 19.6345C251.3 19.2499 252.054 18.9311 253.039 18.8735L253.159 17.692L253.157 17.6682C253.109 17.6695 253.061 17.6702 253.013 17.6702C251.512 17.6702 250.167 17 249.261 15.9423L248.719 16.194L247.613 16.9786C247.769 17.669 247.606 18.2882 247.224 18.3978C246.815 18.5151 246.31 18.0048 246.096 17.2581C245.881 16.5114 246.039 15.811 246.448 15.6938C246.756 15.6054 247.119 15.8733 247.371 16.3302L248.458 15.8421L248.932 15.5127C248.392 14.7208 248.076 13.7636 248.076 12.7326C248.076 11.8325 248.317 10.9887 248.737 10.262L248.079 9.70503C247.838 10.107 247.51 10.3375 247.222 10.2605C246.811 10.1504 246.641 9.45293 246.842 8.7026C247.043 7.95228 247.54 7.43327 247.95 7.54337C248.335 7.64642 248.509 8.26406 248.364 8.95796L249.054 9.78247C249.954 8.57613 251.392 7.79503 253.013 7.79503C253.055 7.79503 253.097 7.79554 253.138 7.79657L253.159 7.56148L253.062 6.53251C252.066 6.47866 251.3 6.15789 251.3 5.77023C251.3 5.34484 252.222 5 253.36 5C254.497 5 255.419 5.34484 255.419 5.77023Z" fill="#6C63FF"/>
<path fill-rule="evenodd" clip-rule="evenodd" d="M139.949 40.65C139.949 40.973 139.319 41.2409 138.493 41.2914L138.409 42.1192L138.432 42.39C139.59 42.5323 140.602 43.1502 141.265 44.0424L141.267 44.0416L142.385 43.2474C142.372 43.2066 142.359 43.1648 142.348 43.1221C142.178 42.4889 142.322 41.9003 142.669 41.8074C143.015 41.7145 143.434 42.1525 143.604 42.7857C143.773 43.4189 143.63 44.0075 143.283 44.1004C143.085 44.1534 142.864 44.0336 142.679 43.8034L141.487 44.3386L141.472 44.3489C141.861 44.9824 142.085 45.7278 142.085 46.5256C142.085 47.0474 141.989 47.5468 141.814 48.0071L142.512 48.3272C142.906 47.8984 143.397 47.7162 143.655 47.9205C143.937 48.1432 143.835 48.7406 143.429 49.2548C143.022 49.769 142.464 50.0053 142.183 49.7827C141.956 49.6036 141.977 49.1823 142.206 48.7567L141.66 48.3625C141.049 49.603 139.84 50.4959 138.409 50.6638L138.409 50.6684L138.507 51.7094C139.326 51.762 139.949 52.0288 139.949 52.35C139.949 52.709 139.171 53 138.211 53C137.251 53 136.473 52.709 136.473 52.35C136.473 52.0255 137.109 51.7565 137.94 51.7079L138.041 50.7108L138.04 50.6907C137.999 50.6918 137.959 50.6924 137.918 50.6924C136.651 50.6924 135.516 50.1268 134.752 49.2342L134.294 49.4466L133.362 50.1087C133.493 50.6913 133.355 51.2139 133.033 51.3064C132.687 51.4053 132.261 50.9747 132.081 50.3445C131.9 49.7144 132.033 49.1234 132.378 49.0244C132.638 48.9499 132.944 49.176 133.157 49.5615L134.074 49.1496L134.474 48.8716C134.018 48.2034 133.752 47.3956 133.752 46.5256C133.752 45.7659 133.955 45.0538 134.31 44.4406L133.754 43.9705C133.551 44.3098 133.274 44.5043 133.031 44.4393C132.685 44.3464 132.541 43.7578 132.711 43.1246C132.88 42.4914 133.299 42.0534 133.646 42.1463C133.97 42.2333 134.117 42.7544 133.995 43.34L134.577 44.0359C135.337 43.0179 136.551 42.3587 137.918 42.3587C137.954 42.3587 137.989 42.3592 138.024 42.36L138.042 42.1616L137.96 41.2933C137.119 41.2478 136.473 40.9771 136.473 40.65C136.473 40.291 137.251 40 138.211 40C139.171 40 139.949 40.291 139.949 40.65Z" fill="#6C63FF"/>
<defs>
<clipPath id="clip0">
<rect width="358" height="270" fill="white" transform="translate(45)"/>
</clipPath>
</defs>
</svg>
