<svg width="333" height="333" viewBox="0 0 333 333" fill="none" xmlns="http://www.w3.org/2000/svg">
<g filter="url(#filter0_d)">
<path d="M329 162.5C329 130.361 319.47 98.9428 301.614 72.2198C283.758 45.4968 258.379 24.6688 228.686 12.3696C198.993 0.0703355 166.32 -3.14771 134.798 3.12239C103.276 9.39249 74.3212 24.8691 51.5951 47.5951L166.5 162.5H329Z" fill="#162B4D"/>
<path d="M51.5951 47.5952C21.1205 78.0698 4 119.402 4 162.5C4 205.598 21.1205 246.93 51.5951 277.405L166.5 162.5L51.5951 47.5952Z" fill="#FF6F61"/>
<path d="M51.5951 277.405C82.0698 307.88 123.402 325 166.5 325C209.598 325 250.93 307.88 281.405 277.405L166.5 162.5L51.5951 277.405Z" fill="#D1CEFF"/>
<path d="M281.405 277.405C296.494 262.315 308.464 244.401 316.63 224.686C324.797 204.971 329 183.84 329 162.5H166.5L281.405 277.405Z" fill="#6C63FF"/>
</g>
<path d="M156.82 90C156.687 90 156.58 89.96 156.5 89.88C156.433 89.8 156.4 89.6867 156.4 89.54V75.54C156.4 75.2867 156.513 75.16 156.74 75.16H160.88C161.027 75.16 161.133 75.18 161.2 75.22C161.267 75.26 161.32 75.34 161.36 75.46L164.38 83.84C164.42 83.9467 164.467 84 164.52 84C164.573 84 164.62 83.9467 164.66 83.84L167.54 75.62C167.62 75.3133 167.767 75.16 167.98 75.16H172.28C172.48 75.16 172.58 75.28 172.58 75.52V89.52C172.58 89.6933 172.54 89.82 172.46 89.9C172.38 89.9667 172.253 90 172.08 90H169.5C169.34 90 169.227 89.9733 169.16 89.92C169.107 89.8533 169.08 89.7467 169.08 89.6V79.64C169.08 79.5467 169.06 79.5 169.02 79.5C168.98 79.5 168.94 79.5533 168.9 79.66L165.4 89.68C165.333 89.8933 165.193 90 164.98 90H163.32C163.08 90 162.933 89.8933 162.88 89.68L159.42 79.8C159.38 79.6933 159.34 79.64 159.3 79.64C159.247 79.64 159.22 79.7 159.22 79.82V89.64C159.22 89.7867 159.193 89.8867 159.14 89.94C159.1 89.98 159.007 90 158.86 90H156.82ZM180.924 88.98C180.044 89.7933 178.998 90.2 177.784 90.2C176.784 90.2 175.991 89.9333 175.404 89.4C174.818 88.8533 174.524 88.1467 174.524 87.28C174.524 86.16 175.038 85.26 176.064 84.58C177.091 83.9 178.504 83.54 180.304 83.5L181.024 83.44C181.104 83.44 181.171 83.42 181.224 83.38C181.291 83.3267 181.324 83.2533 181.324 83.16V82.74C181.324 82.22 181.178 81.82 180.884 81.54C180.591 81.26 180.171 81.12 179.624 81.12C178.691 81.12 177.998 81.52 177.544 82.32C177.491 82.4533 177.404 82.52 177.284 82.52C177.218 82.52 177.158 82.5133 177.104 82.5L175.104 82.04C174.984 82.0133 174.924 81.94 174.924 81.82C174.924 81.74 174.951 81.64 175.004 81.52C175.324 80.7467 175.891 80.1667 176.704 79.78C177.531 79.3933 178.551 79.2 179.764 79.2C181.351 79.2 182.498 79.4933 183.204 80.08C183.911 80.6533 184.264 81.4733 184.264 82.54V89.56C184.264 89.72 184.238 89.8333 184.184 89.9C184.131 89.9667 184.031 90 183.884 90H181.824C181.691 90 181.591 89.9533 181.524 89.86C181.471 89.7667 181.431 89.6267 181.404 89.44L181.384 89C181.371 88.88 181.318 88.82 181.224 88.82C181.171 88.82 181.071 88.8733 180.924 88.98ZM181.324 85.28C181.324 85.16 181.304 85.0733 181.264 85.02C181.224 84.9667 181.144 84.94 181.024 84.94L180.464 84.98C179.691 85.02 179.004 85.2067 178.404 85.54C177.818 85.86 177.524 86.3067 177.524 86.88C177.524 87.28 177.664 87.6 177.944 87.84C178.224 88.0667 178.611 88.18 179.104 88.18C179.718 88.18 180.238 88 180.664 87.64C181.104 87.2933 181.324 86.94 181.324 86.58V85.28ZM186.774 90C186.494 90 186.354 89.8667 186.354 89.6V79.78C186.354 79.5267 186.461 79.4 186.674 79.4H189.014C189.227 79.4 189.334 79.5133 189.334 79.74V80.92C189.334 80.9733 189.347 81.0133 189.374 81.04C189.401 81.0667 189.427 81.08 189.454 81.08C189.494 81.08 189.547 81.0467 189.614 80.98C190.014 80.4467 190.487 80.02 191.034 79.7C191.581 79.3667 192.101 79.2 192.594 79.2C193.074 79.2 193.314 79.3133 193.314 79.54V81.86C193.314 81.9533 193.287 82.0267 193.234 82.08C193.181 82.1333 193.107 82.1467 193.014 82.12C192.587 82.0133 192.121 81.96 191.614 81.96C191.281 81.96 190.941 82.0467 190.594 82.22C190.261 82.38 189.981 82.6 189.754 82.88C189.541 83.1467 189.434 83.42 189.434 83.7V89.54C189.434 89.8467 189.261 90 188.914 90H186.774ZM205.43 89.54C205.456 89.58 205.47 89.64 205.47 89.72C205.47 89.8 205.436 89.8667 205.37 89.92C205.316 89.9733 205.236 90 205.13 90H202.51C202.283 90 202.103 89.86 201.97 89.58L199.91 85.46C199.856 85.34 199.796 85.28 199.73 85.28C199.69 85.28 199.636 85.3133 199.57 85.38L198.15 86.78C198.03 86.8733 197.97 87.04 197.97 87.28V89.52C197.97 89.6933 197.93 89.82 197.85 89.9C197.77 89.9667 197.636 90 197.45 90H195.33C195.17 90 195.056 89.9667 194.99 89.9C194.923 89.8333 194.89 89.7267 194.89 89.58V75.54C194.89 75.2867 194.996 75.16 195.21 75.16H197.67C197.87 75.16 197.97 75.28 197.97 75.52V83.72C197.97 83.8267 197.996 83.88 198.05 83.88C198.103 83.88 198.156 83.8467 198.21 83.78L201.97 79.7C202.17 79.5 202.35 79.4 202.51 79.4H204.65C204.876 79.4 204.99 79.4733 204.99 79.62C204.99 79.7133 204.943 79.8067 204.85 79.9L202.05 82.74C201.97 82.8333 201.93 82.92 201.93 83C201.93 83.0933 201.956 83.1933 202.01 83.3L205.43 89.54ZM208.8 85.6C208.8 86.3467 209.047 86.9533 209.54 87.42C210.047 87.8733 210.673 88.1 211.42 88.1C211.9 88.1 212.34 88 212.74 87.8C213.153 87.5867 213.567 87.24 213.98 86.76C214.033 86.7067 214.087 86.68 214.14 86.68C214.18 86.68 214.247 86.7 214.34 86.74L215.78 87.34C215.873 87.38 215.92 87.4467 215.92 87.54C215.92 87.6067 215.893 87.6733 215.84 87.74C215.2 88.6467 214.513 89.2867 213.78 89.66C213.047 90.02 212.133 90.2 211.04 90.2C210.013 90.2 209.087 89.9733 208.26 89.52C207.433 89.0667 206.787 88.44 206.32 87.64C205.853 86.8267 205.62 85.9 205.62 84.86C205.62 83.74 205.86 82.7533 206.34 81.9C206.82 81.0333 207.467 80.3667 208.28 79.9C209.107 79.4333 210.007 79.2 210.98 79.2C211.993 79.2 212.893 79.4267 213.68 79.88C214.467 80.32 215.08 80.96 215.52 81.8C215.96 82.64 216.18 83.64 216.18 84.8C216.18 84.9733 216.16 85.0933 216.12 85.16C216.093 85.2267 216 85.2667 215.84 85.28H209.04C208.88 85.28 208.8 85.3867 208.8 85.6ZM212.82 83.6C212.967 83.6 213.06 83.5867 213.1 83.56C213.14 83.52 213.16 83.44 213.16 83.32C213.16 82.9733 213.08 82.6267 212.92 82.28C212.76 81.9333 212.527 81.6467 212.22 81.42C211.913 81.1933 211.54 81.08 211.1 81.08C210.433 81.08 209.887 81.3133 209.46 81.78C209.033 82.2467 208.827 82.8467 208.84 83.58L212.82 83.6ZM222.064 81.52C221.917 81.52 221.844 81.6 221.844 81.76V86.58C221.844 87.0333 221.951 87.36 222.164 87.56C222.377 87.7467 222.717 87.84 223.184 87.84H224.264C224.357 87.84 224.431 87.8733 224.484 87.94C224.537 87.9933 224.564 88.0733 224.564 88.18L224.544 89.4C224.544 89.6667 224.397 89.8267 224.104 89.88C223.544 89.96 222.751 90 221.724 90C220.791 90 220.064 89.78 219.544 89.34C219.024 88.9 218.764 88.26 218.764 87.42V81.82C218.764 81.62 218.677 81.52 218.504 81.52H217.284C217.031 81.52 216.904 81.4067 216.904 81.18V79.7C216.904 79.5 217.024 79.4 217.264 79.4H218.644C218.751 79.4 218.817 79.3267 218.844 79.18L219.124 76.14C219.151 75.9133 219.251 75.8 219.424 75.8H221.604C221.697 75.8 221.771 75.8333 221.824 75.9C221.891 75.9667 221.924 76.06 221.924 76.18V79.18C221.924 79.3133 221.991 79.38 222.124 79.38H224.224C224.464 79.38 224.584 79.4867 224.584 79.7V81.18C224.584 81.4067 224.451 81.52 224.184 81.52H222.064ZM229.357 77.62C229.357 77.9533 229.177 78.12 228.817 78.12H226.657C226.497 78.12 226.383 78.0867 226.317 78.02C226.25 77.94 226.217 77.82 226.217 77.66V75.56C226.217 75.2933 226.33 75.16 226.557 75.16H229.037C229.13 75.16 229.203 75.1933 229.257 75.26C229.323 75.3267 229.357 75.42 229.357 75.54V77.62ZM229.317 89.52C229.317 89.6933 229.277 89.82 229.197 89.9C229.117 89.9667 228.977 90 228.777 90H226.677C226.517 90 226.403 89.9667 226.337 89.9C226.27 89.8333 226.237 89.7267 226.237 89.58V79.78C226.237 79.5267 226.35 79.4 226.577 79.4H229.017C229.217 79.4 229.317 79.5133 229.317 79.74V89.52ZM231.95 90C231.803 90 231.696 89.9733 231.63 89.92C231.563 89.8533 231.53 89.7467 231.53 89.6V79.78C231.53 79.5267 231.636 79.4 231.85 79.4H234.27C234.47 79.4 234.57 79.5133 234.57 79.74V80.72C234.57 80.8267 234.603 80.88 234.67 80.88C234.71 80.88 234.756 80.8533 234.81 80.8C235.356 80.28 235.903 79.8867 236.45 79.62C236.996 79.34 237.576 79.2 238.19 79.2C239.163 79.2 239.93 79.4867 240.49 80.06C241.063 80.6333 241.35 81.4 241.35 82.36V89.52C241.35 89.84 241.19 90 240.87 90H238.65C238.503 90 238.403 89.9733 238.35 89.92C238.296 89.8533 238.27 89.7467 238.27 89.6V82.84C238.27 82.3867 238.143 82.04 237.89 81.8C237.65 81.5467 237.29 81.42 236.81 81.42C236.41 81.42 236.036 81.52 235.69 81.72C235.356 81.92 234.996 82.2333 234.61 82.66V89.54C234.61 89.7 234.57 89.82 234.49 89.9C234.41 89.9667 234.276 90 234.09 90H231.95ZM254.164 78.94C254.43 78.94 254.564 79.0867 254.564 79.38V80.74C254.564 81.1133 254.41 81.2667 254.104 81.2C253.904 81.16 253.71 81.14 253.524 81.14C253.417 81.14 253.297 81.1533 253.164 81.18C252.817 81.2333 252.684 81.3867 252.764 81.64C252.884 82 252.944 82.3 252.944 82.54C252.944 83.1533 252.757 83.7067 252.384 84.2C252.024 84.6933 251.477 85.0867 250.744 85.38C250.024 85.6733 249.15 85.82 248.124 85.82C247.377 85.82 246.824 85.88 246.464 86C246.117 86.12 245.944 86.28 245.944 86.48C245.944 86.6533 246.037 86.78 246.224 86.86C246.424 86.9267 246.75 86.9733 247.204 87L250.064 87.16C251.384 87.24 252.364 87.5333 253.004 88.04C253.657 88.5467 253.984 89.22 253.984 90.06C253.984 91.1 253.49 91.9333 252.504 92.56C251.517 93.1867 250.117 93.5 248.304 93.5C244.424 93.5 242.484 92.64 242.484 90.92C242.484 90.4933 242.65 90.1333 242.984 89.84C243.317 89.5333 243.79 89.2667 244.404 89.04C244.484 89.0133 244.524 88.98 244.524 88.94C244.524 88.9 244.484 88.86 244.404 88.82C243.63 88.4467 243.244 87.9533 243.244 87.34C243.244 86.98 243.417 86.6467 243.764 86.34C244.124 86.02 244.597 85.7467 245.184 85.52C245.344 85.44 245.357 85.36 245.224 85.28C243.93 84.68 243.284 83.7733 243.284 82.56C243.284 81.5467 243.717 80.74 244.584 80.14C245.464 79.54 246.717 79.24 248.344 79.24C249.717 79.24 250.784 79.54 251.544 80.14C251.637 80.2067 251.724 80.24 251.804 80.24C251.91 80.24 252.004 80.1933 252.084 80.1C252.337 79.7933 252.67 79.5267 253.084 79.3C253.497 79.06 253.857 78.94 254.164 78.94ZM248.104 84.3C248.784 84.3 249.29 84.1467 249.624 83.84C249.97 83.52 250.144 83.1067 250.144 82.6C250.144 82.04 249.97 81.6 249.624 81.28C249.29 80.9467 248.784 80.78 248.104 80.78C247.464 80.78 246.957 80.9467 246.584 81.28C246.224 81.6133 246.044 82.0533 246.044 82.6C246.044 83.1067 246.224 83.52 246.584 83.84C246.957 84.1467 247.464 84.3 248.104 84.3ZM246.624 89.4C246.21 89.3733 245.837 89.4733 245.504 89.7C245.184 89.9133 245.024 90.1867 245.024 90.52C245.024 91.0133 245.297 91.3867 245.844 91.64C246.39 91.8933 247.277 92.02 248.504 92.02C249.397 92.02 250.084 91.8933 250.564 91.64C251.044 91.4 251.284 91.0533 251.284 90.6C251.284 90.2933 251.15 90.0467 250.884 89.86C250.617 89.6733 250.224 89.5667 249.704 89.54L246.624 89.4Z" fill="white"/>
<path d="M233.84 188.16C236.04 188.16 237.527 188.167 238.3 188.18C240.94 188.26 242.907 188.933 244.2 190.2C245.493 191.467 246.14 193.24 246.14 195.52C246.14 197.867 245.467 199.7 244.12 201.02C242.773 202.34 240.8 203 238.2 203H233.86C233.7 203 233.58 202.967 233.5 202.9C233.433 202.82 233.4 202.693 233.4 202.52V188.56C233.4 188.413 233.433 188.313 233.5 188.26C233.567 188.193 233.68 188.16 233.84 188.16ZM237.08 190.64C236.96 190.64 236.9 190.733 236.9 190.92V200.26C236.9 200.367 236.913 200.44 236.94 200.48C236.98 200.52 237.053 200.54 237.16 200.54H237.54C239.22 200.54 240.46 200.153 241.26 199.38C242.073 198.593 242.48 197.3 242.48 195.5C242.48 193.833 242.14 192.633 241.46 191.9C240.78 191.167 239.727 190.76 238.3 190.68L237.08 190.64ZM250.82 198.6C250.82 199.347 251.066 199.953 251.56 200.42C252.066 200.873 252.693 201.1 253.44 201.1C253.92 201.1 254.36 201 254.76 200.8C255.173 200.587 255.586 200.24 256 199.76C256.053 199.707 256.106 199.68 256.16 199.68C256.2 199.68 256.266 199.7 256.36 199.74L257.8 200.34C257.893 200.38 257.94 200.447 257.94 200.54C257.94 200.607 257.913 200.673 257.86 200.74C257.22 201.647 256.533 202.287 255.8 202.66C255.066 203.02 254.153 203.2 253.06 203.2C252.033 203.2 251.106 202.973 250.28 202.52C249.453 202.067 248.806 201.44 248.34 200.64C247.873 199.827 247.64 198.9 247.64 197.86C247.64 196.74 247.88 195.753 248.36 194.9C248.84 194.033 249.486 193.367 250.3 192.9C251.126 192.433 252.026 192.2 253 192.2C254.013 192.2 254.913 192.427 255.7 192.88C256.486 193.32 257.1 193.96 257.54 194.8C257.98 195.64 258.2 196.64 258.2 197.8C258.2 197.973 258.18 198.093 258.14 198.16C258.113 198.227 258.02 198.267 257.86 198.28H251.06C250.9 198.28 250.82 198.387 250.82 198.6ZM254.84 196.6C254.986 196.6 255.08 196.587 255.12 196.56C255.16 196.52 255.18 196.44 255.18 196.32C255.18 195.973 255.1 195.627 254.94 195.28C254.78 194.933 254.546 194.647 254.24 194.42C253.933 194.193 253.56 194.08 253.12 194.08C252.453 194.08 251.906 194.313 251.48 194.78C251.053 195.247 250.846 195.847 250.86 196.58L254.84 196.6ZM266.378 195.16C265.832 194.44 265.052 194.08 264.038 194.08C263.532 194.08 263.112 194.18 262.778 194.38C262.445 194.567 262.278 194.827 262.278 195.16C262.278 195.347 262.352 195.52 262.498 195.68C262.658 195.827 262.958 195.953 263.398 196.06L265.698 196.62C266.752 196.873 267.525 197.28 268.018 197.84C268.512 198.387 268.758 199.033 268.758 199.78C268.758 200.833 268.318 201.667 267.438 202.28C266.558 202.893 265.405 203.2 263.978 203.2C262.832 203.2 261.838 203 260.998 202.6C260.158 202.187 259.565 201.653 259.218 201C259.152 200.907 259.118 200.82 259.118 200.74C259.118 200.647 259.165 200.58 259.258 200.54L260.618 199.84C260.725 199.787 260.818 199.76 260.898 199.76C260.978 199.76 261.052 199.793 261.118 199.86C261.412 200.273 261.765 200.607 262.178 200.86C262.605 201.1 263.165 201.22 263.858 201.22C264.485 201.22 264.992 201.127 265.378 200.94C265.778 200.753 265.978 200.48 265.978 200.12C265.978 199.88 265.878 199.68 265.678 199.52C265.478 199.36 265.138 199.22 264.658 199.1L262.598 198.66C260.572 198.22 259.558 197.213 259.558 195.64C259.558 194.973 259.738 194.38 260.098 193.86C260.472 193.34 260.998 192.933 261.678 192.64C262.358 192.347 263.158 192.2 264.078 192.2C265.052 192.2 265.912 192.38 266.658 192.74C267.418 193.1 267.965 193.553 268.298 194.1C268.378 194.207 268.418 194.3 268.418 194.38C268.418 194.46 268.372 194.527 268.278 194.58L266.838 195.28C266.798 195.307 266.745 195.32 266.678 195.32C266.558 195.32 266.458 195.267 266.378 195.16ZM273.564 190.62C273.564 190.953 273.384 191.12 273.024 191.12H270.864C270.704 191.12 270.59 191.087 270.524 191.02C270.457 190.94 270.424 190.82 270.424 190.66V188.56C270.424 188.293 270.537 188.16 270.764 188.16H273.244C273.337 188.16 273.41 188.193 273.464 188.26C273.53 188.327 273.564 188.42 273.564 188.54V190.62ZM273.524 202.52C273.524 202.693 273.484 202.82 273.404 202.9C273.324 202.967 273.184 203 272.984 203H270.884C270.724 203 270.61 202.967 270.544 202.9C270.477 202.833 270.444 202.727 270.444 202.58V192.78C270.444 192.527 270.557 192.4 270.784 192.4H273.224C273.424 192.4 273.524 192.513 273.524 192.74V202.52ZM286.457 191.94C286.723 191.94 286.857 192.087 286.857 192.38V193.74C286.857 194.113 286.703 194.267 286.397 194.2C286.197 194.16 286.003 194.14 285.817 194.14C285.71 194.14 285.59 194.153 285.457 194.18C285.11 194.233 284.977 194.387 285.057 194.64C285.177 195 285.237 195.3 285.237 195.54C285.237 196.153 285.05 196.707 284.677 197.2C284.317 197.693 283.77 198.087 283.037 198.38C282.317 198.673 281.443 198.82 280.417 198.82C279.67 198.82 279.117 198.88 278.757 199C278.41 199.12 278.237 199.28 278.237 199.48C278.237 199.653 278.33 199.78 278.517 199.86C278.717 199.927 279.043 199.973 279.497 200L282.357 200.16C283.677 200.24 284.657 200.533 285.297 201.04C285.95 201.547 286.277 202.22 286.277 203.06C286.277 204.1 285.783 204.933 284.797 205.56C283.81 206.187 282.41 206.5 280.597 206.5C276.717 206.5 274.777 205.64 274.777 203.92C274.777 203.493 274.943 203.133 275.277 202.84C275.61 202.533 276.083 202.267 276.697 202.04C276.777 202.013 276.817 201.98 276.817 201.94C276.817 201.9 276.777 201.86 276.697 201.82C275.923 201.447 275.537 200.953 275.537 200.34C275.537 199.98 275.71 199.647 276.057 199.34C276.417 199.02 276.89 198.747 277.477 198.52C277.637 198.44 277.65 198.36 277.517 198.28C276.223 197.68 275.577 196.773 275.577 195.56C275.577 194.547 276.01 193.74 276.877 193.14C277.757 192.54 279.01 192.24 280.637 192.24C282.01 192.24 283.077 192.54 283.837 193.14C283.93 193.207 284.017 193.24 284.097 193.24C284.203 193.24 284.297 193.193 284.377 193.1C284.63 192.793 284.963 192.527 285.377 192.3C285.79 192.06 286.15 191.94 286.457 191.94ZM280.397 197.3C281.077 197.3 281.583 197.147 281.917 196.84C282.263 196.52 282.437 196.107 282.437 195.6C282.437 195.04 282.263 194.6 281.917 194.28C281.583 193.947 281.077 193.78 280.397 193.78C279.757 193.78 279.25 193.947 278.877 194.28C278.517 194.613 278.337 195.053 278.337 195.6C278.337 196.107 278.517 196.52 278.877 196.84C279.25 197.147 279.757 197.3 280.397 197.3ZM278.917 202.4C278.503 202.373 278.13 202.473 277.797 202.7C277.477 202.913 277.317 203.187 277.317 203.52C277.317 204.013 277.59 204.387 278.137 204.64C278.683 204.893 279.57 205.02 280.797 205.02C281.69 205.02 282.377 204.893 282.857 204.64C283.337 204.4 283.577 204.053 283.577 203.6C283.577 203.293 283.443 203.047 283.177 202.86C282.91 202.673 282.517 202.567 281.997 202.54L278.917 202.4ZM288.813 203C288.666 203 288.56 202.973 288.493 202.92C288.426 202.853 288.393 202.747 288.393 202.6V192.78C288.393 192.527 288.5 192.4 288.713 192.4H291.133C291.333 192.4 291.433 192.513 291.433 192.74V193.72C291.433 193.827 291.466 193.88 291.533 193.88C291.573 193.88 291.62 193.853 291.673 193.8C292.22 193.28 292.766 192.887 293.313 192.62C293.86 192.34 294.44 192.2 295.053 192.2C296.026 192.2 296.793 192.487 297.353 193.06C297.926 193.633 298.213 194.4 298.213 195.36V202.52C298.213 202.84 298.053 203 297.733 203H295.513C295.366 203 295.266 202.973 295.213 202.92C295.16 202.853 295.133 202.747 295.133 202.6V195.84C295.133 195.387 295.006 195.04 294.753 194.8C294.513 194.547 294.153 194.42 293.673 194.42C293.273 194.42 292.9 194.52 292.553 194.72C292.22 194.92 291.86 195.233 291.473 195.66V202.54C291.473 202.7 291.433 202.82 291.353 202.9C291.273 202.967 291.14 203 290.953 203H288.813Z" fill="white"/>
<path d="M126.96 259C126.76 259 126.66 258.887 126.66 258.66C126.66 258.553 126.673 258.473 126.7 258.42L131.68 244.56C131.733 244.413 131.793 244.313 131.86 244.26C131.94 244.193 132.053 244.16 132.2 244.16H135.2C135.347 244.16 135.473 244.2 135.58 244.28C135.687 244.36 135.76 244.467 135.8 244.6L140.74 258.46C140.767 258.54 140.78 258.6 140.78 258.64C140.78 258.747 140.753 258.833 140.7 258.9C140.66 258.967 140.593 259 140.5 259H137.56C137.36 259 137.233 258.907 137.18 258.72L136.14 255.8C136.113 255.72 136.08 255.667 136.04 255.64C136.013 255.6 135.96 255.58 135.88 255.58H131C130.867 255.58 130.78 255.647 130.74 255.78L129.68 258.74C129.6 258.913 129.46 259 129.26 259H126.96ZM135.06 252.92C135.193 252.92 135.26 252.867 135.26 252.76C135.26 252.68 135.253 252.62 135.24 252.58L133.56 247.9C133.52 247.82 133.473 247.78 133.42 247.78C133.38 247.78 133.34 247.827 133.3 247.92L131.6 252.58C131.573 252.66 131.56 252.72 131.56 252.76C131.56 252.867 131.633 252.92 131.78 252.92H135.06ZM142.95 259C142.803 259 142.696 258.973 142.63 258.92C142.563 258.853 142.53 258.747 142.53 258.6V248.78C142.53 248.527 142.636 248.4 142.85 248.4H145.27C145.47 248.4 145.57 248.513 145.57 248.74V249.72C145.57 249.827 145.603 249.88 145.67 249.88C145.71 249.88 145.756 249.853 145.81 249.8C146.356 249.28 146.903 248.887 147.45 248.62C147.996 248.34 148.576 248.2 149.19 248.2C150.163 248.2 150.93 248.487 151.49 249.06C152.063 249.633 152.35 250.4 152.35 251.36V258.52C152.35 258.84 152.19 259 151.87 259H149.65C149.503 259 149.403 258.973 149.35 258.92C149.296 258.853 149.27 258.747 149.27 258.6V251.84C149.27 251.387 149.143 251.04 148.89 250.8C148.65 250.547 148.29 250.42 147.81 250.42C147.41 250.42 147.036 250.52 146.69 250.72C146.356 250.92 145.996 251.233 145.61 251.66V258.54C145.61 258.7 145.57 258.82 145.49 258.9C145.41 258.967 145.276 259 145.09 259H142.95ZM160.284 257.98C159.404 258.793 158.357 259.2 157.144 259.2C156.144 259.2 155.35 258.933 154.764 258.4C154.177 257.853 153.884 257.147 153.884 256.28C153.884 255.16 154.397 254.26 155.424 253.58C156.45 252.9 157.864 252.54 159.664 252.5L160.384 252.44C160.464 252.44 160.53 252.42 160.584 252.38C160.65 252.327 160.684 252.253 160.684 252.16V251.74C160.684 251.22 160.537 250.82 160.244 250.54C159.95 250.26 159.53 250.12 158.984 250.12C158.05 250.12 157.357 250.52 156.904 251.32C156.85 251.453 156.764 251.52 156.644 251.52C156.577 251.52 156.517 251.513 156.464 251.5L154.464 251.04C154.344 251.013 154.284 250.94 154.284 250.82C154.284 250.74 154.31 250.64 154.364 250.52C154.684 249.747 155.25 249.167 156.064 248.78C156.89 248.393 157.91 248.2 159.124 248.2C160.71 248.2 161.857 248.493 162.564 249.08C163.27 249.653 163.624 250.473 163.624 251.54V258.56C163.624 258.72 163.597 258.833 163.544 258.9C163.49 258.967 163.39 259 163.244 259H161.184C161.05 259 160.95 258.953 160.884 258.86C160.83 258.767 160.79 258.627 160.764 258.44L160.744 258C160.73 257.88 160.677 257.82 160.584 257.82C160.53 257.82 160.43 257.873 160.284 257.98ZM160.684 254.28C160.684 254.16 160.664 254.073 160.624 254.02C160.584 253.967 160.504 253.94 160.384 253.94L159.824 253.98C159.05 254.02 158.364 254.207 157.764 254.54C157.177 254.86 156.884 255.307 156.884 255.88C156.884 256.28 157.024 256.6 157.304 256.84C157.584 257.067 157.97 257.18 158.464 257.18C159.077 257.18 159.597 257 160.024 256.64C160.464 256.293 160.684 255.94 160.684 255.58V254.28ZM168.813 258.52C168.813 258.693 168.773 258.82 168.693 258.9C168.613 258.967 168.473 259 168.273 259H166.153C165.993 259 165.88 258.967 165.813 258.9C165.747 258.833 165.713 258.727 165.713 258.58L165.773 244.54C165.773 244.287 165.88 244.16 166.093 244.16H168.513C168.713 244.16 168.813 244.28 168.813 244.52V258.52ZM172.006 262.3C171.566 262.3 171.259 262.273 171.086 262.22C170.912 262.18 170.826 262.08 170.826 261.92V260.38C170.826 260.167 171.019 260.06 171.406 260.06H172.766C173.166 260.06 173.512 259.907 173.806 259.6C174.099 259.307 174.246 258.993 174.246 258.66C174.246 258.54 174.226 258.433 174.186 258.34L170.346 248.88C170.319 248.8 170.306 248.747 170.306 248.72C170.306 248.627 170.339 248.553 170.406 248.5C170.472 248.433 170.559 248.4 170.666 248.4H173.186C173.279 248.4 173.366 248.433 173.446 248.5C173.539 248.553 173.599 248.633 173.626 248.74L175.846 254.7C175.886 254.833 175.939 254.9 176.006 254.9C176.059 254.9 176.119 254.827 176.186 254.68L178.386 248.72C178.479 248.507 178.626 248.4 178.826 248.4H180.546C180.639 248.4 180.712 248.433 180.766 248.5C180.832 248.553 180.866 248.62 180.866 248.7C180.866 248.727 180.852 248.78 180.826 248.86L176.726 259C176.352 259.92 175.959 260.613 175.546 261.08C175.132 261.547 174.652 261.867 174.106 262.04C173.572 262.213 172.872 262.3 172.006 262.3ZM188.894 251.16C188.347 250.44 187.567 250.08 186.554 250.08C186.047 250.08 185.627 250.18 185.294 250.38C184.961 250.567 184.794 250.827 184.794 251.16C184.794 251.347 184.867 251.52 185.014 251.68C185.174 251.827 185.474 251.953 185.914 252.06L188.214 252.62C189.267 252.873 190.041 253.28 190.534 253.84C191.027 254.387 191.274 255.033 191.274 255.78C191.274 256.833 190.834 257.667 189.954 258.28C189.074 258.893 187.921 259.2 186.494 259.2C185.347 259.2 184.354 259 183.514 258.6C182.674 258.187 182.081 257.653 181.734 257C181.667 256.907 181.634 256.82 181.634 256.74C181.634 256.647 181.681 256.58 181.774 256.54L183.134 255.84C183.241 255.787 183.334 255.76 183.414 255.76C183.494 255.76 183.567 255.793 183.634 255.86C183.927 256.273 184.281 256.607 184.694 256.86C185.121 257.1 185.681 257.22 186.374 257.22C187.001 257.22 187.507 257.127 187.894 256.94C188.294 256.753 188.494 256.48 188.494 256.12C188.494 255.88 188.394 255.68 188.194 255.52C187.994 255.36 187.654 255.22 187.174 255.1L185.114 254.66C183.087 254.22 182.074 253.213 182.074 251.64C182.074 250.973 182.254 250.38 182.614 249.86C182.987 249.34 183.514 248.933 184.194 248.64C184.874 248.347 185.674 248.2 186.594 248.2C187.567 248.2 188.427 248.38 189.174 248.74C189.934 249.1 190.481 249.553 190.814 250.1C190.894 250.207 190.934 250.3 190.934 250.38C190.934 250.46 190.887 250.527 190.794 250.58L189.354 251.28C189.314 251.307 189.261 251.32 189.194 251.32C189.074 251.32 188.974 251.267 188.894 251.16ZM196.079 246.62C196.079 246.953 195.899 247.12 195.539 247.12H193.379C193.219 247.12 193.106 247.087 193.039 247.02C192.973 246.94 192.939 246.82 192.939 246.66V244.56C192.939 244.293 193.053 244.16 193.279 244.16H195.759C195.853 244.16 195.926 244.193 195.979 244.26C196.046 244.327 196.079 244.42 196.079 244.54V246.62ZM196.039 258.52C196.039 258.693 195.999 258.82 195.919 258.9C195.839 258.967 195.699 259 195.499 259H193.399C193.239 259 193.126 258.967 193.059 258.9C192.993 258.833 192.959 258.727 192.959 258.58V248.78C192.959 248.527 193.073 248.4 193.299 248.4H195.739C195.939 248.4 196.039 248.513 196.039 248.74V258.52ZM204.792 251.16C204.246 250.44 203.466 250.08 202.452 250.08C201.946 250.08 201.526 250.18 201.192 250.38C200.859 250.567 200.692 250.827 200.692 251.16C200.692 251.347 200.766 251.52 200.912 251.68C201.072 251.827 201.372 251.953 201.812 252.06L204.112 252.62C205.166 252.873 205.939 253.28 206.432 253.84C206.926 254.387 207.172 255.033 207.172 255.78C207.172 256.833 206.732 257.667 205.852 258.28C204.972 258.893 203.819 259.2 202.392 259.2C201.246 259.2 200.252 259 199.412 258.6C198.572 258.187 197.979 257.653 197.632 257C197.566 256.907 197.532 256.82 197.532 256.74C197.532 256.647 197.579 256.58 197.672 256.54L199.032 255.84C199.139 255.787 199.232 255.76 199.312 255.76C199.392 255.76 199.466 255.793 199.532 255.86C199.826 256.273 200.179 256.607 200.592 256.86C201.019 257.1 201.579 257.22 202.272 257.22C202.899 257.22 203.406 257.127 203.792 256.94C204.192 256.753 204.392 256.48 204.392 256.12C204.392 255.88 204.292 255.68 204.092 255.52C203.892 255.36 203.552 255.22 203.072 255.1L201.012 254.66C198.986 254.22 197.972 253.213 197.972 251.64C197.972 250.973 198.152 250.38 198.512 249.86C198.886 249.34 199.412 248.933 200.092 248.64C200.772 248.347 201.572 248.2 202.492 248.2C203.466 248.2 204.326 248.38 205.072 248.74C205.832 249.1 206.379 249.553 206.712 250.1C206.792 250.207 206.832 250.3 206.832 250.38C206.832 250.46 206.786 250.527 206.692 250.58L205.252 251.28C205.212 251.307 205.159 251.32 205.092 251.32C204.972 251.32 204.872 251.267 204.792 251.16Z" fill="white"/>
<path d="M17.84 155.16C20.04 155.16 21.5267 155.167 22.3 155.18C24.94 155.26 26.9067 155.933 28.2 157.2C29.4933 158.467 30.14 160.24 30.14 162.52C30.14 164.867 29.4667 166.7 28.12 168.02C26.7733 169.34 24.8 170 22.2 170H17.86C17.7 170 17.58 169.967 17.5 169.9C17.4333 169.82 17.4 169.693 17.4 169.52V155.56C17.4 155.413 17.4333 155.313 17.5 155.26C17.5667 155.193 17.68 155.16 17.84 155.16ZM21.08 157.64C20.96 157.64 20.9 157.733 20.9 157.92V167.26C20.9 167.367 20.9133 167.44 20.94 167.48C20.98 167.52 21.0533 167.54 21.16 167.54H21.54C23.22 167.54 24.46 167.153 25.26 166.38C26.0733 165.593 26.48 164.3 26.48 162.5C26.48 160.833 26.14 159.633 25.46 158.9C24.78 158.167 23.7267 157.76 22.3 157.68L21.08 157.64ZM34.8195 165.6C34.8195 166.347 35.0662 166.953 35.5595 167.42C36.0662 167.873 36.6929 168.1 37.4395 168.1C37.9195 168.1 38.3595 168 38.7595 167.8C39.1729 167.587 39.5862 167.24 39.9995 166.76C40.0529 166.707 40.1062 166.68 40.1595 166.68C40.1995 166.68 40.2662 166.7 40.3595 166.74L41.7995 167.34C41.8929 167.38 41.9395 167.447 41.9395 167.54C41.9395 167.607 41.9129 167.673 41.8595 167.74C41.2195 168.647 40.5329 169.287 39.7995 169.66C39.0662 170.02 38.1529 170.2 37.0595 170.2C36.0329 170.2 35.1062 169.973 34.2795 169.52C33.4529 169.067 32.8062 168.44 32.3395 167.64C31.8729 166.827 31.6395 165.9 31.6395 164.86C31.6395 163.74 31.8795 162.753 32.3595 161.9C32.8395 161.033 33.4862 160.367 34.2995 159.9C35.1262 159.433 36.0262 159.2 36.9995 159.2C38.0129 159.2 38.9129 159.427 39.6995 159.88C40.4862 160.32 41.0995 160.96 41.5395 161.8C41.9795 162.64 42.1995 163.64 42.1995 164.8C42.1995 164.973 42.1795 165.093 42.1395 165.16C42.1129 165.227 42.0195 165.267 41.8595 165.28H35.0595C34.8995 165.28 34.8195 165.387 34.8195 165.6ZM38.8395 163.6C38.9862 163.6 39.0795 163.587 39.1195 163.56C39.1595 163.52 39.1795 163.44 39.1795 163.32C39.1795 162.973 39.0995 162.627 38.9395 162.28C38.7795 161.933 38.5462 161.647 38.2395 161.42C37.9329 161.193 37.5595 161.08 37.1195 161.08C36.4529 161.08 35.9062 161.313 35.4795 161.78C35.0529 162.247 34.8462 162.847 34.8595 163.58L38.8395 163.6ZM53.4983 159.4C53.6183 159.4 53.7049 159.447 53.7583 159.54C53.8116 159.633 53.8183 159.74 53.7783 159.86L49.8183 169.58C49.6983 169.86 49.4849 170 49.1783 170H47.7583C47.4516 170 47.2383 169.86 47.1183 169.58L43.1783 159.88C43.1516 159.8 43.1383 159.747 43.1383 159.72C43.1383 159.627 43.1716 159.553 43.2383 159.5C43.3049 159.433 43.3849 159.4 43.4783 159.4H46.0183C46.2449 159.4 46.3916 159.513 46.4583 159.74L48.7583 165.64C48.8249 165.76 48.8783 165.82 48.9183 165.82C48.9716 165.82 49.0249 165.753 49.0783 165.62L51.3383 159.72C51.4316 159.507 51.5783 159.4 51.7783 159.4H53.4983ZM57.3977 165.6C57.3977 166.347 57.6443 166.953 58.1377 167.42C58.6443 167.873 59.271 168.1 60.0177 168.1C60.4977 168.1 60.9377 168 61.3377 167.8C61.751 167.587 62.1643 167.24 62.5777 166.76C62.631 166.707 62.6843 166.68 62.7377 166.68C62.7777 166.68 62.8443 166.7 62.9377 166.74L64.3777 167.34C64.471 167.38 64.5177 167.447 64.5177 167.54C64.5177 167.607 64.491 167.673 64.4377 167.74C63.7977 168.647 63.111 169.287 62.3777 169.66C61.6443 170.02 60.731 170.2 59.6377 170.2C58.611 170.2 57.6843 169.973 56.8577 169.52C56.031 169.067 55.3843 168.44 54.9177 167.64C54.451 166.827 54.2177 165.9 54.2177 164.86C54.2177 163.74 54.4577 162.753 54.9377 161.9C55.4177 161.033 56.0643 160.367 56.8777 159.9C57.7043 159.433 58.6043 159.2 59.5777 159.2C60.591 159.2 61.491 159.427 62.2777 159.88C63.0643 160.32 63.6777 160.96 64.1177 161.8C64.5577 162.64 64.7777 163.64 64.7777 164.8C64.7777 164.973 64.7577 165.093 64.7177 165.16C64.691 165.227 64.5977 165.267 64.4377 165.28H57.6377C57.4777 165.28 57.3977 165.387 57.3977 165.6ZM61.4177 163.6C61.5643 163.6 61.6577 163.587 61.6977 163.56C61.7377 163.52 61.7577 163.44 61.7577 163.32C61.7577 162.973 61.6777 162.627 61.5177 162.28C61.3577 161.933 61.1243 161.647 60.8177 161.42C60.511 161.193 60.1377 161.08 59.6977 161.08C59.031 161.08 58.4843 161.313 58.0577 161.78C57.631 162.247 57.4243 162.847 57.4377 163.58L61.4177 163.6ZM69.5164 169.52C69.5164 169.693 69.4764 169.82 69.3964 169.9C69.3164 169.967 69.1764 170 68.9764 170H66.8564C66.6964 170 66.5831 169.967 66.5164 169.9C66.4497 169.833 66.4164 169.727 66.4164 169.58L66.4764 155.54C66.4764 155.287 66.5831 155.16 66.7964 155.16H69.2164C69.4164 155.16 69.5164 155.28 69.5164 155.52V169.52ZM76.6089 170.2C75.5556 170.2 74.6222 169.973 73.8089 169.52C73.0089 169.053 72.3822 168.407 71.9289 167.58C71.4756 166.753 71.2489 165.813 71.2489 164.76C71.2489 163.667 71.4756 162.7 71.9289 161.86C72.3956 161.02 73.0356 160.367 73.8489 159.9C74.6756 159.433 75.6022 159.2 76.6289 159.2C77.6822 159.2 78.6156 159.44 79.4289 159.92C80.2422 160.387 80.8689 161.04 81.3089 161.88C81.7622 162.72 81.9889 163.673 81.9889 164.74C81.9889 165.793 81.7622 166.733 81.3089 167.56C80.8556 168.387 80.2222 169.033 79.4089 169.5C78.5956 169.967 77.6622 170.2 76.6089 170.2ZM76.6289 168.16C77.3622 168.16 77.9156 167.873 78.2889 167.3C78.6756 166.713 78.8689 165.847 78.8689 164.7C78.8689 163.54 78.6756 162.667 78.2889 162.08C77.9156 161.48 77.3622 161.18 76.6289 161.18C75.8956 161.18 75.3356 161.48 74.9489 162.08C74.5622 162.667 74.3689 163.54 74.3689 164.7C74.3689 165.833 74.5622 166.693 74.9489 167.28C75.3356 167.867 75.8956 168.16 76.6289 168.16ZM86.3616 159.4C86.5216 159.4 86.6349 159.433 86.7016 159.5C86.7682 159.553 86.8016 159.653 86.8016 159.8V160.4C86.8016 160.493 86.8282 160.54 86.8816 160.54C86.9216 160.54 86.9882 160.507 87.0816 160.44C87.4949 160.053 87.9149 159.753 88.3416 159.54C88.7816 159.313 89.3349 159.2 90.0016 159.2C91.2149 159.2 92.2016 159.66 92.9616 160.58C93.7216 161.5 94.1016 162.847 94.1016 164.62C94.1016 166.46 93.7082 167.853 92.9216 168.8C92.1482 169.733 91.1216 170.2 89.8416 170.2C88.7882 170.2 87.8949 169.86 87.1616 169.18C87.0282 169.073 86.9349 169.02 86.8816 169.02C86.8149 169.02 86.7816 169.113 86.7816 169.3V172.96C86.7816 173.187 86.6816 173.3 86.4816 173.3H84.0216C83.9282 173.3 83.8482 173.267 83.7816 173.2C83.7282 173.147 83.7016 173.06 83.7016 172.94V159.84C83.7016 159.68 83.7349 159.567 83.8016 159.5C83.8816 159.433 84.0016 159.4 84.1616 159.4H86.3616ZM86.7816 167.26C87.0749 167.58 87.3749 167.827 87.6816 168C87.9882 168.173 88.3282 168.26 88.7016 168.26C90.2216 168.26 90.9816 167.027 90.9816 164.56C90.9816 163.333 90.7882 162.46 90.4016 161.94C90.0149 161.407 89.4682 161.14 88.7616 161.14C88.2149 161.14 87.7482 161.307 87.3616 161.64C86.9749 161.96 86.7816 162.327 86.7816 162.74V167.26ZM96.3091 170C96.1624 170 96.0557 169.973 95.9891 169.92C95.9224 169.853 95.8891 169.747 95.8891 169.6V159.78C95.8891 159.66 95.9157 159.567 95.9691 159.5C96.0357 159.433 96.1157 159.4 96.2091 159.4H98.6091C98.8091 159.4 98.9091 159.513 98.9091 159.74V160.72C98.9091 160.827 98.9424 160.88 99.0091 160.88C99.0491 160.88 99.0957 160.853 99.1491 160.8C99.7091 160.28 100.256 159.88 100.789 159.6C101.322 159.32 101.889 159.18 102.489 159.18C103.196 159.18 103.796 159.347 104.289 159.68C104.782 160.013 105.129 160.467 105.329 161.04C105.342 161.093 105.369 161.12 105.409 161.12C105.462 161.12 105.522 161.087 105.589 161.02C106.082 160.473 106.636 160.033 107.249 159.7C107.876 159.367 108.496 159.2 109.109 159.2C110.042 159.2 110.782 159.487 111.329 160.06C111.889 160.633 112.169 161.42 112.169 162.42V169.52C112.169 169.84 112.009 170 111.689 170H109.469C109.322 170 109.222 169.973 109.169 169.92C109.116 169.853 109.089 169.747 109.089 169.6V162.84C109.089 162.4 108.969 162.053 108.729 161.8C108.489 161.547 108.149 161.42 107.709 161.42C107.349 161.42 106.996 161.52 106.649 161.72C106.316 161.92 106.029 162.16 105.789 162.44C105.709 162.533 105.649 162.62 105.609 162.7C105.582 162.78 105.569 162.88 105.569 163V169.52C105.569 169.84 105.409 170 105.089 170H102.889C102.756 170 102.656 169.973 102.589 169.92C102.536 169.853 102.509 169.747 102.509 169.6V162.84C102.509 162.4 102.389 162.053 102.149 161.8C101.909 161.547 101.562 161.42 101.109 161.42C100.722 161.42 100.362 161.52 100.029 161.72C99.6957 161.92 99.3424 162.233 98.9691 162.66V169.54C98.9691 169.7 98.9291 169.82 98.8491 169.9C98.7691 169.967 98.6357 170 98.4491 170H96.3091ZM116.968 165.6C116.968 166.347 117.215 166.953 117.708 167.42C118.215 167.873 118.841 168.1 119.588 168.1C120.068 168.1 120.508 168 120.908 167.8C121.321 167.587 121.735 167.24 122.148 166.76C122.201 166.707 122.255 166.68 122.308 166.68C122.348 166.68 122.415 166.7 122.508 166.74L123.948 167.34C124.041 167.38 124.088 167.447 124.088 167.54C124.088 167.607 124.061 167.673 124.008 167.74C123.368 168.647 122.681 169.287 121.948 169.66C121.215 170.02 120.301 170.2 119.208 170.2C118.181 170.2 117.255 169.973 116.428 169.52C115.601 169.067 114.955 168.44 114.488 167.64C114.021 166.827 113.788 165.9 113.788 164.86C113.788 163.74 114.028 162.753 114.508 161.9C114.988 161.033 115.635 160.367 116.448 159.9C117.275 159.433 118.175 159.2 119.148 159.2C120.161 159.2 121.061 159.427 121.848 159.88C122.635 160.32 123.248 160.96 123.688 161.8C124.128 162.64 124.348 163.64 124.348 164.8C124.348 164.973 124.328 165.093 124.288 165.16C124.261 165.227 124.168 165.267 124.008 165.28H117.208C117.048 165.28 116.968 165.387 116.968 165.6ZM120.988 163.6C121.135 163.6 121.228 163.587 121.268 163.56C121.308 163.52 121.328 163.44 121.328 163.32C121.328 162.973 121.248 162.627 121.088 162.28C120.928 161.933 120.695 161.647 120.388 161.42C120.081 161.193 119.708 161.08 119.268 161.08C118.601 161.08 118.055 161.313 117.628 161.78C117.201 162.247 116.995 162.847 117.008 163.58L120.988 163.6ZM126.407 170C126.26 170 126.153 169.973 126.087 169.92C126.02 169.853 125.987 169.747 125.987 169.6V159.78C125.987 159.527 126.093 159.4 126.307 159.4H128.727C128.927 159.4 129.027 159.513 129.027 159.74V160.72C129.027 160.827 129.06 160.88 129.127 160.88C129.167 160.88 129.213 160.853 129.267 160.8C129.813 160.28 130.36 159.887 130.907 159.62C131.453 159.34 132.033 159.2 132.647 159.2C133.62 159.2 134.387 159.487 134.947 160.06C135.52 160.633 135.807 161.4 135.807 162.36V169.52C135.807 169.84 135.647 170 135.327 170H133.107C132.96 170 132.86 169.973 132.807 169.92C132.753 169.853 132.727 169.747 132.727 169.6V162.84C132.727 162.387 132.6 162.04 132.347 161.8C132.107 161.547 131.747 161.42 131.267 161.42C130.867 161.42 130.493 161.52 130.147 161.72C129.813 161.92 129.453 162.233 129.067 162.66V169.54C129.067 169.7 129.027 169.82 128.947 169.9C128.867 169.967 128.733 170 128.547 170H126.407ZM142.361 161.52C142.214 161.52 142.141 161.6 142.141 161.76V166.58C142.141 167.033 142.247 167.36 142.461 167.56C142.674 167.747 143.014 167.84 143.481 167.84H144.561C144.654 167.84 144.727 167.873 144.781 167.94C144.834 167.993 144.861 168.073 144.861 168.18L144.841 169.4C144.841 169.667 144.694 169.827 144.401 169.88C143.841 169.96 143.047 170 142.021 170C141.087 170 140.361 169.78 139.841 169.34C139.321 168.9 139.061 168.26 139.061 167.42V161.82C139.061 161.62 138.974 161.52 138.801 161.52H137.581C137.327 161.52 137.201 161.407 137.201 161.18V159.7C137.201 159.5 137.321 159.4 137.561 159.4H138.941C139.047 159.4 139.114 159.327 139.141 159.18L139.421 156.14C139.447 155.913 139.547 155.8 139.721 155.8H141.901C141.994 155.8 142.067 155.833 142.121 155.9C142.187 155.967 142.221 156.06 142.221 156.18V159.18C142.221 159.313 142.287 159.38 142.421 159.38H144.521C144.761 159.38 144.881 159.487 144.881 159.7V161.18C144.881 161.407 144.747 161.52 144.481 161.52H142.361Z" fill="white"/>
<defs>
<filter id="filter0_d" x="0" y="0" width="333" height="333" filterUnits="userSpaceOnUse" color-interpolation-filters="sRGB">
<feFlood flood-opacity="0" result="BackgroundImageFix"/>
<feColorMatrix in="SourceAlpha" type="matrix" values="0 0 0 0 0 0 0 0 0 0 0 0 0 0 0 0 0 0 127 0"/>
<feOffset dy="4"/>
<feGaussianBlur stdDeviation="2"/>
<feColorMatrix type="matrix" values="0 0 0 0 0 0 0 0 0 0 0 0 0 0 0 0 0 0 0.25 0"/>
<feBlend mode="normal" in2="BackgroundImageFix" result="effect1_dropShadow"/>
<feBlend mode="normal" in="SourceGraphic" in2="effect1_dropShadow" result="shape"/>
</filter>
</defs>
</svg>
