<svg width="44" height="44" viewBox="0 0 44 44" fill="none" xmlns="http://www.w3.org/2000/svg">
<g filter="url(#filter0_d)">
<rect x="8" width="36" height="36" fill="white"/>
<path d="M38.0586 5.62855L31.4071 6.45472C31.175 6.48285 31.0801 6.7641 31.2418 6.92933L33.1649 8.85238L27.7684 14.2489C27.7161 14.3017 27.6867 14.3731 27.6867 14.4475C27.6867 14.5219 27.7161 14.5933 27.7684 14.6461L29.3539 16.2317C29.4629 16.3407 29.6422 16.3407 29.7512 16.2317L35.1512 10.8317L37.0743 12.7547C37.1114 12.7918 37.1582 12.8177 37.2093 12.8294C37.2604 12.8411 37.3138 12.8382 37.3634 12.8209C37.4129 12.8037 37.4566 12.7728 37.4894 12.7319C37.5222 12.6909 37.5428 12.6416 37.5489 12.5895L38.3715 5.94144C38.3773 5.89899 38.3733 5.85576 38.3596 5.81514C38.3459 5.77453 38.3231 5.73762 38.2928 5.70732C38.2624 5.67702 38.2256 5.65414 38.1849 5.64048C38.1443 5.62681 38.1011 5.62273 38.0586 5.62855ZM22.6461 19.7684C22.5933 19.7161 22.5219 19.6867 22.4475 19.6867C22.3731 19.6867 22.3017 19.7161 22.2489 19.7684L16.8524 25.1684L14.9293 23.2453C14.8922 23.2083 14.8454 23.1824 14.7943 23.1707C14.7432 23.159 14.6898 23.1619 14.6402 23.1792C14.5907 23.1964 14.547 23.2273 14.5142 23.2682C14.4814 23.3091 14.4608 23.3585 14.4547 23.4106L13.6286 30.0586C13.6075 30.2414 13.7586 30.3926 13.9414 30.3715L20.593 29.5453C20.825 29.5172 20.92 29.236 20.7582 29.0707L18.8352 27.1477L24.2352 21.7477C24.3442 21.6387 24.3442 21.4594 24.2352 21.3504L22.6461 19.7684Z" fill="#1B1E26"/>
</g>
<defs>
<filter id="filter0_d" x="0" y="0" width="44" height="44" filterUnits="userSpaceOnUse" color-interpolation-filters="sRGB">
<feFlood flood-opacity="0" result="BackgroundImageFix"/>
<feColorMatrix in="SourceAlpha" type="matrix" values="0 0 0 0 0 0 0 0 0 0 0 0 0 0 0 0 0 0 127 0"/>
<feOffset dx="-4" dy="4"/>
<feGaussianBlur stdDeviation="2"/>
<feColorMatrix type="matrix" values="0 0 0 0 0 0 0 0 0 0 0 0 0 0 0 0 0 0 0.15 0"/>
<feBlend mode="normal" in2="BackgroundImageFix" result="effect1_dropShadow"/>
<feBlend mode="normal" in="SourceGraphic" in2="effect1_dropShadow" result="shape"/>
</filter>
</defs>
</svg>
