<svg width="38" height="38" viewBox="0 0 38 38" fill="none" xmlns="http://www.w3.org/2000/svg">
<path d="M7.91667 34.8337H30.0833C31.8298 34.8337 33.25 33.4134 33.25 31.667V9.50033C33.25 7.75391 31.8298 6.33366 30.0833 6.33366H26.9167V3.16699H23.75V6.33366H14.25V3.16699H11.0833V6.33366H7.91667C6.17025 6.33366 4.75 7.75391 4.75 9.50033V31.667C4.75 33.4134 6.17025 34.8337 7.91667 34.8337ZM15.5151 31.6464H12.6667V28.798L20.5469 20.9288L23.3953 23.7772L15.5151 31.6464ZM24.7364 22.4362L21.888 19.5877L24.0603 17.417L26.9088 20.2654L24.7364 22.4362ZM7.91667 11.0837H30.0833V14.2503H7.91667V11.0837Z" fill="#5E72E4"/>
</svg>
