<svg width="30" height="30" viewBox="0 0 30 30" fill="none" xmlns="http://www.w3.org/2000/svg">
<path d="M26.25 21.1875C24.375 17.625 22.5 18.1875 20.4375 18C20.625 18.5625 20.625 19.125 20.625 19.875C23.625 20.625 24.375 24.1875 24.375 26.25V28.125H20.625V26.25H22.5C22.5 26.25 22.5 21.5625 19.6875 21.5625C16.875 21.5625 16.875 26.0625 16.875 26.25H18.75V28.125H15V26.25C15 24.1875 15.75 20.4375 18.75 19.875C18.75 18.75 18.5625 17.8125 18.375 17.4375C18 17.25 17.625 16.875 17.625 16.3125C17.625 15.1875 19.125 15.5625 20.25 13.5C20.25 13.5 21.9375 9.1875 21.375 5.4375H19.5C19.5 5.0625 19.6875 4.875 19.6875 4.5C19.6875 4.125 19.6875 3.9375 19.5 3.5625H21C20.4375 1.6875 18.5625 0 15 0C11.4375 0 9.5625 1.6875 8.8125 3.75H10.3125C10.3125 4.125 10.125 4.3125 10.125 4.6875C10.125 5.0625 10.125 5.25 10.3125 5.625H8.4375C8.0625 9.375 9.5625 13.6875 9.5625 13.6875C10.6875 15.5625 12.1875 15.1875 12.1875 16.5C12.1875 17.4375 11.25 17.8125 10.125 18C9.75 18.375 9.375 19.125 9.375 20.625V22.875C10.5 23.25 11.25 24.375 11.25 25.5C11.25 26.8125 9.9375 28.125 8.4375 28.125C6.9375 28.125 5.625 26.8125 5.625 25.3125C5.625 24 6.375 23.0625 7.5 22.6875V20.4375C7.5 19.5 7.6875 18.75 7.875 18C6.5625 18.1875 5.0625 18.75 3.75 21.1875C2.625 23.25 2.0625 30 2.0625 30H27.75C27.9375 30 27.375 23.25 26.25 21.1875ZM12.1875 4.6875C12.1875 3.1875 13.5 1.875 15 1.875C16.5 1.875 17.8125 3.1875 17.8125 4.6875C17.8125 6.1875 16.5 7.5 15 7.5C13.5 7.5 12.1875 6.1875 12.1875 4.6875Z" fill="#F62121"/>
<path d="M9.375 25.3125C9.375 25.5611 9.27623 25.7996 9.10041 25.9754C8.9246 26.1512 8.68614 26.25 8.4375 26.25C8.18886 26.25 7.9504 26.1512 7.77459 25.9754C7.59877 25.7996 7.5 25.5611 7.5 25.3125C7.5 25.0639 7.59877 24.8254 7.77459 24.6496C7.9504 24.4738 8.18886 24.375 8.4375 24.375C8.68614 24.375 8.9246 24.4738 9.10041 24.6496C9.27623 24.8254 9.375 25.0639 9.375 25.3125Z" fill="url(#paint0_linear)"/>
<defs>
<linearGradient id="paint0_linear" x1="8.4375" y1="24.375" x2="8.4375" y2="26.25" gradientUnits="userSpaceOnUse">
<stop stop-color="#F62121"/>
</linearGradient>
</defs>
</svg>
