<svg width="33" height="32" viewBox="0 0 33 32" fill="none" xmlns="http://www.w3.org/2000/svg">
<path d="M27.7299 13.5397L25.9037 8.06768C25.6388 7.27098 25.1292 6.57794 24.4474 6.08702C23.7656 5.5961 22.9462 5.33226 22.1057 5.33301H9.93348C9.09297 5.33226 8.2736 5.5961 7.59179 6.08702C6.90998 6.57794 6.40042 7.27098 6.1355 8.06768L4.30926 13.5397C3.82363 13.7426 3.40891 14.0844 3.11722 14.5221C2.82554 14.9598 2.66992 15.4739 2.66992 15.9997V22.6663C2.66992 23.6503 3.20925 24.501 4.00489 24.9637V27.9997C4.00489 28.3533 4.14554 28.6924 4.39589 28.9425C4.64625 29.1925 4.9858 29.333 5.33986 29.333H6.67482C7.02888 29.333 7.36843 29.1925 7.61879 28.9425C7.86914 28.6924 8.00979 28.3533 8.00979 27.9997V25.333H24.0294V27.9997C24.0294 28.3533 24.17 28.6924 24.4204 28.9425C24.6708 29.1925 25.0103 29.333 25.3644 29.333H26.6993C27.0534 29.333 27.3929 29.1925 27.6433 28.9425C27.8936 28.6924 28.0343 28.3533 28.0343 27.9997V24.9637C28.4393 24.7317 28.776 24.3972 29.0103 23.9939C29.2447 23.5906 29.3685 23.1327 29.3693 22.6663V15.9997C29.3693 15.4739 29.2136 14.9598 28.922 14.5221C28.6303 14.0844 28.2156 13.7426 27.7299 13.5397ZM9.93348 7.99968H22.1044C22.6797 7.99968 23.1897 8.36501 23.3713 8.91168L24.8477 13.333H7.19146L8.66659 8.91168C8.75517 8.64607 8.9252 8.41504 9.15259 8.25135C9.37998 8.08766 9.65318 7.99961 9.93348 7.99968ZM7.34231 21.333C7.07925 21.3329 6.81879 21.2811 6.5758 21.1805C6.3328 21.0798 6.11203 20.9324 5.92608 20.7466C5.74014 20.5607 5.59266 20.3401 5.49208 20.0974C5.39149 19.8546 5.33977 19.5944 5.33986 19.3317C5.33994 19.0689 5.39184 18.8088 5.49259 18.5661C5.59334 18.3234 5.74096 18.1029 5.92703 17.9172C6.1131 17.7315 6.33397 17.5842 6.57703 17.4837C6.82009 17.3833 7.08059 17.3316 7.34364 17.3317C7.8749 17.3319 8.38433 17.5428 8.75986 17.9181C9.1354 18.2935 9.34627 18.8024 9.34609 19.333C9.34591 19.8636 9.1347 20.3724 8.75892 20.7475C8.38314 21.1226 7.87357 21.3332 7.34231 21.333ZM24.6969 21.333C24.4338 21.3329 24.1734 21.2811 23.9304 21.1805C23.6874 21.0798 23.4666 20.9324 23.2807 20.7466C23.0947 20.5607 22.9472 20.3401 22.8466 20.0974C22.7461 19.8546 22.6943 19.5944 22.6944 19.3317C22.6945 19.0689 22.7464 18.8088 22.8472 18.5661C22.9479 18.3234 23.0955 18.1029 23.2816 17.9172C23.4677 17.7315 23.6885 17.5842 23.9316 17.4837C24.1747 17.3833 24.4352 17.3316 24.6982 17.3317C25.2295 17.3319 25.7389 17.5428 26.1144 17.9181C26.49 18.2935 26.7008 18.8024 26.7007 19.333C26.7005 19.8636 26.4893 20.3724 26.1135 20.7475C25.7377 21.1226 25.2281 21.3332 24.6969 21.333Z" fill="#5E72E4"/>
</svg>
