<svg width="26" height="30" viewBox="0 0 26 30" fill="none" xmlns="http://www.w3.org/2000/svg">
<g clip-path="url(#clip0)">
<path d="M25.5756 28.6764V29.8421H0.00244141V28.6764C0.00244141 28.2901 0.309147 27.977 0.687435 27.977H1.82909V6.99424C1.82909 6.22167 2.44245 5.5954 3.19908 5.5954H8.22237V1.39885C8.22237 0.626276 8.83572 0 9.59236 0H15.9856C16.7423 0 17.3556 0.626276 17.3556 1.39885V5.5954H22.3789C23.1355 5.5954 23.7489 6.22167 23.7489 6.99424V27.977H24.8906C25.2688 27.977 25.5756 28.2901 25.5756 28.6764ZM17.584 11.1908H15.3006C14.9224 11.1908 14.6156 11.504 14.6156 11.8902V14.2216C14.6156 14.6079 14.9224 14.9211 15.3006 14.9211H17.584C17.9622 14.9211 18.2689 14.6079 18.2689 14.2216V11.8902C18.2689 11.504 17.9622 11.1908 17.584 11.1908ZM7.99404 14.9211H10.2774C10.6556 14.9211 10.9623 14.6079 10.9623 14.2216V11.8902C10.9623 11.504 10.6556 11.1908 10.2774 11.1908H7.99404C7.61575 11.1908 7.30904 11.504 7.30904 11.8902V14.2216C7.30904 14.6079 7.61575 14.9211 7.99404 14.9211ZM13.9307 22.3816H11.6473C11.2691 22.3816 10.9623 22.6947 10.9623 23.081V27.977H14.6156V23.081C14.6156 22.6947 14.3089 22.3816 13.9307 22.3816ZM17.584 16.7862H15.3006C14.9224 16.7862 14.6156 17.0994 14.6156 17.4856V19.817C14.6156 20.2033 14.9224 20.5164 15.3006 20.5164H17.584C17.9622 20.5164 18.2689 20.2033 18.2689 19.817V17.4856C18.2689 17.0994 17.9622 16.7862 17.584 16.7862ZM10.9623 17.4856C10.9623 17.0994 10.6556 16.7862 10.2774 16.7862H7.99404C7.61575 16.7862 7.30904 17.0994 7.30904 17.4856V19.817C7.30904 20.2033 7.61575 20.5164 7.99404 20.5164H10.2774C10.6556 20.5164 10.9623 20.2033 10.9623 19.817V17.4856ZM10.3915 5.5954H11.8757V7.11081C11.8757 7.20356 11.9118 7.29251 11.976 7.3581C12.0402 7.42368 12.1273 7.46053 12.2182 7.46053H13.3598C13.4507 7.46053 13.5378 7.42368 13.602 7.3581C13.6662 7.29251 13.7023 7.20356 13.7023 7.11081V5.5954H15.1865C15.2773 5.5954 15.3644 5.55855 15.4287 5.49297C15.4929 5.42738 15.529 5.33843 15.529 5.24568V4.07998C15.529 3.98723 15.4929 3.89828 15.4287 3.83269C15.3644 3.76711 15.2773 3.73026 15.1865 3.73026H13.7023V2.21484C13.7023 2.12209 13.6662 2.03314 13.602 1.96756C13.5378 1.90198 13.4507 1.86513 13.3598 1.86513H12.2182C12.1273 1.86513 12.0402 1.90198 11.976 1.96756C11.9118 2.03314 11.8757 2.12209 11.8757 2.21484V3.73026H10.3915C10.3007 3.73026 10.2136 3.76711 10.1493 3.83269C10.0851 3.89828 10.049 3.98723 10.049 4.07998V5.24568C10.049 5.33843 10.0851 5.42738 10.1493 5.49297C10.2136 5.55855 10.3007 5.5954 10.3915 5.5954Z" fill="#5E72E4"/>
</g>
<defs>
<clipPath id="clip0">
<rect width="25.5789" height="29.8421" fill="white"/>
</clipPath>
</defs>
</svg>
