<svg width="20" height="31" viewBox="0 0 20 31" fill="none" xmlns="http://www.w3.org/2000/svg">
<g clip-path="url(#clip0)">
<path d="M12.9992 5.8125C14.6549 5.8125 15.9982 4.51074 15.9982 2.90625C15.9982 1.30176 14.6549 0 12.9992 0C11.3434 0 10.0001 1.30176 10.0001 2.90625C10.0001 4.51074 11.3434 5.8125 12.9992 5.8125ZM18.9035 14.84L17.4477 14.1256L16.8417 12.3455C15.9232 9.64512 13.3615 7.75605 10.4562 7.75C8.20695 7.74395 6.96359 8.36152 4.62684 9.27578C3.27727 9.80254 2.17138 10.8016 1.52158 12.073L1.10297 12.8965C0.615625 13.8531 1.00925 15.0156 1.99019 15.4939C2.96487 15.9723 4.15199 15.5848 4.64559 14.6281L5.0642 13.8047C5.28288 13.3809 5.64527 13.0479 6.09512 12.8723L7.76959 12.2184L6.81989 15.8936C6.49499 17.1529 6.84488 18.491 7.75084 19.4537L11.4934 23.4135C11.9432 23.8918 12.2619 24.467 12.4243 25.0906L13.5677 29.5287C13.8364 30.5641 14.9235 31.1998 15.992 30.9395C17.0604 30.6791 17.7164 29.6256 17.4477 28.5902L16.0607 23.2016C15.8982 22.5779 15.5796 21.9967 15.1297 21.5244L12.2869 18.5152L13.3615 14.3557L13.7052 15.3547C14.0363 16.3295 14.7486 17.1348 15.6858 17.5949L17.1416 18.3094C18.1163 18.7877 19.3034 18.4002 19.797 17.4436C20.2781 16.493 19.8845 15.3184 18.9035 14.84ZM4.60185 23.359C4.40191 23.8494 4.10201 24.2914 3.71463 24.6607L0.590633 27.6941C-0.190367 28.451 -0.190367 29.6801 0.590633 30.4369C1.37163 31.1938 2.63373 31.1938 3.41473 30.4369L7.12604 26.8404C7.50717 26.4711 7.80707 26.0291 8.01326 25.5387L8.85674 23.4922C5.40159 19.8412 6.43876 20.9613 5.89519 20.2408L4.60185 23.359Z" fill="#5E72E4"/>
</g>
<defs>
<clipPath id="clip0">
<rect width="20" height="31" fill="white"/>
</clipPath>
</defs>
</svg>
