<svg width="25" height="24" viewBox="0 0 25 24" fill="none" xmlns="http://www.w3.org/2000/svg">
<path d="M0.251256 8.71536L12.1859 0.663056C12.3744 0.536248 12.6256 0.599652 12.8141 0.663056L24.7487 8.71536C24.9372 8.84216 25 8.96897 25 9.15918V20.6987C25 22.2838 23.6809 23.6153 22.0477 23.6153H2.95226C1.3191 23.6153 0 22.2838 0 20.6987V9.15918C0 8.96897 0.0628141 8.84216 0.251256 8.71536ZM23.9322 10.1102L12.7513 16.5774C12.6256 16.7043 12.3744 16.7043 12.2487 16.5774L1.06784 10.1102V20.6987C1.06784 21.7132 1.88442 22.5374 2.95226 22.5374H22.0477C23.1156 22.5374 23.9322 21.7132 23.9322 20.6987V10.1102ZM23.4296 9.15918L12.5 1.80433L1.50754 9.15918L12.5 15.4996L23.4296 9.15918Z" fill="#FF6F61"/>
</svg>
