<svg width="24" height="24" viewBox="0 0 24 24" fill="none" xmlns="http://www.w3.org/2000/svg">
<path d="M8.0625 9.40234H6.5625V16.5947H8.0625V9.40234Z" fill="#FF6F61"/>
<path d="M8.0625 6.16602H6.5625V7.60449H8.0625V6.16602Z" fill="#FF6F61"/>
<path d="M11.8125 13.8976V12.9985C11.8125 11.9017 12.7313 11.0206 13.875 11.0206C15.0188 11.0206 15.9375 11.9017 15.9375 12.9985V16.5947H17.4375V12.9985C17.4375 11.1105 15.8438 9.58215 13.875 9.58215C13.1063 9.58215 12.3937 9.81591 11.8125 10.2115V9.40234H10.3125V12.9985V13.8976V16.5947H11.8125V13.8976Z" fill="#FF6F61"/>
<path d="M23.8125 0.771484H0.1875V23.4275H23.8125V0.771484ZM22.3125 21.989H1.6875V2.20996H22.3125V21.989Z" fill="#FF6F61"/>
</svg>
